G04 #@! TF.GenerationSoftware,KiCad,Pcbnew,(5.99.0-10394-g2e15de97e0)*
G04 #@! TF.CreationDate,2021-07-20T11:39:10+02:00*
G04 #@! TF.ProjectId,AIRDOSC01A_PCB01C,41495244-4f53-4433-9031-415f50434230,rev?*
G04 #@! TF.SameCoordinates,Original*
G04 #@! TF.FileFunction,Copper,L1,Top*
G04 #@! TF.FilePolarity,Positive*
%FSLAX46Y46*%
G04 Gerber Fmt 4.6, Leading zero omitted, Abs format (unit mm)*
G04 Created by KiCad (PCBNEW (5.99.0-10394-g2e15de97e0)) date 2021-07-20 11:39:10*
%MOMM*%
%LPD*%
G01*
G04 APERTURE LIST*
G04 Aperture macros list*
%AMOutline4P*
0 Free polygon, 4 corners , with rotation*
0 The origin of the aperture is its center*
0 number of corners: always 4*
0 $1 to $8 corner X, Y*
0 $9 Rotation angle, in degrees counterclockwise*
0 create outline with 4 corners*
4,1,4,$1,$2,$3,$4,$5,$6,$7,$8,$1,$2,$9*%
G04 Aperture macros list end*
G04 #@! TA.AperFunction,SMDPad,CuDef*
%ADD10Outline4P,-1.750000X-1.750000X1.750000X-1.750000X1.750000X1.750000X-1.750000X1.750000X0.000000*%
G04 #@! TD*
G04 #@! TA.AperFunction,SMDPad,CuDef*
%ADD11Outline4P,-1.750000X-1.750000X1.750000X-1.750000X1.750000X1.750000X-1.750000X1.750000X90.000000*%
G04 #@! TD*
G04 #@! TA.AperFunction,SMDPad,CuDef*
%ADD12Outline4P,-1.750000X-1.750000X1.750000X-1.750000X1.750000X1.750000X-1.750000X1.750000X180.000000*%
G04 #@! TD*
G04 #@! TA.AperFunction,SMDPad,CuDef*
%ADD13Outline4P,-1.750000X-1.750000X1.750000X-1.750000X1.750000X1.750000X-1.750000X1.750000X270.000000*%
G04 #@! TD*
G04 #@! TA.AperFunction,ComponentPad*
%ADD14C,6.000000*%
G04 #@! TD*
G04 #@! TA.AperFunction,ComponentPad*
%ADD15R,1.524000X1.524000*%
G04 #@! TD*
G04 #@! TA.AperFunction,ViaPad*
%ADD16C,0.800000*%
G04 #@! TD*
G04 #@! TA.AperFunction,Conductor*
%ADD17C,0.500000*%
G04 #@! TD*
G04 #@! TA.AperFunction,Conductor*
%ADD18C,0.400000*%
G04 #@! TD*
G04 APERTURE END LIST*
D10*
X6837000Y16870000D03*
D11*
X13737000Y16870000D03*
D12*
X13737000Y23770000D03*
D13*
X6837000Y23770000D03*
D14*
X5207000Y5080000D03*
X5207000Y35560000D03*
D15*
X25273000Y20828000D03*
X27813000Y20828000D03*
X25273000Y18288000D03*
X27813000Y18288000D03*
X25273000Y2540000D03*
X27813000Y2540000D03*
X25273000Y15748000D03*
X27813000Y15748000D03*
X25273000Y33020000D03*
X27813000Y33020000D03*
X25273000Y35560000D03*
X27813000Y35560000D03*
X25273000Y38100000D03*
X27813000Y38100000D03*
X27813000Y5080000D03*
X25273000Y5080000D03*
X27813000Y7620000D03*
X25273000Y7620000D03*
X25273000Y23368000D03*
X27813000Y23368000D03*
D14*
X15367000Y5080000D03*
X15367000Y35560000D03*
D16*
X12446000Y28956000D03*
X11430000Y28956000D03*
X16383000Y22352000D03*
X16256000Y24384000D03*
X14351000Y26162000D03*
X12065000Y27940000D03*
X7239000Y28448000D03*
X6096000Y27813000D03*
X6096000Y26670000D03*
X12827000Y11684000D03*
X9271000Y33020000D03*
X10287000Y10160000D03*
X10795000Y33020000D03*
X8763000Y13208000D03*
X20955000Y38100000D03*
X28067000Y25908000D03*
X22987000Y16256000D03*
X18415000Y23368000D03*
X7239000Y30988000D03*
X10287000Y13208000D03*
X26035000Y13208000D03*
X27559000Y13208000D03*
X16383000Y23368000D03*
X17399000Y16284502D03*
X26035000Y25908000D03*
X22987000Y13208000D03*
X7239000Y29464000D03*
X22987000Y14732000D03*
X20447000Y19812000D03*
X28067000Y27432000D03*
X24511000Y13208000D03*
X7239000Y10160000D03*
X5715000Y10160000D03*
X8763000Y10160000D03*
X22987000Y38100000D03*
X26035000Y27432000D03*
X11811000Y10160000D03*
X13335000Y10160000D03*
X7239000Y27432000D03*
X28067000Y29464000D03*
X28067000Y30988000D03*
X26035000Y30988000D03*
X19431000Y36068000D03*
X7239000Y26543000D03*
X19431000Y34544000D03*
X19431000Y32512000D03*
X26035000Y29464000D03*
X19939000Y23368000D03*
X19431000Y38100000D03*
X12827000Y24892000D03*
X14859000Y20828000D03*
X7747000Y15748000D03*
X17907000Y14224000D03*
X14351000Y18288000D03*
X17907000Y20320000D03*
X16383000Y16256000D03*
D17*
X7239000Y27432000D02*
X7239000Y26543000D01*
X19939000Y23368000D02*
X18415000Y23368000D01*
X10287000Y10160000D02*
X8763000Y10160000D01*
X19431000Y36068000D02*
X19431000Y38100000D01*
X7239000Y29464000D02*
X7239000Y30988000D01*
X19431000Y32512000D02*
X19431000Y34544000D01*
X7239000Y10160000D02*
X5715000Y10160000D01*
X22987000Y13208000D02*
X22987000Y14732000D01*
X13335000Y10160000D02*
X11811000Y10160000D01*
X27559000Y13208000D02*
X26035000Y13208000D01*
D18*
X13137000Y24582000D02*
X12827000Y24892000D01*
X13137000Y23320000D02*
X13137000Y24582000D01*
D17*
X22987000Y23368000D02*
X25273000Y23368000D01*
X14859000Y20828000D02*
X15258999Y21227999D01*
X20846999Y21227999D02*
X22987000Y23368000D01*
X15258999Y21227999D02*
X20846999Y21227999D01*
X7437000Y16058000D02*
X7747000Y15748000D01*
X7437000Y17320000D02*
X7437000Y16058000D01*
X17907000Y14224000D02*
X21971000Y18288000D01*
X25273000Y18288000D02*
X27813000Y18288000D01*
X21971000Y18288000D02*
X25273000Y18288000D01*
X13533000Y17470000D02*
X14351000Y18288000D01*
X13287000Y17470000D02*
X13533000Y17470000D01*
X16383000Y16256000D02*
X16383000Y18796000D01*
X16383000Y18796000D02*
X17907000Y20320000D01*
G04 #@! TA.AperFunction,Conductor*
G36*
X29787121Y39857998D02*
G01*
X29833614Y39804342D01*
X29845000Y39752000D01*
X29845000Y888000D01*
X29824998Y819879D01*
X29771342Y773386D01*
X29719000Y762000D01*
X1015000Y762000D01*
X946879Y782002D01*
X900386Y835658D01*
X889000Y888000D01*
X889000Y2272452D01*
X23998000Y2272452D01*
X23998000Y1780257D01*
X23998161Y1775750D01*
X24002740Y1711731D01*
X24005126Y1698509D01*
X24041819Y1573542D01*
X24049233Y1557308D01*
X24118426Y1449640D01*
X24130112Y1436153D01*
X24226840Y1352338D01*
X24241848Y1342693D01*
X24358275Y1289523D01*
X24375388Y1284498D01*
X24506554Y1265639D01*
X24515495Y1265000D01*
X25000885Y1265000D01*
X25016124Y1269475D01*
X25017329Y1270865D01*
X25019000Y1278548D01*
X25019000Y2267885D01*
X25017659Y2272452D01*
X25527000Y2272452D01*
X25527000Y1283115D01*
X25531475Y1267876D01*
X25532865Y1266671D01*
X25540548Y1265000D01*
X26032743Y1265000D01*
X26037250Y1265161D01*
X26101269Y1269740D01*
X26114491Y1272126D01*
X26239458Y1308819D01*
X26255692Y1316233D01*
X26363360Y1385426D01*
X26376847Y1397112D01*
X26447677Y1478855D01*
X26507403Y1517239D01*
X26578400Y1517239D01*
X26638126Y1478856D01*
X26648900Y1464463D01*
X26658426Y1449640D01*
X26670112Y1436153D01*
X26766840Y1352338D01*
X26781848Y1342693D01*
X26898275Y1289523D01*
X26915388Y1284498D01*
X27046554Y1265639D01*
X27055495Y1265000D01*
X27540885Y1265000D01*
X27556124Y1269475D01*
X27557329Y1270865D01*
X27559000Y1278548D01*
X27559000Y2267885D01*
X27557659Y2272452D01*
X28067000Y2272452D01*
X28067000Y1283115D01*
X28071475Y1267876D01*
X28072865Y1266671D01*
X28080548Y1265000D01*
X28572743Y1265000D01*
X28577250Y1265161D01*
X28641269Y1269740D01*
X28654491Y1272126D01*
X28779458Y1308819D01*
X28795692Y1316233D01*
X28903360Y1385426D01*
X28916847Y1397112D01*
X29000662Y1493840D01*
X29010307Y1508848D01*
X29063477Y1625275D01*
X29068502Y1642388D01*
X29087361Y1773554D01*
X29088000Y1782497D01*
X29088000Y2267885D01*
X29083525Y2283124D01*
X29082135Y2284329D01*
X29074452Y2286000D01*
X28085115Y2286000D01*
X28069876Y2281525D01*
X28068671Y2280135D01*
X28067000Y2272452D01*
X27557659Y2272452D01*
X27554525Y2283124D01*
X27553135Y2284329D01*
X27545452Y2286000D01*
X25545115Y2286000D01*
X25529876Y2281525D01*
X25528671Y2280135D01*
X25527000Y2272452D01*
X25017659Y2272452D01*
X25014525Y2283124D01*
X25013135Y2284329D01*
X25005452Y2286000D01*
X24016115Y2286000D01*
X24000876Y2281525D01*
X23999671Y2280135D01*
X23998000Y2272452D01*
X889000Y2272452D01*
X889000Y5842000D01*
X23997500Y5842000D01*
X23997500Y4318000D01*
X24002727Y4244921D01*
X24043904Y4104684D01*
X24048775Y4097105D01*
X24118051Y3989309D01*
X24118053Y3989306D01*
X24122923Y3981729D01*
X24129733Y3975828D01*
X24211422Y3905043D01*
X24249805Y3845316D01*
X24249805Y3774320D01*
X24211421Y3714594D01*
X24197029Y3703821D01*
X24182640Y3694574D01*
X24169153Y3682888D01*
X24085338Y3586160D01*
X24075693Y3571152D01*
X24022523Y3454725D01*
X24017498Y3437612D01*
X23998639Y3306446D01*
X23998000Y3297505D01*
X23998000Y2812115D01*
X24002475Y2796876D01*
X24003865Y2795671D01*
X24011548Y2794000D01*
X29069885Y2794000D01*
X29085124Y2798475D01*
X29086329Y2799865D01*
X29088000Y2807548D01*
X29088000Y3299743D01*
X29087839Y3304250D01*
X29083260Y3368269D01*
X29080874Y3381491D01*
X29044181Y3506458D01*
X29036767Y3522692D01*
X28967574Y3630360D01*
X28955888Y3643846D01*
X28874534Y3714339D01*
X28836150Y3774065D01*
X28836150Y3845061D01*
X28874533Y3904788D01*
X28888925Y3915562D01*
X28903691Y3925051D01*
X28903694Y3925053D01*
X28911271Y3929923D01*
X28951048Y3975828D01*
X29001082Y4033569D01*
X29001084Y4033572D01*
X29006984Y4040381D01*
X29067700Y4173330D01*
X29078962Y4251660D01*
X29087861Y4313552D01*
X29087862Y4313559D01*
X29088500Y4318000D01*
X29088500Y5842000D01*
X29083273Y5915079D01*
X29042096Y6055316D01*
X28996393Y6126431D01*
X28967949Y6170691D01*
X28967947Y6170694D01*
X28963077Y6178271D01*
X28956267Y6184172D01*
X28874578Y6254957D01*
X28836195Y6314684D01*
X28836195Y6385680D01*
X28874579Y6445406D01*
X28888971Y6456179D01*
X28903360Y6465426D01*
X28916847Y6477112D01*
X29000662Y6573840D01*
X29010307Y6588848D01*
X29063477Y6705275D01*
X29068502Y6722388D01*
X29087361Y6853554D01*
X29088000Y6862497D01*
X29088000Y7347885D01*
X29083525Y7363124D01*
X29082135Y7364329D01*
X29074452Y7366000D01*
X24016115Y7366000D01*
X24000876Y7361525D01*
X23999671Y7360135D01*
X23998000Y7352452D01*
X23998000Y6860257D01*
X23998161Y6855750D01*
X24002740Y6791731D01*
X24005126Y6778509D01*
X24041819Y6653542D01*
X24049233Y6637308D01*
X24118426Y6529640D01*
X24130112Y6516154D01*
X24211466Y6445661D01*
X24249850Y6385935D01*
X24249850Y6314939D01*
X24211467Y6255212D01*
X24197075Y6244438D01*
X24182309Y6234949D01*
X24182306Y6234947D01*
X24174729Y6230077D01*
X24168828Y6223267D01*
X24084918Y6126431D01*
X24084916Y6126428D01*
X24079016Y6119619D01*
X24018300Y5986670D01*
X24017018Y5977755D01*
X24017018Y5977754D01*
X23998139Y5846448D01*
X23998138Y5846441D01*
X23997500Y5842000D01*
X889000Y5842000D01*
X889000Y8377505D01*
X23998000Y8377505D01*
X23998000Y7892115D01*
X24002475Y7876876D01*
X24003865Y7875671D01*
X24011548Y7874000D01*
X25000885Y7874000D01*
X25016124Y7878475D01*
X25017329Y7879865D01*
X25019000Y7887548D01*
X25019000Y8876885D01*
X25017659Y8881452D01*
X25527000Y8881452D01*
X25527000Y7892115D01*
X25531475Y7876876D01*
X25532865Y7875671D01*
X25540548Y7874000D01*
X27540885Y7874000D01*
X27556124Y7878475D01*
X27557329Y7879865D01*
X27559000Y7887548D01*
X27559000Y8876885D01*
X27557659Y8881452D01*
X28067000Y8881452D01*
X28067000Y7892115D01*
X28071475Y7876876D01*
X28072865Y7875671D01*
X28080548Y7874000D01*
X29069885Y7874000D01*
X29085124Y7878475D01*
X29086329Y7879865D01*
X29088000Y7887548D01*
X29088000Y8379743D01*
X29087839Y8384250D01*
X29083260Y8448269D01*
X29080874Y8461491D01*
X29044181Y8586458D01*
X29036767Y8602692D01*
X28967574Y8710360D01*
X28955888Y8723847D01*
X28859160Y8807662D01*
X28844152Y8817307D01*
X28727725Y8870477D01*
X28710612Y8875502D01*
X28579446Y8894361D01*
X28570505Y8895000D01*
X28085115Y8895000D01*
X28069876Y8890525D01*
X28068671Y8889135D01*
X28067000Y8881452D01*
X27557659Y8881452D01*
X27554525Y8892124D01*
X27553135Y8893329D01*
X27545452Y8895000D01*
X27053257Y8895000D01*
X27048750Y8894839D01*
X26984731Y8890260D01*
X26971509Y8887874D01*
X26846542Y8851181D01*
X26830308Y8843767D01*
X26722640Y8774574D01*
X26709153Y8762888D01*
X26638323Y8681145D01*
X26578597Y8642761D01*
X26507600Y8642761D01*
X26447874Y8681144D01*
X26437100Y8695537D01*
X26427574Y8710360D01*
X26415888Y8723847D01*
X26319160Y8807662D01*
X26304152Y8817307D01*
X26187725Y8870477D01*
X26170612Y8875502D01*
X26039446Y8894361D01*
X26030505Y8895000D01*
X25545115Y8895000D01*
X25529876Y8890525D01*
X25528671Y8889135D01*
X25527000Y8881452D01*
X25017659Y8881452D01*
X25014525Y8892124D01*
X25013135Y8893329D01*
X25005452Y8895000D01*
X24513257Y8895000D01*
X24508750Y8894839D01*
X24444731Y8890260D01*
X24431509Y8887874D01*
X24306542Y8851181D01*
X24290308Y8843767D01*
X24182640Y8774574D01*
X24169153Y8762888D01*
X24085338Y8666160D01*
X24075693Y8651152D01*
X24022523Y8534725D01*
X24017498Y8517612D01*
X23998639Y8386446D01*
X23998000Y8377505D01*
X889000Y8377505D01*
X889000Y18620000D01*
X4573500Y18620000D01*
X4573500Y15120000D01*
X4578727Y15046921D01*
X4619904Y14906684D01*
X4624775Y14899105D01*
X4694051Y14791309D01*
X4694053Y14791306D01*
X4698923Y14783729D01*
X4705733Y14777828D01*
X4802569Y14693918D01*
X4802572Y14693916D01*
X4809381Y14688016D01*
X4942330Y14627300D01*
X4951245Y14626018D01*
X4951246Y14626018D01*
X5082552Y14607139D01*
X5082559Y14607138D01*
X5087000Y14606500D01*
X8587000Y14606500D01*
X8660079Y14611727D01*
X8770513Y14644153D01*
X8791670Y14650365D01*
X8791672Y14650366D01*
X8800316Y14652904D01*
X8849125Y14684272D01*
X8915691Y14727051D01*
X8915694Y14727053D01*
X8923271Y14731923D01*
X8948416Y14760942D01*
X9013082Y14835569D01*
X9013084Y14835572D01*
X9018984Y14842381D01*
X9079700Y14975330D01*
X9096588Y15092790D01*
X9099861Y15115552D01*
X9099862Y15115559D01*
X9100500Y15120000D01*
X9100500Y18620000D01*
X9095273Y18693079D01*
X9071846Y18772864D01*
X9056635Y18824670D01*
X9056634Y18824672D01*
X9054096Y18833316D01*
X9028123Y18873731D01*
X8979949Y18948691D01*
X8979947Y18948694D01*
X8975077Y18956271D01*
X8942548Y18984458D01*
X8871431Y19046082D01*
X8871428Y19046084D01*
X8864619Y19051984D01*
X8781569Y19089912D01*
X8739864Y19108958D01*
X8739863Y19108958D01*
X8731670Y19112700D01*
X8722755Y19113982D01*
X8722754Y19113982D01*
X8591448Y19132861D01*
X8591441Y19132862D01*
X8587000Y19133500D01*
X5087000Y19133500D01*
X5013921Y19128273D01*
X4960884Y19112700D01*
X4882330Y19089635D01*
X4882328Y19089634D01*
X4873684Y19087096D01*
X4866105Y19082225D01*
X4758309Y19012949D01*
X4758306Y19012947D01*
X4750729Y19008077D01*
X4744828Y19001267D01*
X4660918Y18904431D01*
X4660916Y18904428D01*
X4655016Y18897619D01*
X4651272Y18889421D01*
X4620422Y18821868D01*
X4594300Y18764670D01*
X4593018Y18755755D01*
X4593018Y18755754D01*
X4574139Y18624448D01*
X4574138Y18624441D01*
X4573500Y18620000D01*
X889000Y18620000D01*
X889000Y25520000D01*
X4573500Y25520000D01*
X4573500Y22020000D01*
X4578727Y21946921D01*
X4619904Y21806684D01*
X4624775Y21799105D01*
X4694051Y21691309D01*
X4694053Y21691306D01*
X4698923Y21683729D01*
X4705733Y21677828D01*
X4802569Y21593918D01*
X4802572Y21593916D01*
X4809381Y21588016D01*
X4942330Y21527300D01*
X4951245Y21526018D01*
X4951246Y21526018D01*
X5082552Y21507139D01*
X5082559Y21507138D01*
X5087000Y21506500D01*
X8587000Y21506500D01*
X8660079Y21511727D01*
X8738165Y21534655D01*
X8791670Y21550365D01*
X8791672Y21550366D01*
X8800316Y21552904D01*
X8864135Y21593918D01*
X8915691Y21627051D01*
X8915694Y21627053D01*
X8923271Y21631923D01*
X8963048Y21677828D01*
X9013082Y21735569D01*
X9013084Y21735572D01*
X9018984Y21742381D01*
X9079700Y21875330D01*
X9080982Y21884246D01*
X9099861Y22015552D01*
X9099862Y22015559D01*
X9100500Y22020000D01*
X9100500Y25520000D01*
X11473500Y25520000D01*
X11473500Y22020000D01*
X11478727Y21946921D01*
X11519904Y21806684D01*
X11524775Y21799105D01*
X11594051Y21691309D01*
X11594053Y21691306D01*
X11598923Y21683729D01*
X11605733Y21677828D01*
X11702569Y21593918D01*
X11702572Y21593916D01*
X11709381Y21588016D01*
X11842330Y21527300D01*
X11851245Y21526018D01*
X11851246Y21526018D01*
X11982552Y21507139D01*
X11982559Y21507138D01*
X11987000Y21506500D01*
X13983453Y21506500D01*
X14051574Y21486498D01*
X14098067Y21432842D01*
X14108171Y21362568D01*
X14092572Y21317500D01*
X14024476Y21199554D01*
X13965462Y21017927D01*
X13945500Y20828000D01*
X13946190Y20821435D01*
X13959443Y20695345D01*
X13965462Y20638073D01*
X13967502Y20631795D01*
X13967502Y20631794D01*
X13981835Y20587681D01*
X14024476Y20456446D01*
X14119963Y20291058D01*
X14247749Y20149137D01*
X14253091Y20145256D01*
X14253093Y20145254D01*
X14368300Y20061552D01*
X14402250Y20036886D01*
X14408278Y20034202D01*
X14408280Y20034201D01*
X14570682Y19961895D01*
X14576713Y19959210D01*
X14670113Y19939357D01*
X14757056Y19920876D01*
X14757061Y19920876D01*
X14763513Y19919504D01*
X14954487Y19919504D01*
X14960939Y19920876D01*
X14960944Y19920876D01*
X15047887Y19939357D01*
X15141287Y19959210D01*
X15147318Y19961895D01*
X15309720Y20034201D01*
X15309722Y20034202D01*
X15315750Y20036886D01*
X15349700Y20061552D01*
X15464907Y20145254D01*
X15464909Y20145256D01*
X15470251Y20149137D01*
X15598037Y20291058D01*
X15664687Y20406499D01*
X15716070Y20455492D01*
X15773806Y20469499D01*
X16679628Y20469499D01*
X16747749Y20449497D01*
X16794242Y20395841D01*
X16804346Y20325567D01*
X16774852Y20260987D01*
X16768723Y20254404D01*
X15893322Y19379003D01*
X15878911Y19366618D01*
X15862294Y19354389D01*
X15839551Y19327619D01*
X15829382Y19315649D01*
X15822452Y19308133D01*
X15816335Y19302016D01*
X15814062Y19299143D01*
X15814054Y19299134D01*
X15797854Y19278657D01*
X15795063Y19275253D01*
X15752545Y19225206D01*
X15747803Y19219624D01*
X15744475Y19213106D01*
X15741123Y19208081D01*
X15737946Y19202937D01*
X15733406Y19197198D01*
X15730305Y19190563D01*
X15729563Y19188977D01*
X15728769Y19188077D01*
X15726461Y19184340D01*
X15725821Y19184735D01*
X15682597Y19135736D01*
X15614302Y19116338D01*
X15597487Y19117615D01*
X15491448Y19132861D01*
X15491441Y19132862D01*
X15487000Y19133500D01*
X14712380Y19133500D01*
X14661131Y19144393D01*
X14639318Y19154105D01*
X14639316Y19154105D01*
X14633287Y19156790D01*
X14539887Y19176643D01*
X14452944Y19195124D01*
X14452939Y19195124D01*
X14446487Y19196496D01*
X14255513Y19196496D01*
X14249061Y19195124D01*
X14249056Y19195124D01*
X14162113Y19176643D01*
X14068713Y19156790D01*
X14062684Y19154105D01*
X14062682Y19154105D01*
X14040869Y19144393D01*
X13989620Y19133500D01*
X11987000Y19133500D01*
X11913921Y19128273D01*
X11860884Y19112700D01*
X11782330Y19089635D01*
X11782328Y19089634D01*
X11773684Y19087096D01*
X11766105Y19082225D01*
X11658309Y19012949D01*
X11658306Y19012947D01*
X11650729Y19008077D01*
X11644828Y19001267D01*
X11560918Y18904431D01*
X11560916Y18904428D01*
X11555016Y18897619D01*
X11551272Y18889421D01*
X11520422Y18821868D01*
X11494300Y18764670D01*
X11493018Y18755755D01*
X11493018Y18755754D01*
X11474139Y18624448D01*
X11474138Y18624441D01*
X11473500Y18620000D01*
X11473500Y15120000D01*
X11478727Y15046921D01*
X11519904Y14906684D01*
X11524775Y14899105D01*
X11594051Y14791309D01*
X11594053Y14791306D01*
X11598923Y14783729D01*
X11605733Y14777828D01*
X11702569Y14693918D01*
X11702572Y14693916D01*
X11709381Y14688016D01*
X11842330Y14627300D01*
X11851245Y14626018D01*
X11851246Y14626018D01*
X11982552Y14607139D01*
X11982559Y14607138D01*
X11987000Y14606500D01*
X15487000Y14606500D01*
X15560079Y14611727D01*
X15670513Y14644153D01*
X15691670Y14650365D01*
X15691672Y14650366D01*
X15700316Y14652904D01*
X15749125Y14684272D01*
X15815691Y14727051D01*
X15815694Y14727053D01*
X15823271Y14731923D01*
X15848416Y14760942D01*
X15913082Y14835569D01*
X15913084Y14835572D01*
X15918984Y14842381D01*
X15979700Y14975330D01*
X15996588Y15092790D01*
X15999861Y15115552D01*
X15999862Y15115559D01*
X16000500Y15120000D01*
X16000500Y15252913D01*
X16020502Y15321034D01*
X16074158Y15367527D01*
X16144432Y15377631D01*
X16152697Y15376160D01*
X16281056Y15348876D01*
X16281061Y15348876D01*
X16287513Y15347504D01*
X16478487Y15347504D01*
X16484939Y15348876D01*
X16484944Y15348876D01*
X16572687Y15367527D01*
X16665287Y15387210D01*
X16765501Y15431828D01*
X16833720Y15462201D01*
X16833722Y15462202D01*
X16839750Y15464886D01*
X16875864Y15491124D01*
X16988907Y15573254D01*
X16988909Y15573256D01*
X16994251Y15577137D01*
X17122037Y15719058D01*
X17217524Y15884446D01*
X17242043Y15959907D01*
X17274498Y16059794D01*
X17274498Y16059795D01*
X17276538Y16066073D01*
X17296500Y16256000D01*
X17276538Y16445927D01*
X17217524Y16627554D01*
X17158381Y16729993D01*
X17141500Y16792992D01*
X17141500Y18429629D01*
X17161502Y18497750D01*
X17178405Y18518724D01*
X18063337Y19403656D01*
X18126234Y19437808D01*
X18189287Y19451210D01*
X18215615Y19462932D01*
X18357720Y19526201D01*
X18357722Y19526202D01*
X18363750Y19528886D01*
X18369092Y19532767D01*
X18512907Y19637254D01*
X18512909Y19637256D01*
X18518251Y19641137D01*
X18592706Y19723828D01*
X18641618Y19778150D01*
X18641619Y19778151D01*
X18646037Y19783058D01*
X18724814Y19919504D01*
X18738220Y19942723D01*
X18738221Y19942724D01*
X18741524Y19948446D01*
X18778988Y20063750D01*
X18798498Y20123794D01*
X18798498Y20123795D01*
X18800538Y20130073D01*
X18820500Y20320000D01*
X18819415Y20330323D01*
X18819810Y20332483D01*
X18819810Y20333171D01*
X18819936Y20333171D01*
X18832184Y20400162D01*
X18880683Y20452011D01*
X18944724Y20469499D01*
X20781012Y20469499D01*
X20799962Y20468066D01*
X20813119Y20466064D01*
X20813123Y20466064D01*
X20820353Y20464964D01*
X20827645Y20465557D01*
X20827648Y20465557D01*
X20871009Y20469084D01*
X20881223Y20469499D01*
X20889885Y20469499D01*
X20893519Y20469923D01*
X20893523Y20469923D01*
X20919482Y20472950D01*
X20923861Y20473383D01*
X20932646Y20474098D01*
X20996604Y20479299D01*
X21003567Y20481555D01*
X21009455Y20482731D01*
X21015372Y20484129D01*
X21022642Y20484977D01*
X21091266Y20509886D01*
X21095394Y20511303D01*
X21157867Y20531541D01*
X21157872Y20531543D01*
X21164829Y20533797D01*
X21171083Y20537592D01*
X21176561Y20540100D01*
X21181980Y20542814D01*
X21188863Y20545312D01*
X21249922Y20585344D01*
X21253611Y20587671D01*
X21277829Y20602367D01*
X21311207Y20622621D01*
X21311211Y20622624D01*
X21316005Y20625533D01*
X21325309Y20633750D01*
X21327893Y20635971D01*
X21330623Y20638254D01*
X21336746Y20642268D01*
X21385876Y20694131D01*
X21388254Y20696573D01*
X23264276Y22572595D01*
X23326588Y22606621D01*
X23353371Y22609500D01*
X23885919Y22609500D01*
X23954040Y22589498D01*
X24000533Y22535842D01*
X24006815Y22518998D01*
X24043904Y22392684D01*
X24048775Y22385105D01*
X24118051Y22277309D01*
X24118053Y22277306D01*
X24122923Y22269729D01*
X24198962Y22203841D01*
X24211033Y22193381D01*
X24249416Y22133655D01*
X24249416Y22062659D01*
X24211032Y22002932D01*
X24196642Y21992160D01*
X24174729Y21978077D01*
X24168828Y21971267D01*
X24084918Y21874431D01*
X24084916Y21874428D01*
X24079016Y21867619D01*
X24018300Y21734670D01*
X24017018Y21725755D01*
X24017018Y21725754D01*
X23998139Y21594448D01*
X23998138Y21594441D01*
X23997500Y21590000D01*
X23997500Y20066000D01*
X24002727Y19992921D01*
X24043904Y19852684D01*
X24048775Y19845105D01*
X24118051Y19737309D01*
X24118053Y19737306D01*
X24122923Y19729729D01*
X24198962Y19663841D01*
X24211033Y19653381D01*
X24249416Y19593655D01*
X24249416Y19522659D01*
X24211032Y19462932D01*
X24196642Y19452160D01*
X24174729Y19438077D01*
X24168828Y19431267D01*
X24084918Y19334431D01*
X24084916Y19334428D01*
X24079016Y19327619D01*
X24018300Y19194670D01*
X24017018Y19185756D01*
X24017016Y19185748D01*
X24012533Y19154567D01*
X23983040Y19089987D01*
X23923313Y19051604D01*
X23887816Y19046500D01*
X22036987Y19046500D01*
X22018037Y19047933D01*
X22004880Y19049935D01*
X22004876Y19049935D01*
X21997646Y19051035D01*
X21990354Y19050442D01*
X21990351Y19050442D01*
X21946990Y19046915D01*
X21936776Y19046500D01*
X21928114Y19046500D01*
X21924480Y19046076D01*
X21924476Y19046076D01*
X21898517Y19043049D01*
X21894138Y19042616D01*
X21885353Y19041901D01*
X21821395Y19036700D01*
X21814432Y19034444D01*
X21808544Y19033268D01*
X21802627Y19031870D01*
X21795357Y19031022D01*
X21726733Y19006113D01*
X21722605Y19004696D01*
X21660132Y18984458D01*
X21660127Y18984456D01*
X21653170Y18982202D01*
X21646916Y18978407D01*
X21641438Y18975899D01*
X21636019Y18973185D01*
X21629136Y18970687D01*
X21568077Y18930655D01*
X21564388Y18928328D01*
X21540170Y18913632D01*
X21506792Y18893378D01*
X21506788Y18893375D01*
X21501994Y18890466D01*
X21497788Y18886751D01*
X21492690Y18882249D01*
X21490106Y18880028D01*
X21487376Y18877745D01*
X21481253Y18873731D01*
X21476218Y18868416D01*
X21432123Y18821868D01*
X21429745Y18819426D01*
X17750663Y15140344D01*
X17687766Y15106192D01*
X17624713Y15092790D01*
X17618683Y15090105D01*
X17618682Y15090105D01*
X17456280Y15017799D01*
X17456278Y15017798D01*
X17450250Y15015114D01*
X17444909Y15011234D01*
X17444908Y15011233D01*
X17301093Y14906746D01*
X17301091Y14906744D01*
X17295749Y14902863D01*
X17291328Y14897953D01*
X17291327Y14897952D01*
X17195306Y14791309D01*
X17167963Y14760942D01*
X17116880Y14672463D01*
X17078889Y14606661D01*
X17072476Y14595554D01*
X17070434Y14589269D01*
X17032864Y14473639D01*
X17013462Y14413927D01*
X16993500Y14224000D01*
X17013462Y14034073D01*
X17072476Y13852446D01*
X17167963Y13687058D01*
X17295749Y13545137D01*
X17301091Y13541256D01*
X17301093Y13541254D01*
X17444908Y13436767D01*
X17450250Y13432886D01*
X17456278Y13430202D01*
X17456280Y13430201D01*
X17618682Y13357895D01*
X17624713Y13355210D01*
X17718113Y13335357D01*
X17805056Y13316876D01*
X17805061Y13316876D01*
X17811513Y13315504D01*
X18002487Y13315504D01*
X18008939Y13316876D01*
X18008944Y13316876D01*
X18095887Y13335357D01*
X18189287Y13355210D01*
X18195318Y13357895D01*
X18357720Y13430201D01*
X18357722Y13430202D01*
X18363750Y13432886D01*
X18369092Y13436767D01*
X18512907Y13541254D01*
X18512909Y13541256D01*
X18518251Y13545137D01*
X18646037Y13687058D01*
X18741524Y13852446D01*
X18796381Y14021279D01*
X18827119Y14071438D01*
X20236133Y15480452D01*
X23998000Y15480452D01*
X23998000Y14988257D01*
X23998161Y14983750D01*
X24002740Y14919731D01*
X24005126Y14906509D01*
X24041819Y14781542D01*
X24049233Y14765308D01*
X24118426Y14657640D01*
X24130112Y14644153D01*
X24226840Y14560338D01*
X24241848Y14550693D01*
X24358275Y14497523D01*
X24375388Y14492498D01*
X24506554Y14473639D01*
X24515495Y14473000D01*
X25000885Y14473000D01*
X25016124Y14477475D01*
X25017329Y14478865D01*
X25019000Y14486548D01*
X25019000Y15475885D01*
X25017659Y15480452D01*
X25527000Y15480452D01*
X25527000Y14491115D01*
X25531475Y14475876D01*
X25532865Y14474671D01*
X25540548Y14473000D01*
X26032743Y14473000D01*
X26037250Y14473161D01*
X26101269Y14477740D01*
X26114491Y14480126D01*
X26239458Y14516819D01*
X26255692Y14524233D01*
X26363360Y14593426D01*
X26376847Y14605112D01*
X26447677Y14686855D01*
X26507403Y14725239D01*
X26578400Y14725239D01*
X26638126Y14686856D01*
X26648900Y14672463D01*
X26658426Y14657640D01*
X26670112Y14644153D01*
X26766840Y14560338D01*
X26781848Y14550693D01*
X26898275Y14497523D01*
X26915388Y14492498D01*
X27046554Y14473639D01*
X27055495Y14473000D01*
X27540885Y14473000D01*
X27556124Y14477475D01*
X27557329Y14478865D01*
X27559000Y14486548D01*
X27559000Y15475885D01*
X27557659Y15480452D01*
X28067000Y15480452D01*
X28067000Y14491115D01*
X28071475Y14475876D01*
X28072865Y14474671D01*
X28080548Y14473000D01*
X28572743Y14473000D01*
X28577250Y14473161D01*
X28641269Y14477740D01*
X28654491Y14480126D01*
X28779458Y14516819D01*
X28795692Y14524233D01*
X28903360Y14593426D01*
X28916847Y14605112D01*
X29000662Y14701840D01*
X29010307Y14716848D01*
X29063477Y14833275D01*
X29068502Y14850388D01*
X29087361Y14981554D01*
X29088000Y14990497D01*
X29088000Y15475885D01*
X29083525Y15491124D01*
X29082135Y15492329D01*
X29074452Y15494000D01*
X28085115Y15494000D01*
X28069876Y15489525D01*
X28068671Y15488135D01*
X28067000Y15480452D01*
X27557659Y15480452D01*
X27554525Y15491124D01*
X27553135Y15492329D01*
X27545452Y15494000D01*
X25545115Y15494000D01*
X25529876Y15489525D01*
X25528671Y15488135D01*
X25527000Y15480452D01*
X25017659Y15480452D01*
X25014525Y15491124D01*
X25013135Y15492329D01*
X25005452Y15494000D01*
X24016115Y15494000D01*
X24000876Y15489525D01*
X23999671Y15488135D01*
X23998000Y15480452D01*
X20236133Y15480452D01*
X22248276Y17492595D01*
X22310588Y17526621D01*
X22337371Y17529500D01*
X23885919Y17529500D01*
X23954040Y17509498D01*
X24000533Y17455842D01*
X24006815Y17438998D01*
X24043904Y17312684D01*
X24048775Y17305105D01*
X24118051Y17197309D01*
X24118053Y17197306D01*
X24122923Y17189729D01*
X24129733Y17183828D01*
X24211422Y17113043D01*
X24249805Y17053316D01*
X24249805Y16982320D01*
X24211421Y16922594D01*
X24197029Y16911821D01*
X24182640Y16902574D01*
X24169153Y16890888D01*
X24085338Y16794160D01*
X24075693Y16779152D01*
X24022523Y16662725D01*
X24017498Y16645612D01*
X23998639Y16514446D01*
X23998000Y16505505D01*
X23998000Y16020115D01*
X24002475Y16004876D01*
X24003865Y16003671D01*
X24011548Y16002000D01*
X29069885Y16002000D01*
X29085124Y16006475D01*
X29086329Y16007865D01*
X29088000Y16015548D01*
X29088000Y16507743D01*
X29087839Y16512250D01*
X29083260Y16576269D01*
X29080874Y16589491D01*
X29044181Y16714458D01*
X29036767Y16730692D01*
X28967574Y16838360D01*
X28955888Y16851846D01*
X28874534Y16922339D01*
X28836150Y16982065D01*
X28836150Y17053061D01*
X28874533Y17112788D01*
X28888925Y17123562D01*
X28903691Y17133051D01*
X28903694Y17133053D01*
X28911271Y17137923D01*
X28951048Y17183828D01*
X29001082Y17241569D01*
X29001084Y17241572D01*
X29006984Y17248381D01*
X29067700Y17381330D01*
X29078413Y17455842D01*
X29087861Y17521552D01*
X29087862Y17521559D01*
X29088500Y17526000D01*
X29088500Y19050000D01*
X29083273Y19123079D01*
X29042096Y19263316D01*
X28996393Y19334431D01*
X28967949Y19378691D01*
X28967947Y19378694D01*
X28963077Y19386271D01*
X28874967Y19462620D01*
X28836584Y19522345D01*
X28836584Y19593341D01*
X28874968Y19653068D01*
X28889359Y19663841D01*
X28911271Y19677923D01*
X28951048Y19723828D01*
X29001082Y19781569D01*
X29001084Y19781572D01*
X29006984Y19788381D01*
X29067700Y19921330D01*
X29078962Y19999660D01*
X29087861Y20061552D01*
X29087862Y20061559D01*
X29088500Y20066000D01*
X29088500Y21590000D01*
X29083273Y21663079D01*
X29042096Y21803316D01*
X28990085Y21884246D01*
X28967949Y21918691D01*
X28967947Y21918694D01*
X28963077Y21926271D01*
X28874967Y22002620D01*
X28836584Y22062345D01*
X28836584Y22133341D01*
X28874968Y22193068D01*
X28889359Y22203841D01*
X28911271Y22217923D01*
X28951048Y22263828D01*
X29001082Y22321569D01*
X29001084Y22321572D01*
X29006984Y22328381D01*
X29067700Y22461330D01*
X29078413Y22535842D01*
X29087861Y22601552D01*
X29087862Y22601559D01*
X29088500Y22606000D01*
X29088500Y24130000D01*
X29083273Y24203079D01*
X29042096Y24343316D01*
X28996393Y24414431D01*
X28967949Y24458691D01*
X28967947Y24458694D01*
X28963077Y24466271D01*
X28956267Y24472172D01*
X28859431Y24556082D01*
X28859428Y24556084D01*
X28852619Y24561984D01*
X28719670Y24622700D01*
X28710755Y24623982D01*
X28710754Y24623982D01*
X28579448Y24642861D01*
X28579441Y24642862D01*
X28575000Y24643500D01*
X27051000Y24643500D01*
X26977921Y24638273D01*
X26924884Y24622700D01*
X26846330Y24599635D01*
X26846328Y24599634D01*
X26837684Y24597096D01*
X26830105Y24592225D01*
X26722309Y24522949D01*
X26722306Y24522947D01*
X26714729Y24518077D01*
X26663271Y24458691D01*
X26638381Y24429967D01*
X26578655Y24391584D01*
X26507659Y24391584D01*
X26447932Y24429968D01*
X26437159Y24444359D01*
X26427948Y24458691D01*
X26423077Y24466271D01*
X26416267Y24472172D01*
X26319431Y24556082D01*
X26319428Y24556084D01*
X26312619Y24561984D01*
X26179670Y24622700D01*
X26170755Y24623982D01*
X26170754Y24623982D01*
X26039448Y24642861D01*
X26039441Y24642862D01*
X26035000Y24643500D01*
X24511000Y24643500D01*
X24437921Y24638273D01*
X24384884Y24622700D01*
X24306330Y24599635D01*
X24306328Y24599634D01*
X24297684Y24597096D01*
X24290105Y24592225D01*
X24182309Y24522949D01*
X24182306Y24522947D01*
X24174729Y24518077D01*
X24168828Y24511267D01*
X24084918Y24414431D01*
X24084916Y24414428D01*
X24079016Y24407619D01*
X24018300Y24274670D01*
X24017018Y24265756D01*
X24017016Y24265748D01*
X24012533Y24234567D01*
X23983040Y24169987D01*
X23923313Y24131604D01*
X23887816Y24126500D01*
X23052987Y24126500D01*
X23034036Y24127933D01*
X23020879Y24129935D01*
X23020876Y24129935D01*
X23013646Y24131035D01*
X23006354Y24130442D01*
X23006351Y24130442D01*
X22962993Y24126915D01*
X22952778Y24126500D01*
X22944114Y24126500D01*
X22940480Y24126076D01*
X22940474Y24126076D01*
X22930533Y24124917D01*
X22914485Y24123046D01*
X22910158Y24122618D01*
X22880994Y24120246D01*
X22844692Y24117293D01*
X22844688Y24117292D01*
X22837395Y24116699D01*
X22830434Y24114444D01*
X22824503Y24113259D01*
X22818627Y24111870D01*
X22811357Y24111022D01*
X22742722Y24086109D01*
X22738618Y24084701D01*
X22723865Y24079921D01*
X22676134Y24064459D01*
X22676129Y24064457D01*
X22669169Y24062202D01*
X22662911Y24058404D01*
X22657437Y24055898D01*
X22652020Y24053186D01*
X22645136Y24050687D01*
X22639015Y24046674D01*
X22639013Y24046673D01*
X22584089Y24010664D01*
X22580372Y24008319D01*
X22517993Y23970465D01*
X22513790Y23966753D01*
X22508690Y23962249D01*
X22506108Y23960031D01*
X22503369Y23957741D01*
X22497253Y23953731D01*
X22492223Y23948421D01*
X22448123Y23901868D01*
X22445745Y23899426D01*
X20569723Y22023404D01*
X20507411Y21989378D01*
X20480628Y21986499D01*
X16126500Y21986499D01*
X16058379Y22006501D01*
X16011886Y22060157D01*
X16000500Y22112499D01*
X16000500Y25520000D01*
X15995273Y25593079D01*
X15954096Y25733316D01*
X15908393Y25804431D01*
X15879949Y25848691D01*
X15879947Y25848694D01*
X15875077Y25856271D01*
X15868267Y25862172D01*
X15771431Y25946082D01*
X15771428Y25946084D01*
X15764619Y25951984D01*
X15631670Y26012700D01*
X15622755Y26013982D01*
X15622754Y26013982D01*
X15491448Y26032861D01*
X15491441Y26032862D01*
X15487000Y26033500D01*
X11987000Y26033500D01*
X11913921Y26028273D01*
X11860884Y26012700D01*
X11782330Y25989635D01*
X11782328Y25989634D01*
X11773684Y25987096D01*
X11766105Y25982225D01*
X11658309Y25912949D01*
X11658306Y25912947D01*
X11650729Y25908077D01*
X11644828Y25901267D01*
X11560918Y25804431D01*
X11560916Y25804428D01*
X11555016Y25797619D01*
X11494300Y25664670D01*
X11493018Y25655755D01*
X11493018Y25655754D01*
X11474139Y25524448D01*
X11474138Y25524441D01*
X11473500Y25520000D01*
X9100500Y25520000D01*
X9095273Y25593079D01*
X9054096Y25733316D01*
X9008393Y25804431D01*
X8979949Y25848691D01*
X8979947Y25848694D01*
X8975077Y25856271D01*
X8968267Y25862172D01*
X8871431Y25946082D01*
X8871428Y25946084D01*
X8864619Y25951984D01*
X8731670Y26012700D01*
X8722755Y26013982D01*
X8722754Y26013982D01*
X8591448Y26032861D01*
X8591441Y26032862D01*
X8587000Y26033500D01*
X5087000Y26033500D01*
X5013921Y26028273D01*
X4960884Y26012700D01*
X4882330Y25989635D01*
X4882328Y25989634D01*
X4873684Y25987096D01*
X4866105Y25982225D01*
X4758309Y25912949D01*
X4758306Y25912947D01*
X4750729Y25908077D01*
X4744828Y25901267D01*
X4660918Y25804431D01*
X4660916Y25804428D01*
X4655016Y25797619D01*
X4594300Y25664670D01*
X4593018Y25655755D01*
X4593018Y25655754D01*
X4574139Y25524448D01*
X4574138Y25524441D01*
X4573500Y25520000D01*
X889000Y25520000D01*
X889000Y32752452D01*
X23998000Y32752452D01*
X23998000Y32260257D01*
X23998161Y32255750D01*
X24002740Y32191731D01*
X24005126Y32178509D01*
X24041819Y32053542D01*
X24049233Y32037308D01*
X24118426Y31929640D01*
X24130112Y31916153D01*
X24226840Y31832338D01*
X24241848Y31822693D01*
X24358275Y31769523D01*
X24375388Y31764498D01*
X24506554Y31745639D01*
X24515495Y31745000D01*
X25000885Y31745000D01*
X25016124Y31749475D01*
X25017329Y31750865D01*
X25019000Y31758548D01*
X25019000Y32747885D01*
X25017659Y32752452D01*
X25527000Y32752452D01*
X25527000Y31763115D01*
X25531475Y31747876D01*
X25532865Y31746671D01*
X25540548Y31745000D01*
X26032743Y31745000D01*
X26037250Y31745161D01*
X26101269Y31749740D01*
X26114491Y31752126D01*
X26239458Y31788819D01*
X26255692Y31796233D01*
X26363360Y31865426D01*
X26376847Y31877112D01*
X26447677Y31958855D01*
X26507403Y31997239D01*
X26578400Y31997239D01*
X26638126Y31958856D01*
X26648900Y31944463D01*
X26658426Y31929640D01*
X26670112Y31916153D01*
X26766840Y31832338D01*
X26781848Y31822693D01*
X26898275Y31769523D01*
X26915388Y31764498D01*
X27046554Y31745639D01*
X27055495Y31745000D01*
X27540885Y31745000D01*
X27556124Y31749475D01*
X27557329Y31750865D01*
X27559000Y31758548D01*
X27559000Y32747885D01*
X27557659Y32752452D01*
X28067000Y32752452D01*
X28067000Y31763115D01*
X28071475Y31747876D01*
X28072865Y31746671D01*
X28080548Y31745000D01*
X28572743Y31745000D01*
X28577250Y31745161D01*
X28641269Y31749740D01*
X28654491Y31752126D01*
X28779458Y31788819D01*
X28795692Y31796233D01*
X28903360Y31865426D01*
X28916847Y31877112D01*
X29000662Y31973840D01*
X29010307Y31988848D01*
X29063477Y32105275D01*
X29068502Y32122388D01*
X29087361Y32253554D01*
X29088000Y32262497D01*
X29088000Y32747885D01*
X29083525Y32763124D01*
X29082135Y32764329D01*
X29074452Y32766000D01*
X28085115Y32766000D01*
X28069876Y32761525D01*
X28068671Y32760135D01*
X28067000Y32752452D01*
X27557659Y32752452D01*
X27554525Y32763124D01*
X27553135Y32764329D01*
X27545452Y32766000D01*
X25545115Y32766000D01*
X25529876Y32761525D01*
X25528671Y32760135D01*
X25527000Y32752452D01*
X25017659Y32752452D01*
X25014525Y32763124D01*
X25013135Y32764329D01*
X25005452Y32766000D01*
X24016115Y32766000D01*
X24000876Y32761525D01*
X23999671Y32760135D01*
X23998000Y32752452D01*
X889000Y32752452D01*
X889000Y36322000D01*
X23997500Y36322000D01*
X23997500Y34798000D01*
X24002727Y34724921D01*
X24043904Y34584684D01*
X24048775Y34577105D01*
X24118051Y34469309D01*
X24118053Y34469306D01*
X24122923Y34461729D01*
X24129733Y34455828D01*
X24211422Y34385043D01*
X24249805Y34325316D01*
X24249805Y34254320D01*
X24211421Y34194594D01*
X24197029Y34183821D01*
X24182640Y34174574D01*
X24169153Y34162888D01*
X24085338Y34066160D01*
X24075693Y34051152D01*
X24022523Y33934725D01*
X24017498Y33917612D01*
X23998639Y33786446D01*
X23998000Y33777505D01*
X23998000Y33292115D01*
X24002475Y33276876D01*
X24003865Y33275671D01*
X24011548Y33274000D01*
X29069885Y33274000D01*
X29085124Y33278475D01*
X29086329Y33279865D01*
X29088000Y33287548D01*
X29088000Y33779743D01*
X29087839Y33784250D01*
X29083260Y33848269D01*
X29080874Y33861491D01*
X29044181Y33986458D01*
X29036767Y34002692D01*
X28967574Y34110360D01*
X28955888Y34123846D01*
X28874534Y34194339D01*
X28836150Y34254065D01*
X28836150Y34325061D01*
X28874533Y34384788D01*
X28888925Y34395562D01*
X28903691Y34405051D01*
X28903694Y34405053D01*
X28911271Y34409923D01*
X28951048Y34455828D01*
X29001082Y34513569D01*
X29001084Y34513572D01*
X29006984Y34520381D01*
X29067700Y34653330D01*
X29078962Y34731660D01*
X29087861Y34793552D01*
X29087862Y34793559D01*
X29088500Y34798000D01*
X29088500Y36322000D01*
X29083273Y36395079D01*
X29042096Y36535316D01*
X28996393Y36606431D01*
X28967949Y36650691D01*
X28967947Y36650694D01*
X28963077Y36658271D01*
X28956267Y36664172D01*
X28874578Y36734957D01*
X28836195Y36794684D01*
X28836195Y36865680D01*
X28874579Y36925406D01*
X28888971Y36936179D01*
X28903360Y36945426D01*
X28916847Y36957112D01*
X29000662Y37053840D01*
X29010307Y37068848D01*
X29063477Y37185275D01*
X29068502Y37202388D01*
X29087361Y37333554D01*
X29088000Y37342497D01*
X29088000Y37827885D01*
X29083525Y37843124D01*
X29082135Y37844329D01*
X29074452Y37846000D01*
X24016115Y37846000D01*
X24000876Y37841525D01*
X23999671Y37840135D01*
X23998000Y37832452D01*
X23998000Y37340257D01*
X23998161Y37335750D01*
X24002740Y37271731D01*
X24005126Y37258509D01*
X24041819Y37133542D01*
X24049233Y37117308D01*
X24118426Y37009640D01*
X24130112Y36996154D01*
X24211466Y36925661D01*
X24249850Y36865935D01*
X24249850Y36794939D01*
X24211467Y36735212D01*
X24197075Y36724438D01*
X24182309Y36714949D01*
X24182306Y36714947D01*
X24174729Y36710077D01*
X24168828Y36703267D01*
X24084918Y36606431D01*
X24084916Y36606428D01*
X24079016Y36599619D01*
X24018300Y36466670D01*
X24017018Y36457755D01*
X24017018Y36457754D01*
X23998139Y36326448D01*
X23998138Y36326441D01*
X23997500Y36322000D01*
X889000Y36322000D01*
X889000Y38857505D01*
X23998000Y38857505D01*
X23998000Y38372115D01*
X24002475Y38356876D01*
X24003865Y38355671D01*
X24011548Y38354000D01*
X25000885Y38354000D01*
X25016124Y38358475D01*
X25017329Y38359865D01*
X25019000Y38367548D01*
X25019000Y39356885D01*
X25017659Y39361452D01*
X25527000Y39361452D01*
X25527000Y38372115D01*
X25531475Y38356876D01*
X25532865Y38355671D01*
X25540548Y38354000D01*
X27540885Y38354000D01*
X27556124Y38358475D01*
X27557329Y38359865D01*
X27559000Y38367548D01*
X27559000Y39356885D01*
X27557659Y39361452D01*
X28067000Y39361452D01*
X28067000Y38372115D01*
X28071475Y38356876D01*
X28072865Y38355671D01*
X28080548Y38354000D01*
X29069885Y38354000D01*
X29085124Y38358475D01*
X29086329Y38359865D01*
X29088000Y38367548D01*
X29088000Y38859743D01*
X29087839Y38864250D01*
X29083260Y38928269D01*
X29080874Y38941491D01*
X29044181Y39066458D01*
X29036767Y39082692D01*
X28967574Y39190360D01*
X28955888Y39203847D01*
X28859160Y39287662D01*
X28844152Y39297307D01*
X28727725Y39350477D01*
X28710612Y39355502D01*
X28579446Y39374361D01*
X28570505Y39375000D01*
X28085115Y39375000D01*
X28069876Y39370525D01*
X28068671Y39369135D01*
X28067000Y39361452D01*
X27557659Y39361452D01*
X27554525Y39372124D01*
X27553135Y39373329D01*
X27545452Y39375000D01*
X27053257Y39375000D01*
X27048750Y39374839D01*
X26984731Y39370260D01*
X26971509Y39367874D01*
X26846542Y39331181D01*
X26830308Y39323767D01*
X26722640Y39254574D01*
X26709153Y39242888D01*
X26638323Y39161145D01*
X26578597Y39122761D01*
X26507600Y39122761D01*
X26447874Y39161144D01*
X26437100Y39175537D01*
X26427574Y39190360D01*
X26415888Y39203847D01*
X26319160Y39287662D01*
X26304152Y39297307D01*
X26187725Y39350477D01*
X26170612Y39355502D01*
X26039446Y39374361D01*
X26030505Y39375000D01*
X25545115Y39375000D01*
X25529876Y39370525D01*
X25528671Y39369135D01*
X25527000Y39361452D01*
X25017659Y39361452D01*
X25014525Y39372124D01*
X25013135Y39373329D01*
X25005452Y39375000D01*
X24513257Y39375000D01*
X24508750Y39374839D01*
X24444731Y39370260D01*
X24431509Y39367874D01*
X24306542Y39331181D01*
X24290308Y39323767D01*
X24182640Y39254574D01*
X24169153Y39242888D01*
X24085338Y39146160D01*
X24075693Y39131152D01*
X24022523Y39014725D01*
X24017498Y38997612D01*
X23998639Y38866446D01*
X23998000Y38857505D01*
X889000Y38857505D01*
X889000Y39752000D01*
X909002Y39820121D01*
X962658Y39866614D01*
X1015000Y39878000D01*
X29719000Y39878000D01*
X29787121Y39857998D01*
G37*
G04 #@! TD.AperFunction*
M02*
