G04 #@! TF.GenerationSoftware,KiCad,Pcbnew,(5.99.0-10394-g2e15de97e0)*
G04 #@! TF.CreationDate,2021-07-20T11:39:10+02:00*
G04 #@! TF.ProjectId,AIRDOSC01A_PCB01C,41495244-4f53-4433-9031-415f50434230,rev?*
G04 #@! TF.SameCoordinates,Original*
G04 #@! TF.FileFunction,Soldermask,Top*
G04 #@! TF.FilePolarity,Negative*
%FSLAX46Y46*%
G04 Gerber Fmt 4.6, Leading zero omitted, Abs format (unit mm)*
G04 Created by KiCad (PCBNEW (5.99.0-10394-g2e15de97e0)) date 2021-07-20 11:39:10*
%MOMM*%
%LPD*%
G01*
G04 APERTURE LIST*
G04 Aperture macros list*
%AMRoundRect*
0 Rectangle with rounded corners*
0 $1 Rounding radius*
0 $2 $3 $4 $5 $6 $7 $8 $9 X,Y pos of 4 corners*
0 Add a 4 corners polygon primitive as box body*
4,1,4,$2,$3,$4,$5,$6,$7,$8,$9,$2,$3,0*
0 Add four circle primitives for the rounded corners*
1,1,$1+$1,$2,$3*
1,1,$1+$1,$4,$5*
1,1,$1+$1,$6,$7*
1,1,$1+$1,$8,$9*
0 Add four rect primitives between the rounded corners*
20,1,$1+$1,$2,$3,$4,$5,0*
20,1,$1+$1,$4,$5,$6,$7,0*
20,1,$1+$1,$6,$7,$8,$9,0*
20,1,$1+$1,$8,$9,$2,$3,0*%
%AMFreePoly0*
4,1,21,1.836777,1.930194,1.906366,1.874698,1.944986,1.794504,1.950000,1.750000,1.950000,-1.750000,1.930194,-1.836777,1.874698,-1.906366,1.794504,-1.944986,1.750000,-1.950000,-1.750000,-1.950000,-1.836777,-1.930194,-1.906366,-1.874698,-1.944986,-1.794504,-1.950000,-1.750000,-1.950000,1.750000,-1.930194,1.836777,-1.874698,1.906366,-1.794504,1.944986,-1.750000,1.950000,1.750000,1.950000,
1.836777,1.930194,1.836777,1.930194,$1*%
G04 Aperture macros list end*
%ADD10C,0.150000*%
%ADD11FreePoly0,0.000000*%
%ADD12FreePoly0,90.000000*%
%ADD13FreePoly0,180.000000*%
%ADD14FreePoly0,270.000000*%
%ADD15C,6.400000*%
%ADD16RoundRect,0.200000X-0.762000X-0.762000X0.762000X-0.762000X0.762000X0.762000X-0.762000X0.762000X0*%
%ADD17RoundRect,0.200000X0.762000X0.762000X-0.762000X0.762000X-0.762000X-0.762000X0.762000X-0.762000X0*%
G04 APERTURE END LIST*
D10*
X24384000Y40132000D02*
X24384000Y508000D01*
X24384000Y508000D02*
X29972000Y508000D01*
X29972000Y508000D02*
X29972000Y40132000D01*
X29972000Y40132000D02*
X24384000Y40132000D01*
G36*
X29972000Y508000D02*
G01*
X24384000Y508000D01*
X24384000Y40132000D01*
X29972000Y40132000D01*
X29972000Y508000D01*
G37*
X29972000Y508000D02*
X24384000Y508000D01*
X24384000Y40132000D01*
X29972000Y40132000D01*
X29972000Y508000D01*
D11*
X6837000Y16870000D03*
D12*
X13737000Y16870000D03*
D13*
X13737000Y23770000D03*
D14*
X6837000Y23770000D03*
D15*
X5207000Y5080000D03*
X5207000Y35560000D03*
D16*
X25273000Y20828000D03*
X27813000Y20828000D03*
X25273000Y18288000D03*
X27813000Y18288000D03*
X25273000Y2540000D03*
X27813000Y2540000D03*
X25273000Y15748000D03*
X27813000Y15748000D03*
X25273000Y33020000D03*
X27813000Y33020000D03*
X25273000Y35560000D03*
X27813000Y35560000D03*
X25273000Y38100000D03*
X27813000Y38100000D03*
D17*
X27813000Y5080000D03*
X25273000Y5080000D03*
X27813000Y7620000D03*
X25273000Y7620000D03*
D16*
X25273000Y23368000D03*
X27813000Y23368000D03*
D15*
X15367000Y5080000D03*
X15367000Y35560000D03*
M02*
