G04 #@! TF.GenerationSoftware,KiCad,Pcbnew,6.0.0-rc1-unknown-f68581d~66~ubuntu16.04.1*
G04 #@! TF.CreationDate,2018-09-30T16:57:06+02:00*
G04 #@! TF.ProjectId,SIPMPOWER01A,5349504D504F5745523031412E6B6963,rev?*
G04 #@! TF.SameCoordinates,Original*
G04 #@! TF.FileFunction,Copper,L1,Top,Signal*
G04 #@! TF.FilePolarity,Positive*
%FSLAX46Y46*%
G04 Gerber Fmt 4.6, Leading zero omitted, Abs format (unit mm)*
G04 Created by KiCad (PCBNEW 6.0.0-rc1-unknown-f68581d~66~ubuntu16.04.1) date Sun Sep 30 16:57:06 2018*
%MOMM*%
%LPD*%
G01*
G04 APERTURE LIST*
G04 #@! TA.AperFunction,ComponentPad*
%ADD10R,2.300000X2.300000*%
G04 #@! TD*
G04 #@! TA.AperFunction,ComponentPad*
%ADD11C,2.500000*%
G04 #@! TD*
G04 #@! TA.AperFunction,ComponentPad*
%ADD12R,2.000000X2.000000*%
G04 #@! TD*
G04 #@! TA.AperFunction,ComponentPad*
%ADD13C,2.000000*%
G04 #@! TD*
G04 #@! TA.AperFunction,ComponentPad*
%ADD14C,6.000000*%
G04 #@! TD*
G04 #@! TA.AperFunction,ComponentPad*
%ADD15C,1.440000*%
G04 #@! TD*
G04 #@! TA.AperFunction,ComponentPad*
%ADD16R,1.524000X1.524000*%
G04 #@! TD*
G04 #@! TA.AperFunction,ViaPad*
%ADD17C,0.800000*%
G04 #@! TD*
G04 #@! TA.AperFunction,Conductor*
%ADD18C,1.000000*%
G04 #@! TD*
G04 #@! TA.AperFunction,Conductor*
%ADD19C,0.600000*%
G04 #@! TD*
G04 #@! TA.AperFunction,Conductor*
%ADD20C,0.254000*%
G04 #@! TD*
G04 APERTURE END LIST*
D10*
G04 #@! TO.P,BT2,1*
G04 #@! TO.N,Net-(BT2-Pad1)*
X34265000Y20320000D03*
D11*
G04 #@! TO.P,BT2,2*
G04 #@! TO.N,Net-(BT1-Pad1)*
X2565000Y20320000D03*
G04 #@! TD*
G04 #@! TO.P,BT3,2*
G04 #@! TO.N,Net-(BT2-Pad1)*
X10820000Y33655000D03*
D10*
G04 #@! TO.P,BT3,1*
G04 #@! TO.N,/+*
X42520000Y33655000D03*
G04 #@! TD*
D12*
G04 #@! TO.P,C2,1*
G04 #@! TO.N,/+*
X42545000Y22860000D03*
D13*
G04 #@! TO.P,C2,2*
G04 #@! TO.N,Net-(C1-Pad1)*
X42545000Y17860000D03*
G04 #@! TD*
D11*
G04 #@! TO.P,BT1,2*
G04 #@! TO.N,/-*
X42520000Y6985000D03*
D10*
G04 #@! TO.P,BT1,1*
G04 #@! TO.N,Net-(BT1-Pad1)*
X10820000Y6985000D03*
G04 #@! TD*
D14*
G04 #@! TO.P,M1,1*
G04 #@! TO.N,GND*
X55880000Y35560000D03*
G04 #@! TD*
G04 #@! TO.P,M2,1*
G04 #@! TO.N,GND*
X5080000Y5080000D03*
G04 #@! TD*
G04 #@! TO.P,M3,1*
G04 #@! TO.N,GND*
X5080000Y35560000D03*
G04 #@! TD*
G04 #@! TO.P,M4,1*
G04 #@! TO.N,GND*
X55880000Y5080000D03*
G04 #@! TD*
D15*
G04 #@! TO.P,RV1,3*
G04 #@! TO.N,Net-(R2-Pad1)*
X52705000Y28575000D03*
G04 #@! TO.P,RV1,2*
G04 #@! TO.N,/U1*
X55245000Y28575000D03*
G04 #@! TO.P,RV1,1*
G04 #@! TO.N,Net-(R1-Pad2)*
X57785000Y28575000D03*
G04 #@! TD*
G04 #@! TO.P,RV2,3*
G04 #@! TO.N,Net-(R4-Pad1)*
X52705000Y22860000D03*
G04 #@! TO.P,RV2,2*
G04 #@! TO.N,/U2*
X55245000Y22860000D03*
G04 #@! TO.P,RV2,1*
G04 #@! TO.N,Net-(R3-Pad2)*
X57785000Y22860000D03*
G04 #@! TD*
G04 #@! TO.P,RV3,1*
G04 #@! TO.N,Net-(R5-Pad2)*
X57785000Y17145000D03*
G04 #@! TO.P,RV3,2*
G04 #@! TO.N,/U3*
X55245000Y17145000D03*
G04 #@! TO.P,RV3,3*
G04 #@! TO.N,Net-(R6-Pad1)*
X52705000Y17145000D03*
G04 #@! TD*
G04 #@! TO.P,RV4,1*
G04 #@! TO.N,Net-(R7-Pad2)*
X57785000Y11430000D03*
G04 #@! TO.P,RV4,2*
G04 #@! TO.N,/U4*
X55245000Y11430000D03*
G04 #@! TO.P,RV4,3*
G04 #@! TO.N,Net-(R8-Pad1)*
X52705000Y11430000D03*
G04 #@! TD*
D16*
G04 #@! TO.P,J1,1*
G04 #@! TO.N,/U4*
X46355000Y2540000D03*
G04 #@! TO.P,J1,2*
X48895000Y2540000D03*
G04 #@! TD*
G04 #@! TO.P,J2,2*
G04 #@! TO.N,/U3*
X48895000Y5080000D03*
G04 #@! TO.P,J2,1*
X46355000Y5080000D03*
G04 #@! TD*
G04 #@! TO.P,J3,1*
G04 #@! TO.N,/U2*
X46355000Y33020000D03*
G04 #@! TO.P,J3,2*
X48895000Y33020000D03*
G04 #@! TD*
G04 #@! TO.P,J4,2*
G04 #@! TO.N,/U1*
X48895000Y35560000D03*
G04 #@! TO.P,J4,1*
X46355000Y35560000D03*
G04 #@! TD*
G04 #@! TO.P,J5,1*
G04 #@! TO.N,/+*
X46355000Y38100000D03*
G04 #@! TO.P,J5,2*
X48895000Y38100000D03*
G04 #@! TD*
G04 #@! TO.P,J6,2*
G04 #@! TO.N,/-*
X46355000Y10160000D03*
G04 #@! TO.P,J6,1*
G04 #@! TO.N,Net-(C1-Pad1)*
X46355000Y12700000D03*
G04 #@! TD*
G04 #@! TO.P,J7,2*
G04 #@! TO.N,Net-(J7-Pad2)*
X2032000Y28448000D03*
G04 #@! TO.P,J7,1*
G04 #@! TO.N,/+*
X2032000Y30988000D03*
G04 #@! TD*
G04 #@! TO.P,J8,1*
G04 #@! TO.N,Net-(J7-Pad2)*
X4572000Y30988000D03*
G04 #@! TO.P,J8,2*
G04 #@! TO.N,Net-(J8-Pad2)*
X4572000Y28448000D03*
G04 #@! TD*
G04 #@! TO.P,J9,2*
G04 #@! TO.N,/-*
X7112000Y28448000D03*
G04 #@! TO.P,J9,1*
G04 #@! TO.N,Net-(J8-Pad2)*
X7112000Y30988000D03*
G04 #@! TD*
D17*
G04 #@! TO.N,Net-(C1-Pad3)*
X56515000Y20955000D03*
X49530000Y21590000D03*
G04 #@! TO.N,/+*
X27686000Y22860000D03*
G04 #@! TD*
D18*
G04 #@! TO.N,/U2*
X48895000Y33020000D02*
X48895000Y29210000D01*
X48895000Y29210000D02*
X55245000Y22860000D01*
G04 #@! TO.N,/U3*
X55245000Y17145000D02*
X48895000Y10795000D01*
X48895000Y10795000D02*
X48895000Y5080000D01*
G04 #@! TO.N,Net-(C1-Pad3)*
X50165000Y20955000D02*
X56515000Y20955000D01*
X49530000Y21590000D02*
X50165000Y20955000D01*
D19*
G04 #@! TO.N,/+*
X3294001Y29725999D02*
X3294001Y25661999D01*
X2032000Y30988000D02*
X3294001Y29725999D01*
D18*
X6096000Y22860000D02*
X3294001Y25661999D01*
X27686000Y22860000D02*
X6096000Y22860000D01*
G04 #@! TD*
D20*
G04 #@! TO.N,GND*
G36*
X59971000Y989000D02*
X989000Y989000D01*
X989000Y8135000D01*
X9022560Y8135000D01*
X9022560Y5835000D01*
X9071843Y5587235D01*
X9212191Y5377191D01*
X9422235Y5236843D01*
X9670000Y5187560D01*
X11970000Y5187560D01*
X12217765Y5236843D01*
X12427809Y5377191D01*
X12568157Y5587235D01*
X12617440Y5835000D01*
X12617440Y7359950D01*
X40635000Y7359950D01*
X40635000Y6610050D01*
X40921974Y5917233D01*
X41452233Y5386974D01*
X42145050Y5100000D01*
X42894950Y5100000D01*
X43587767Y5386974D01*
X44118026Y5917233D01*
X44405000Y6610050D01*
X44405000Y7359950D01*
X44118026Y8052767D01*
X43587767Y8583026D01*
X42894950Y8870000D01*
X42145050Y8870000D01*
X41452233Y8583026D01*
X40921974Y8052767D01*
X40635000Y7359950D01*
X12617440Y7359950D01*
X12617440Y8135000D01*
X12568157Y8382765D01*
X12427809Y8592809D01*
X12217765Y8733157D01*
X11970000Y8782440D01*
X9670000Y8782440D01*
X9422235Y8733157D01*
X9212191Y8592809D01*
X9071843Y8382765D01*
X9022560Y8135000D01*
X989000Y8135000D01*
X989000Y13462000D01*
X44945560Y13462000D01*
X44945560Y11938000D01*
X44994843Y11690235D01*
X45135191Y11480191D01*
X45210307Y11430000D01*
X45135191Y11379809D01*
X44994843Y11169765D01*
X44945560Y10922000D01*
X44945560Y9398000D01*
X44994843Y9150235D01*
X45135191Y8940191D01*
X45345235Y8799843D01*
X45593000Y8750560D01*
X47117000Y8750560D01*
X47364765Y8799843D01*
X47574809Y8940191D01*
X47715157Y9150235D01*
X47760000Y9375680D01*
X47760001Y6356478D01*
X47675191Y6299809D01*
X47625000Y6224693D01*
X47574809Y6299809D01*
X47364765Y6440157D01*
X47117000Y6489440D01*
X45593000Y6489440D01*
X45345235Y6440157D01*
X45135191Y6299809D01*
X44994843Y6089765D01*
X44945560Y5842000D01*
X44945560Y4318000D01*
X44994843Y4070235D01*
X45135191Y3860191D01*
X45210307Y3810000D01*
X45135191Y3759809D01*
X44994843Y3549765D01*
X44945560Y3302000D01*
X44945560Y1778000D01*
X44994843Y1530235D01*
X45135191Y1320191D01*
X45345235Y1179843D01*
X45593000Y1130560D01*
X47117000Y1130560D01*
X47364765Y1179843D01*
X47574809Y1320191D01*
X47625000Y1395307D01*
X47675191Y1320191D01*
X47885235Y1179843D01*
X48133000Y1130560D01*
X49657000Y1130560D01*
X49904765Y1179843D01*
X50114809Y1320191D01*
X50255157Y1530235D01*
X50304440Y1778000D01*
X50304440Y3302000D01*
X50255157Y3549765D01*
X50114809Y3759809D01*
X50039693Y3810000D01*
X50114809Y3860191D01*
X50255157Y4070235D01*
X50304440Y4318000D01*
X50304440Y5842000D01*
X50255157Y6089765D01*
X50114809Y6299809D01*
X50030000Y6356477D01*
X50030000Y10324869D01*
X51350000Y11644869D01*
X51350000Y11160474D01*
X51556286Y10662454D01*
X51937454Y10281286D01*
X52435474Y10075000D01*
X52974526Y10075000D01*
X53472546Y10281286D01*
X53853714Y10662454D01*
X53975000Y10955265D01*
X54096286Y10662454D01*
X54477454Y10281286D01*
X54975474Y10075000D01*
X55514526Y10075000D01*
X56012546Y10281286D01*
X56393714Y10662454D01*
X56515000Y10955265D01*
X56636286Y10662454D01*
X57017454Y10281286D01*
X57515474Y10075000D01*
X58054526Y10075000D01*
X58552546Y10281286D01*
X58933714Y10662454D01*
X59140000Y11160474D01*
X59140000Y11699526D01*
X58933714Y12197546D01*
X58552546Y12578714D01*
X58054526Y12785000D01*
X57515474Y12785000D01*
X57017454Y12578714D01*
X56636286Y12197546D01*
X56515000Y11904735D01*
X56393714Y12197546D01*
X56012546Y12578714D01*
X55514526Y12785000D01*
X54975474Y12785000D01*
X54477454Y12578714D01*
X54096286Y12197546D01*
X53975000Y11904735D01*
X53853714Y12197546D01*
X53472546Y12578714D01*
X52974526Y12785000D01*
X52490131Y12785000D01*
X55495132Y15790000D01*
X55514526Y15790000D01*
X56012546Y15996286D01*
X56393714Y16377454D01*
X56515000Y16670265D01*
X56636286Y16377454D01*
X57017454Y15996286D01*
X57515474Y15790000D01*
X58054526Y15790000D01*
X58552546Y15996286D01*
X58933714Y16377454D01*
X59140000Y16875474D01*
X59140000Y17414526D01*
X58933714Y17912546D01*
X58552546Y18293714D01*
X58054526Y18500000D01*
X57515474Y18500000D01*
X57017454Y18293714D01*
X56636286Y17912546D01*
X56515000Y17619735D01*
X56393714Y17912546D01*
X56012546Y18293714D01*
X55514526Y18500000D01*
X54975474Y18500000D01*
X54477454Y18293714D01*
X54096286Y17912546D01*
X53975000Y17619735D01*
X53853714Y17912546D01*
X53472546Y18293714D01*
X52974526Y18500000D01*
X52435474Y18500000D01*
X51937454Y18293714D01*
X51556286Y17912546D01*
X51350000Y17414526D01*
X51350000Y16875474D01*
X51556286Y16377454D01*
X51937454Y15996286D01*
X52328980Y15834111D01*
X48171482Y11676613D01*
X48076711Y11613289D01*
X47894001Y11339843D01*
X47825854Y11237854D01*
X47763733Y10925552D01*
X47715157Y11169765D01*
X47574809Y11379809D01*
X47499693Y11430000D01*
X47574809Y11480191D01*
X47715157Y11690235D01*
X47764440Y11938000D01*
X47764440Y13462000D01*
X47715157Y13709765D01*
X47574809Y13919809D01*
X47364765Y14060157D01*
X47117000Y14109440D01*
X45593000Y14109440D01*
X45345235Y14060157D01*
X45135191Y13919809D01*
X44994843Y13709765D01*
X44945560Y13462000D01*
X989000Y13462000D01*
X989000Y18185222D01*
X40910000Y18185222D01*
X40910000Y17534778D01*
X41158914Y16933847D01*
X41618847Y16473914D01*
X42219778Y16225000D01*
X42870222Y16225000D01*
X43471153Y16473914D01*
X43931086Y16933847D01*
X44180000Y17534778D01*
X44180000Y18185222D01*
X43931086Y18786153D01*
X43471153Y19246086D01*
X42870222Y19495000D01*
X42219778Y19495000D01*
X41618847Y19246086D01*
X41158914Y18786153D01*
X40910000Y18185222D01*
X989000Y18185222D01*
X989000Y19230207D01*
X1497233Y18721974D01*
X2190050Y18435000D01*
X2939950Y18435000D01*
X3632767Y18721974D01*
X4163026Y19252233D01*
X4450000Y19945050D01*
X4450000Y20694950D01*
X4163026Y21387767D01*
X4080793Y21470000D01*
X32467560Y21470000D01*
X32467560Y19170000D01*
X32516843Y18922235D01*
X32657191Y18712191D01*
X32867235Y18571843D01*
X33115000Y18522560D01*
X35415000Y18522560D01*
X35662765Y18571843D01*
X35872809Y18712191D01*
X36013157Y18922235D01*
X36062440Y19170000D01*
X36062440Y21470000D01*
X36013157Y21717765D01*
X35872809Y21927809D01*
X35662765Y22068157D01*
X35415000Y22117440D01*
X33115000Y22117440D01*
X32867235Y22068157D01*
X32657191Y21927809D01*
X32516843Y21717765D01*
X32467560Y21470000D01*
X4080793Y21470000D01*
X3632767Y21918026D01*
X2939950Y22205000D01*
X2190050Y22205000D01*
X1497233Y21918026D01*
X989000Y21409793D01*
X989000Y27110050D01*
X1022235Y27087843D01*
X1270000Y27038560D01*
X2359002Y27038560D01*
X2359002Y26305617D01*
X2224855Y26104853D01*
X2136766Y25661999D01*
X2224855Y25219145D01*
X2412393Y24938476D01*
X5214389Y22136479D01*
X5277711Y22041711D01*
X5549661Y21860000D01*
X5653145Y21790854D01*
X6096000Y21702765D01*
X6207783Y21725000D01*
X27797783Y21725000D01*
X28128855Y21790854D01*
X28504289Y22041711D01*
X28755146Y22417145D01*
X28843235Y22860000D01*
X28755146Y23302855D01*
X28504289Y23678289D01*
X28232340Y23860000D01*
X40897560Y23860000D01*
X40897560Y21860000D01*
X40946843Y21612235D01*
X41087191Y21402191D01*
X41297235Y21261843D01*
X41545000Y21212560D01*
X43545000Y21212560D01*
X43792765Y21261843D01*
X44002809Y21402191D01*
X44143157Y21612235D01*
X44192440Y21860000D01*
X44192440Y23860000D01*
X44143157Y24107765D01*
X44002809Y24317809D01*
X43792765Y24458157D01*
X43545000Y24507440D01*
X41545000Y24507440D01*
X41297235Y24458157D01*
X41087191Y24317809D01*
X40946843Y24107765D01*
X40897560Y23860000D01*
X28232340Y23860000D01*
X28128855Y23929146D01*
X27797783Y23995000D01*
X6566132Y23995000D01*
X4229001Y26332130D01*
X4229001Y27038560D01*
X5334000Y27038560D01*
X5581765Y27087843D01*
X5791809Y27228191D01*
X5842000Y27303307D01*
X5892191Y27228191D01*
X6102235Y27087843D01*
X6350000Y27038560D01*
X7874000Y27038560D01*
X8121765Y27087843D01*
X8331809Y27228191D01*
X8472157Y27438235D01*
X8521440Y27686000D01*
X8521440Y29210000D01*
X8472157Y29457765D01*
X8331809Y29667809D01*
X8256693Y29718000D01*
X8331809Y29768191D01*
X8472157Y29978235D01*
X8521440Y30226000D01*
X8521440Y31750000D01*
X8472157Y31997765D01*
X8331809Y32207809D01*
X8121765Y32348157D01*
X7874000Y32397440D01*
X6350000Y32397440D01*
X6102235Y32348157D01*
X5892191Y32207809D01*
X5842000Y32132693D01*
X5791809Y32207809D01*
X5581765Y32348157D01*
X5334000Y32397440D01*
X3810000Y32397440D01*
X3562235Y32348157D01*
X3352191Y32207809D01*
X3302000Y32132693D01*
X3251809Y32207809D01*
X3041765Y32348157D01*
X2794000Y32397440D01*
X1270000Y32397440D01*
X1022235Y32348157D01*
X989000Y32325950D01*
X989000Y34029950D01*
X8935000Y34029950D01*
X8935000Y33280050D01*
X9221974Y32587233D01*
X9752233Y32056974D01*
X10445050Y31770000D01*
X11194950Y31770000D01*
X11887767Y32056974D01*
X12418026Y32587233D01*
X12705000Y33280050D01*
X12705000Y34029950D01*
X12418026Y34722767D01*
X12335793Y34805000D01*
X40722560Y34805000D01*
X40722560Y32505000D01*
X40771843Y32257235D01*
X40912191Y32047191D01*
X41122235Y31906843D01*
X41370000Y31857560D01*
X43670000Y31857560D01*
X43917765Y31906843D01*
X44127809Y32047191D01*
X44268157Y32257235D01*
X44317440Y32505000D01*
X44317440Y34805000D01*
X44268157Y35052765D01*
X44127809Y35262809D01*
X43917765Y35403157D01*
X43670000Y35452440D01*
X41370000Y35452440D01*
X41122235Y35403157D01*
X40912191Y35262809D01*
X40771843Y35052765D01*
X40722560Y34805000D01*
X12335793Y34805000D01*
X11887767Y35253026D01*
X11194950Y35540000D01*
X10445050Y35540000D01*
X9752233Y35253026D01*
X9221974Y34722767D01*
X8935000Y34029950D01*
X989000Y34029950D01*
X989000Y38862000D01*
X44945560Y38862000D01*
X44945560Y37338000D01*
X44994843Y37090235D01*
X45135191Y36880191D01*
X45210307Y36830000D01*
X45135191Y36779809D01*
X44994843Y36569765D01*
X44945560Y36322000D01*
X44945560Y34798000D01*
X44994843Y34550235D01*
X45135191Y34340191D01*
X45210307Y34290000D01*
X45135191Y34239809D01*
X44994843Y34029765D01*
X44945560Y33782000D01*
X44945560Y32258000D01*
X44994843Y32010235D01*
X45135191Y31800191D01*
X45345235Y31659843D01*
X45593000Y31610560D01*
X47117000Y31610560D01*
X47364765Y31659843D01*
X47574809Y31800191D01*
X47625000Y31875307D01*
X47675191Y31800191D01*
X47760000Y31743523D01*
X47760001Y29321788D01*
X47737765Y29210000D01*
X47825854Y28767146D01*
X47825855Y28767145D01*
X48076712Y28391711D01*
X48171480Y28328389D01*
X52328980Y24170889D01*
X51937454Y24008714D01*
X51556286Y23627546D01*
X51350000Y23129526D01*
X51350000Y22590474D01*
X51556286Y22092454D01*
X51558740Y22090000D01*
X50635131Y22090000D01*
X50253523Y22471608D01*
X49972854Y22659146D01*
X49530000Y22747235D01*
X49087146Y22659146D01*
X48711712Y22408288D01*
X48460854Y22032854D01*
X48372765Y21590000D01*
X48460854Y21147146D01*
X48648392Y20866477D01*
X49283387Y20231482D01*
X49346711Y20136711D01*
X49671042Y19920000D01*
X49722145Y19885854D01*
X50165000Y19797765D01*
X50276783Y19820000D01*
X56626783Y19820000D01*
X56957855Y19885854D01*
X57333289Y20136711D01*
X57584146Y20512145D01*
X57672235Y20955000D01*
X57584146Y21397855D01*
X57511437Y21506672D01*
X57515474Y21505000D01*
X58054526Y21505000D01*
X58552546Y21711286D01*
X58933714Y22092454D01*
X59140000Y22590474D01*
X59140000Y23129526D01*
X58933714Y23627546D01*
X58552546Y24008714D01*
X58054526Y24215000D01*
X57515474Y24215000D01*
X57017454Y24008714D01*
X56636286Y23627546D01*
X56515000Y23334735D01*
X56393714Y23627546D01*
X56012546Y24008714D01*
X55514526Y24215000D01*
X55495132Y24215000D01*
X52490131Y27220000D01*
X52974526Y27220000D01*
X53472546Y27426286D01*
X53853714Y27807454D01*
X53975000Y28100265D01*
X54096286Y27807454D01*
X54477454Y27426286D01*
X54975474Y27220000D01*
X55514526Y27220000D01*
X56012546Y27426286D01*
X56393714Y27807454D01*
X56515000Y28100265D01*
X56636286Y27807454D01*
X57017454Y27426286D01*
X57515474Y27220000D01*
X58054526Y27220000D01*
X58552546Y27426286D01*
X58933714Y27807454D01*
X59140000Y28305474D01*
X59140000Y28844526D01*
X58933714Y29342546D01*
X58552546Y29723714D01*
X58054526Y29930000D01*
X57515474Y29930000D01*
X57017454Y29723714D01*
X56636286Y29342546D01*
X56515000Y29049735D01*
X56393714Y29342546D01*
X56012546Y29723714D01*
X55514526Y29930000D01*
X54975474Y29930000D01*
X54477454Y29723714D01*
X54096286Y29342546D01*
X53975000Y29049735D01*
X53853714Y29342546D01*
X53472546Y29723714D01*
X52974526Y29930000D01*
X52435474Y29930000D01*
X51937454Y29723714D01*
X51556286Y29342546D01*
X51350000Y28844526D01*
X51350000Y28360131D01*
X50030000Y29680131D01*
X50030000Y31743523D01*
X50114809Y31800191D01*
X50255157Y32010235D01*
X50304440Y32258000D01*
X50304440Y33782000D01*
X50255157Y34029765D01*
X50114809Y34239809D01*
X50039693Y34290000D01*
X50114809Y34340191D01*
X50255157Y34550235D01*
X50304440Y34798000D01*
X50304440Y36322000D01*
X50255157Y36569765D01*
X50114809Y36779809D01*
X50039693Y36830000D01*
X50114809Y36880191D01*
X50255157Y37090235D01*
X50304440Y37338000D01*
X50304440Y38862000D01*
X50255157Y39109765D01*
X50114809Y39319809D01*
X49904765Y39460157D01*
X49657000Y39509440D01*
X48133000Y39509440D01*
X47885235Y39460157D01*
X47675191Y39319809D01*
X47625000Y39244693D01*
X47574809Y39319809D01*
X47364765Y39460157D01*
X47117000Y39509440D01*
X45593000Y39509440D01*
X45345235Y39460157D01*
X45135191Y39319809D01*
X44994843Y39109765D01*
X44945560Y38862000D01*
X989000Y38862000D01*
X989000Y39651000D01*
X59971001Y39651000D01*
X59971000Y989000D01*
X59971000Y989000D01*
G37*
X59971000Y989000D02*
X989000Y989000D01*
X989000Y8135000D01*
X9022560Y8135000D01*
X9022560Y5835000D01*
X9071843Y5587235D01*
X9212191Y5377191D01*
X9422235Y5236843D01*
X9670000Y5187560D01*
X11970000Y5187560D01*
X12217765Y5236843D01*
X12427809Y5377191D01*
X12568157Y5587235D01*
X12617440Y5835000D01*
X12617440Y7359950D01*
X40635000Y7359950D01*
X40635000Y6610050D01*
X40921974Y5917233D01*
X41452233Y5386974D01*
X42145050Y5100000D01*
X42894950Y5100000D01*
X43587767Y5386974D01*
X44118026Y5917233D01*
X44405000Y6610050D01*
X44405000Y7359950D01*
X44118026Y8052767D01*
X43587767Y8583026D01*
X42894950Y8870000D01*
X42145050Y8870000D01*
X41452233Y8583026D01*
X40921974Y8052767D01*
X40635000Y7359950D01*
X12617440Y7359950D01*
X12617440Y8135000D01*
X12568157Y8382765D01*
X12427809Y8592809D01*
X12217765Y8733157D01*
X11970000Y8782440D01*
X9670000Y8782440D01*
X9422235Y8733157D01*
X9212191Y8592809D01*
X9071843Y8382765D01*
X9022560Y8135000D01*
X989000Y8135000D01*
X989000Y13462000D01*
X44945560Y13462000D01*
X44945560Y11938000D01*
X44994843Y11690235D01*
X45135191Y11480191D01*
X45210307Y11430000D01*
X45135191Y11379809D01*
X44994843Y11169765D01*
X44945560Y10922000D01*
X44945560Y9398000D01*
X44994843Y9150235D01*
X45135191Y8940191D01*
X45345235Y8799843D01*
X45593000Y8750560D01*
X47117000Y8750560D01*
X47364765Y8799843D01*
X47574809Y8940191D01*
X47715157Y9150235D01*
X47760000Y9375680D01*
X47760001Y6356478D01*
X47675191Y6299809D01*
X47625000Y6224693D01*
X47574809Y6299809D01*
X47364765Y6440157D01*
X47117000Y6489440D01*
X45593000Y6489440D01*
X45345235Y6440157D01*
X45135191Y6299809D01*
X44994843Y6089765D01*
X44945560Y5842000D01*
X44945560Y4318000D01*
X44994843Y4070235D01*
X45135191Y3860191D01*
X45210307Y3810000D01*
X45135191Y3759809D01*
X44994843Y3549765D01*
X44945560Y3302000D01*
X44945560Y1778000D01*
X44994843Y1530235D01*
X45135191Y1320191D01*
X45345235Y1179843D01*
X45593000Y1130560D01*
X47117000Y1130560D01*
X47364765Y1179843D01*
X47574809Y1320191D01*
X47625000Y1395307D01*
X47675191Y1320191D01*
X47885235Y1179843D01*
X48133000Y1130560D01*
X49657000Y1130560D01*
X49904765Y1179843D01*
X50114809Y1320191D01*
X50255157Y1530235D01*
X50304440Y1778000D01*
X50304440Y3302000D01*
X50255157Y3549765D01*
X50114809Y3759809D01*
X50039693Y3810000D01*
X50114809Y3860191D01*
X50255157Y4070235D01*
X50304440Y4318000D01*
X50304440Y5842000D01*
X50255157Y6089765D01*
X50114809Y6299809D01*
X50030000Y6356477D01*
X50030000Y10324869D01*
X51350000Y11644869D01*
X51350000Y11160474D01*
X51556286Y10662454D01*
X51937454Y10281286D01*
X52435474Y10075000D01*
X52974526Y10075000D01*
X53472546Y10281286D01*
X53853714Y10662454D01*
X53975000Y10955265D01*
X54096286Y10662454D01*
X54477454Y10281286D01*
X54975474Y10075000D01*
X55514526Y10075000D01*
X56012546Y10281286D01*
X56393714Y10662454D01*
X56515000Y10955265D01*
X56636286Y10662454D01*
X57017454Y10281286D01*
X57515474Y10075000D01*
X58054526Y10075000D01*
X58552546Y10281286D01*
X58933714Y10662454D01*
X59140000Y11160474D01*
X59140000Y11699526D01*
X58933714Y12197546D01*
X58552546Y12578714D01*
X58054526Y12785000D01*
X57515474Y12785000D01*
X57017454Y12578714D01*
X56636286Y12197546D01*
X56515000Y11904735D01*
X56393714Y12197546D01*
X56012546Y12578714D01*
X55514526Y12785000D01*
X54975474Y12785000D01*
X54477454Y12578714D01*
X54096286Y12197546D01*
X53975000Y11904735D01*
X53853714Y12197546D01*
X53472546Y12578714D01*
X52974526Y12785000D01*
X52490131Y12785000D01*
X55495132Y15790000D01*
X55514526Y15790000D01*
X56012546Y15996286D01*
X56393714Y16377454D01*
X56515000Y16670265D01*
X56636286Y16377454D01*
X57017454Y15996286D01*
X57515474Y15790000D01*
X58054526Y15790000D01*
X58552546Y15996286D01*
X58933714Y16377454D01*
X59140000Y16875474D01*
X59140000Y17414526D01*
X58933714Y17912546D01*
X58552546Y18293714D01*
X58054526Y18500000D01*
X57515474Y18500000D01*
X57017454Y18293714D01*
X56636286Y17912546D01*
X56515000Y17619735D01*
X56393714Y17912546D01*
X56012546Y18293714D01*
X55514526Y18500000D01*
X54975474Y18500000D01*
X54477454Y18293714D01*
X54096286Y17912546D01*
X53975000Y17619735D01*
X53853714Y17912546D01*
X53472546Y18293714D01*
X52974526Y18500000D01*
X52435474Y18500000D01*
X51937454Y18293714D01*
X51556286Y17912546D01*
X51350000Y17414526D01*
X51350000Y16875474D01*
X51556286Y16377454D01*
X51937454Y15996286D01*
X52328980Y15834111D01*
X48171482Y11676613D01*
X48076711Y11613289D01*
X47894001Y11339843D01*
X47825854Y11237854D01*
X47763733Y10925552D01*
X47715157Y11169765D01*
X47574809Y11379809D01*
X47499693Y11430000D01*
X47574809Y11480191D01*
X47715157Y11690235D01*
X47764440Y11938000D01*
X47764440Y13462000D01*
X47715157Y13709765D01*
X47574809Y13919809D01*
X47364765Y14060157D01*
X47117000Y14109440D01*
X45593000Y14109440D01*
X45345235Y14060157D01*
X45135191Y13919809D01*
X44994843Y13709765D01*
X44945560Y13462000D01*
X989000Y13462000D01*
X989000Y18185222D01*
X40910000Y18185222D01*
X40910000Y17534778D01*
X41158914Y16933847D01*
X41618847Y16473914D01*
X42219778Y16225000D01*
X42870222Y16225000D01*
X43471153Y16473914D01*
X43931086Y16933847D01*
X44180000Y17534778D01*
X44180000Y18185222D01*
X43931086Y18786153D01*
X43471153Y19246086D01*
X42870222Y19495000D01*
X42219778Y19495000D01*
X41618847Y19246086D01*
X41158914Y18786153D01*
X40910000Y18185222D01*
X989000Y18185222D01*
X989000Y19230207D01*
X1497233Y18721974D01*
X2190050Y18435000D01*
X2939950Y18435000D01*
X3632767Y18721974D01*
X4163026Y19252233D01*
X4450000Y19945050D01*
X4450000Y20694950D01*
X4163026Y21387767D01*
X4080793Y21470000D01*
X32467560Y21470000D01*
X32467560Y19170000D01*
X32516843Y18922235D01*
X32657191Y18712191D01*
X32867235Y18571843D01*
X33115000Y18522560D01*
X35415000Y18522560D01*
X35662765Y18571843D01*
X35872809Y18712191D01*
X36013157Y18922235D01*
X36062440Y19170000D01*
X36062440Y21470000D01*
X36013157Y21717765D01*
X35872809Y21927809D01*
X35662765Y22068157D01*
X35415000Y22117440D01*
X33115000Y22117440D01*
X32867235Y22068157D01*
X32657191Y21927809D01*
X32516843Y21717765D01*
X32467560Y21470000D01*
X4080793Y21470000D01*
X3632767Y21918026D01*
X2939950Y22205000D01*
X2190050Y22205000D01*
X1497233Y21918026D01*
X989000Y21409793D01*
X989000Y27110050D01*
X1022235Y27087843D01*
X1270000Y27038560D01*
X2359002Y27038560D01*
X2359002Y26305617D01*
X2224855Y26104853D01*
X2136766Y25661999D01*
X2224855Y25219145D01*
X2412393Y24938476D01*
X5214389Y22136479D01*
X5277711Y22041711D01*
X5549661Y21860000D01*
X5653145Y21790854D01*
X6096000Y21702765D01*
X6207783Y21725000D01*
X27797783Y21725000D01*
X28128855Y21790854D01*
X28504289Y22041711D01*
X28755146Y22417145D01*
X28843235Y22860000D01*
X28755146Y23302855D01*
X28504289Y23678289D01*
X28232340Y23860000D01*
X40897560Y23860000D01*
X40897560Y21860000D01*
X40946843Y21612235D01*
X41087191Y21402191D01*
X41297235Y21261843D01*
X41545000Y21212560D01*
X43545000Y21212560D01*
X43792765Y21261843D01*
X44002809Y21402191D01*
X44143157Y21612235D01*
X44192440Y21860000D01*
X44192440Y23860000D01*
X44143157Y24107765D01*
X44002809Y24317809D01*
X43792765Y24458157D01*
X43545000Y24507440D01*
X41545000Y24507440D01*
X41297235Y24458157D01*
X41087191Y24317809D01*
X40946843Y24107765D01*
X40897560Y23860000D01*
X28232340Y23860000D01*
X28128855Y23929146D01*
X27797783Y23995000D01*
X6566132Y23995000D01*
X4229001Y26332130D01*
X4229001Y27038560D01*
X5334000Y27038560D01*
X5581765Y27087843D01*
X5791809Y27228191D01*
X5842000Y27303307D01*
X5892191Y27228191D01*
X6102235Y27087843D01*
X6350000Y27038560D01*
X7874000Y27038560D01*
X8121765Y27087843D01*
X8331809Y27228191D01*
X8472157Y27438235D01*
X8521440Y27686000D01*
X8521440Y29210000D01*
X8472157Y29457765D01*
X8331809Y29667809D01*
X8256693Y29718000D01*
X8331809Y29768191D01*
X8472157Y29978235D01*
X8521440Y30226000D01*
X8521440Y31750000D01*
X8472157Y31997765D01*
X8331809Y32207809D01*
X8121765Y32348157D01*
X7874000Y32397440D01*
X6350000Y32397440D01*
X6102235Y32348157D01*
X5892191Y32207809D01*
X5842000Y32132693D01*
X5791809Y32207809D01*
X5581765Y32348157D01*
X5334000Y32397440D01*
X3810000Y32397440D01*
X3562235Y32348157D01*
X3352191Y32207809D01*
X3302000Y32132693D01*
X3251809Y32207809D01*
X3041765Y32348157D01*
X2794000Y32397440D01*
X1270000Y32397440D01*
X1022235Y32348157D01*
X989000Y32325950D01*
X989000Y34029950D01*
X8935000Y34029950D01*
X8935000Y33280050D01*
X9221974Y32587233D01*
X9752233Y32056974D01*
X10445050Y31770000D01*
X11194950Y31770000D01*
X11887767Y32056974D01*
X12418026Y32587233D01*
X12705000Y33280050D01*
X12705000Y34029950D01*
X12418026Y34722767D01*
X12335793Y34805000D01*
X40722560Y34805000D01*
X40722560Y32505000D01*
X40771843Y32257235D01*
X40912191Y32047191D01*
X41122235Y31906843D01*
X41370000Y31857560D01*
X43670000Y31857560D01*
X43917765Y31906843D01*
X44127809Y32047191D01*
X44268157Y32257235D01*
X44317440Y32505000D01*
X44317440Y34805000D01*
X44268157Y35052765D01*
X44127809Y35262809D01*
X43917765Y35403157D01*
X43670000Y35452440D01*
X41370000Y35452440D01*
X41122235Y35403157D01*
X40912191Y35262809D01*
X40771843Y35052765D01*
X40722560Y34805000D01*
X12335793Y34805000D01*
X11887767Y35253026D01*
X11194950Y35540000D01*
X10445050Y35540000D01*
X9752233Y35253026D01*
X9221974Y34722767D01*
X8935000Y34029950D01*
X989000Y34029950D01*
X989000Y38862000D01*
X44945560Y38862000D01*
X44945560Y37338000D01*
X44994843Y37090235D01*
X45135191Y36880191D01*
X45210307Y36830000D01*
X45135191Y36779809D01*
X44994843Y36569765D01*
X44945560Y36322000D01*
X44945560Y34798000D01*
X44994843Y34550235D01*
X45135191Y34340191D01*
X45210307Y34290000D01*
X45135191Y34239809D01*
X44994843Y34029765D01*
X44945560Y33782000D01*
X44945560Y32258000D01*
X44994843Y32010235D01*
X45135191Y31800191D01*
X45345235Y31659843D01*
X45593000Y31610560D01*
X47117000Y31610560D01*
X47364765Y31659843D01*
X47574809Y31800191D01*
X47625000Y31875307D01*
X47675191Y31800191D01*
X47760000Y31743523D01*
X47760001Y29321788D01*
X47737765Y29210000D01*
X47825854Y28767146D01*
X47825855Y28767145D01*
X48076712Y28391711D01*
X48171480Y28328389D01*
X52328980Y24170889D01*
X51937454Y24008714D01*
X51556286Y23627546D01*
X51350000Y23129526D01*
X51350000Y22590474D01*
X51556286Y22092454D01*
X51558740Y22090000D01*
X50635131Y22090000D01*
X50253523Y22471608D01*
X49972854Y22659146D01*
X49530000Y22747235D01*
X49087146Y22659146D01*
X48711712Y22408288D01*
X48460854Y22032854D01*
X48372765Y21590000D01*
X48460854Y21147146D01*
X48648392Y20866477D01*
X49283387Y20231482D01*
X49346711Y20136711D01*
X49671042Y19920000D01*
X49722145Y19885854D01*
X50165000Y19797765D01*
X50276783Y19820000D01*
X56626783Y19820000D01*
X56957855Y19885854D01*
X57333289Y20136711D01*
X57584146Y20512145D01*
X57672235Y20955000D01*
X57584146Y21397855D01*
X57511437Y21506672D01*
X57515474Y21505000D01*
X58054526Y21505000D01*
X58552546Y21711286D01*
X58933714Y22092454D01*
X59140000Y22590474D01*
X59140000Y23129526D01*
X58933714Y23627546D01*
X58552546Y24008714D01*
X58054526Y24215000D01*
X57515474Y24215000D01*
X57017454Y24008714D01*
X56636286Y23627546D01*
X56515000Y23334735D01*
X56393714Y23627546D01*
X56012546Y24008714D01*
X55514526Y24215000D01*
X55495132Y24215000D01*
X52490131Y27220000D01*
X52974526Y27220000D01*
X53472546Y27426286D01*
X53853714Y27807454D01*
X53975000Y28100265D01*
X54096286Y27807454D01*
X54477454Y27426286D01*
X54975474Y27220000D01*
X55514526Y27220000D01*
X56012546Y27426286D01*
X56393714Y27807454D01*
X56515000Y28100265D01*
X56636286Y27807454D01*
X57017454Y27426286D01*
X57515474Y27220000D01*
X58054526Y27220000D01*
X58552546Y27426286D01*
X58933714Y27807454D01*
X59140000Y28305474D01*
X59140000Y28844526D01*
X58933714Y29342546D01*
X58552546Y29723714D01*
X58054526Y29930000D01*
X57515474Y29930000D01*
X57017454Y29723714D01*
X56636286Y29342546D01*
X56515000Y29049735D01*
X56393714Y29342546D01*
X56012546Y29723714D01*
X55514526Y29930000D01*
X54975474Y29930000D01*
X54477454Y29723714D01*
X54096286Y29342546D01*
X53975000Y29049735D01*
X53853714Y29342546D01*
X53472546Y29723714D01*
X52974526Y29930000D01*
X52435474Y29930000D01*
X51937454Y29723714D01*
X51556286Y29342546D01*
X51350000Y28844526D01*
X51350000Y28360131D01*
X50030000Y29680131D01*
X50030000Y31743523D01*
X50114809Y31800191D01*
X50255157Y32010235D01*
X50304440Y32258000D01*
X50304440Y33782000D01*
X50255157Y34029765D01*
X50114809Y34239809D01*
X50039693Y34290000D01*
X50114809Y34340191D01*
X50255157Y34550235D01*
X50304440Y34798000D01*
X50304440Y36322000D01*
X50255157Y36569765D01*
X50114809Y36779809D01*
X50039693Y36830000D01*
X50114809Y36880191D01*
X50255157Y37090235D01*
X50304440Y37338000D01*
X50304440Y38862000D01*
X50255157Y39109765D01*
X50114809Y39319809D01*
X49904765Y39460157D01*
X49657000Y39509440D01*
X48133000Y39509440D01*
X47885235Y39460157D01*
X47675191Y39319809D01*
X47625000Y39244693D01*
X47574809Y39319809D01*
X47364765Y39460157D01*
X47117000Y39509440D01*
X45593000Y39509440D01*
X45345235Y39460157D01*
X45135191Y39319809D01*
X44994843Y39109765D01*
X44945560Y38862000D01*
X989000Y38862000D01*
X989000Y39651000D01*
X59971001Y39651000D01*
X59971000Y989000D01*
G04 #@! TD*
M02*
