G04 #@! TF.GenerationSoftware,KiCad,Pcbnew,(2018-02-10 revision a04965c36)-makepkg*
G04 #@! TF.CreationDate,2018-12-03T23:15:46+01:00*
G04 #@! TF.ProjectId,SIPM01B,5349504D3031422E6B696361645F7063,rev?*
G04 #@! TF.SameCoordinates,Original*
G04 #@! TF.FileFunction,Copper,L1,Top,Signal*
G04 #@! TF.FilePolarity,Positive*
%FSLAX46Y46*%
G04 Gerber Fmt 4.6, Leading zero omitted, Abs format (unit mm)*
G04 Created by KiCad (PCBNEW (2018-02-10 revision a04965c36)-makepkg) date 12/03/18 23:15:46*
%MOMM*%
%LPD*%
G01*
G04 APERTURE LIST*
%ADD10C,6.000000*%
%ADD11C,0.230000*%
%ADD12R,1.524000X1.524000*%
%ADD13C,0.800000*%
%ADD14C,0.250000*%
%ADD15C,0.800000*%
%ADD16C,0.254000*%
G04 APERTURE END LIST*
D10*
X15240000Y35560000D03*
X5080000Y5080000D03*
X5080000Y35560000D03*
X15240000Y5080000D03*
D11*
X15260000Y25420000D03*
X15260000Y20320000D03*
X15260000Y15220000D03*
X10160000Y15220000D03*
X5060000Y15220000D03*
X5060000Y20320000D03*
X10160000Y20320000D03*
X10160000Y25420000D03*
X5060000Y25420000D03*
D12*
X4445000Y11430000D03*
X6985000Y11430000D03*
X9525000Y11430000D03*
X12065000Y11430000D03*
X14605000Y11430000D03*
D13*
X4445000Y27487500D03*
X13304520Y26670000D03*
X10160000Y19232500D03*
X13970000Y19232500D03*
X4445000Y17907000D03*
X15875000Y26035000D03*
X8255000Y22860000D03*
X18034000Y30670500D03*
D14*
X5060000Y26872500D02*
X4445000Y27487500D01*
X5060000Y25420000D02*
X5060000Y26872500D01*
X12054520Y25420000D02*
X13304520Y26670000D01*
X10160000Y25420000D02*
X12054520Y25420000D01*
X9072500Y20320000D02*
X10160000Y19232500D01*
X5060000Y20320000D02*
X9072500Y20320000D01*
X12882500Y20320000D02*
X13970000Y19232500D01*
X10160000Y20320000D02*
X12882500Y20320000D01*
X4445000Y21336000D02*
X4445000Y17907000D01*
X4609990Y21500990D02*
X4445000Y21336000D01*
X4699000Y21590000D02*
X4609990Y21500990D01*
X9398000Y21590000D02*
X4699000Y21590000D01*
X9398000Y22977682D02*
X9398000Y21590000D01*
X9906000Y23495000D02*
X9906000Y23485682D01*
X9906000Y23485682D02*
X9398000Y22977682D01*
X7747000Y25654000D02*
X9906000Y23495000D01*
X7747000Y28650360D02*
X7747000Y25654000D01*
X5080000Y35560000D02*
X5080000Y31317360D01*
X5080000Y31317360D02*
X7747000Y28650360D01*
D15*
X4445000Y22860000D02*
X8255000Y22860000D01*
X3302000Y21717000D02*
X4445000Y22860000D01*
X3302000Y13716000D02*
X3302000Y21717000D01*
X3556000Y13462000D02*
X3302000Y13716000D01*
X6515000Y13462000D02*
X3556000Y13462000D01*
X6985000Y11430000D02*
X6985000Y12992000D01*
X6985000Y12992000D02*
X6515000Y13462000D01*
D14*
X18034000Y26289000D02*
X18034000Y30670500D01*
X17054999Y25309999D02*
X18034000Y26289000D01*
X15260000Y25380000D02*
X15330001Y25309999D01*
X15330001Y25309999D02*
X17054999Y25309999D01*
X15240000Y20320000D02*
X15260000Y20340000D01*
X15260000Y20340000D02*
X15260000Y25380000D01*
X15240000Y15240000D02*
X15240000Y20320000D01*
X15220000Y15220000D02*
X15240000Y15240000D01*
X10160000Y15220000D02*
X15220000Y15220000D01*
X5060000Y15220000D02*
X10160000Y15220000D01*
D16*
G36*
X19331000Y989000D02*
X989000Y989000D01*
X989000Y21717000D01*
X2246724Y21717000D01*
X2267001Y21615061D01*
X2267000Y13817934D01*
X2246724Y13716000D01*
X2267000Y13614066D01*
X2327052Y13312164D01*
X2555807Y12969807D01*
X2642227Y12912063D01*
X2752063Y12802227D01*
X2809807Y12715807D01*
X3127466Y12503554D01*
X3084843Y12439765D01*
X3035560Y12192000D01*
X3035560Y10668000D01*
X3084843Y10420235D01*
X3225191Y10210191D01*
X3435235Y10069843D01*
X3683000Y10020560D01*
X5207000Y10020560D01*
X5454765Y10069843D01*
X5664809Y10210191D01*
X5715000Y10285307D01*
X5765191Y10210191D01*
X5975235Y10069843D01*
X6223000Y10020560D01*
X7747000Y10020560D01*
X7994765Y10069843D01*
X8204809Y10210191D01*
X8255000Y10285307D01*
X8305191Y10210191D01*
X8515235Y10069843D01*
X8763000Y10020560D01*
X10287000Y10020560D01*
X10534765Y10069843D01*
X10744809Y10210191D01*
X10795000Y10285307D01*
X10845191Y10210191D01*
X11055235Y10069843D01*
X11303000Y10020560D01*
X12827000Y10020560D01*
X13074765Y10069843D01*
X13284809Y10210191D01*
X13335000Y10285307D01*
X13385191Y10210191D01*
X13595235Y10069843D01*
X13843000Y10020560D01*
X15367000Y10020560D01*
X15614765Y10069843D01*
X15824809Y10210191D01*
X15965157Y10420235D01*
X16014440Y10668000D01*
X16014440Y12192000D01*
X15965157Y12439765D01*
X15824809Y12649809D01*
X15614765Y12790157D01*
X15367000Y12839440D01*
X13843000Y12839440D01*
X13595235Y12790157D01*
X13385191Y12649809D01*
X13335000Y12574693D01*
X13284809Y12649809D01*
X13074765Y12790157D01*
X12827000Y12839440D01*
X11303000Y12839440D01*
X11055235Y12790157D01*
X10845191Y12649809D01*
X10795000Y12574693D01*
X10744809Y12649809D01*
X10534765Y12790157D01*
X10287000Y12839440D01*
X8763000Y12839440D01*
X8515235Y12790157D01*
X8305191Y12649809D01*
X8255000Y12574693D01*
X8204809Y12649809D01*
X8020000Y12773295D01*
X8020000Y12890071D01*
X8040275Y12992001D01*
X8020000Y13093930D01*
X8020000Y13093935D01*
X7959948Y13395837D01*
X7731193Y13738193D01*
X7644773Y13795937D01*
X7318937Y14121773D01*
X7261193Y14208193D01*
X6918837Y14436948D01*
X6802947Y14460000D01*
X15145153Y14460000D01*
X15220000Y14445112D01*
X15294847Y14460000D01*
X15294852Y14460000D01*
X15345125Y14470000D01*
X15409184Y14470000D01*
X15468367Y14494514D01*
X15516537Y14504096D01*
X15557374Y14531382D01*
X15684841Y14584181D01*
X15895819Y14795159D01*
X16010000Y15070816D01*
X16010000Y15215425D01*
X16014888Y15239999D01*
X16010000Y15264573D01*
X16010000Y15369184D01*
X16000000Y15393326D01*
X16000000Y20146674D01*
X16010000Y20170816D01*
X16010000Y20214875D01*
X16020000Y20265148D01*
X16020000Y20265152D01*
X16034888Y20339999D01*
X16020000Y20414846D01*
X16020000Y24549999D01*
X16980152Y24549999D01*
X17054999Y24535111D01*
X17129846Y24549999D01*
X17129851Y24549999D01*
X17351536Y24594095D01*
X17602928Y24762070D01*
X17645330Y24825528D01*
X18518476Y25698673D01*
X18581929Y25741071D01*
X18624327Y25804524D01*
X18624329Y25804526D01*
X18733511Y25967929D01*
X18749904Y25992463D01*
X18794000Y26214148D01*
X18794000Y26214152D01*
X18808888Y26288999D01*
X18794000Y26363846D01*
X18794000Y29966789D01*
X18911431Y30084220D01*
X19069000Y30464626D01*
X19069000Y30876374D01*
X18911431Y31256780D01*
X18620280Y31547931D01*
X18239874Y31705500D01*
X17828126Y31705500D01*
X17447720Y31547931D01*
X17156569Y31256780D01*
X16999000Y30876374D01*
X16999000Y30464626D01*
X17156569Y30084220D01*
X17274001Y29966788D01*
X17274000Y26603803D01*
X16740197Y26069999D01*
X15650607Y26069999D01*
X15409184Y26170000D01*
X15110816Y26170000D01*
X14835159Y26055819D01*
X14624181Y25844841D01*
X14571381Y25717370D01*
X14544097Y25676537D01*
X14534516Y25628371D01*
X14510000Y25569184D01*
X14510000Y25505120D01*
X14485112Y25380000D01*
X14500001Y25305148D01*
X14500000Y20495394D01*
X14465112Y20320000D01*
X14480001Y20245148D01*
X14480001Y20141527D01*
X14175874Y20267500D01*
X14009802Y20267500D01*
X13472831Y20804470D01*
X13430429Y20867929D01*
X13179037Y21035904D01*
X12957352Y21080000D01*
X12957347Y21080000D01*
X12882500Y21094888D01*
X12807653Y21080000D01*
X10085148Y21080000D01*
X10034875Y21070000D01*
X10010816Y21070000D01*
X9988589Y21060793D01*
X9863463Y21035904D01*
X9757387Y20965026D01*
X9735159Y20955819D01*
X9718146Y20938806D01*
X9616250Y20870721D01*
X9369037Y21035904D01*
X9147352Y21080000D01*
X9147347Y21080000D01*
X9072500Y21094888D01*
X8997653Y21080000D01*
X4985148Y21080000D01*
X4934875Y21070000D01*
X4910816Y21070000D01*
X4888589Y21060793D01*
X4763463Y21035904D01*
X4657387Y20965026D01*
X4635159Y20955819D01*
X4618146Y20938806D01*
X4512071Y20867929D01*
X4441194Y20761854D01*
X4424181Y20744841D01*
X4414974Y20722613D01*
X4344096Y20616537D01*
X4337000Y20580863D01*
X4337000Y21288290D01*
X4873711Y21825000D01*
X8460874Y21825000D01*
X8556901Y21864776D01*
X8658837Y21885052D01*
X8745253Y21942793D01*
X8841280Y21982569D01*
X8914776Y22056065D01*
X9001193Y22113807D01*
X9058935Y22200224D01*
X9132431Y22273720D01*
X9172207Y22369747D01*
X9229948Y22456163D01*
X9250224Y22558098D01*
X9290000Y22654126D01*
X9290000Y22758065D01*
X9310276Y22860000D01*
X9290000Y22961935D01*
X9290000Y23065874D01*
X9250224Y23161902D01*
X9229948Y23263837D01*
X9172207Y23350253D01*
X9132431Y23446280D01*
X9058935Y23519776D01*
X9001193Y23606193D01*
X8914776Y23663935D01*
X8841280Y23737431D01*
X8745253Y23777207D01*
X8658837Y23834948D01*
X8556901Y23855224D01*
X8460874Y23895000D01*
X4546934Y23895000D01*
X4444999Y23915276D01*
X4343065Y23895000D01*
X4041163Y23834948D01*
X3698807Y23606193D01*
X3641065Y23519776D01*
X2642225Y22520935D01*
X2555808Y22463193D01*
X2498066Y22376776D01*
X2327052Y22120836D01*
X2246724Y21717000D01*
X989000Y21717000D01*
X989000Y27693374D01*
X3410000Y27693374D01*
X3410000Y27281626D01*
X3567569Y26901220D01*
X3858720Y26610069D01*
X4239126Y26452500D01*
X4300001Y26452500D01*
X4300000Y25345149D01*
X4310000Y25294876D01*
X4310000Y25270816D01*
X4319207Y25248588D01*
X4344096Y25123464D01*
X4414973Y25017388D01*
X4424181Y24995159D01*
X4441194Y24978146D01*
X4512071Y24872071D01*
X4618146Y24801194D01*
X4635159Y24784181D01*
X4657387Y24774974D01*
X4763463Y24704096D01*
X4888589Y24679207D01*
X4910816Y24670000D01*
X4934875Y24670000D01*
X5060000Y24645111D01*
X5185125Y24670000D01*
X5209184Y24670000D01*
X5231412Y24679207D01*
X5356536Y24704096D01*
X5462612Y24774973D01*
X5484841Y24784181D01*
X5501854Y24801194D01*
X5607929Y24872071D01*
X5678806Y24978146D01*
X5695819Y24995159D01*
X5705026Y25017387D01*
X5775904Y25123463D01*
X5800793Y25248589D01*
X5810000Y25270816D01*
X5810000Y25294875D01*
X5820000Y25345148D01*
X5820000Y25420000D01*
X9385111Y25420000D01*
X9410000Y25294875D01*
X9410000Y25270816D01*
X9419207Y25248589D01*
X9444096Y25123463D01*
X9514974Y25017387D01*
X9524181Y24995159D01*
X9541194Y24978146D01*
X9612071Y24872071D01*
X9718146Y24801194D01*
X9735159Y24784181D01*
X9757387Y24774974D01*
X9863463Y24704096D01*
X9988589Y24679207D01*
X10010816Y24670000D01*
X10034875Y24670000D01*
X10085148Y24660000D01*
X11979673Y24660000D01*
X12054520Y24645112D01*
X12129367Y24660000D01*
X12129372Y24660000D01*
X12351057Y24704096D01*
X12602449Y24872071D01*
X12644851Y24935530D01*
X13344322Y25635000D01*
X13510394Y25635000D01*
X13890800Y25792569D01*
X14181951Y26083720D01*
X14339520Y26464126D01*
X14339520Y26875874D01*
X14181951Y27256280D01*
X13890800Y27547431D01*
X13510394Y27705000D01*
X13098646Y27705000D01*
X12718240Y27547431D01*
X12427089Y27256280D01*
X12269520Y26875874D01*
X12269520Y26709802D01*
X11739719Y26180000D01*
X10085148Y26180000D01*
X10034875Y26170000D01*
X10010816Y26170000D01*
X9988589Y26160793D01*
X9863463Y26135904D01*
X9757387Y26065026D01*
X9735159Y26055819D01*
X9718146Y26038806D01*
X9612071Y25967929D01*
X9541194Y25861854D01*
X9524181Y25844841D01*
X9514974Y25822613D01*
X9444096Y25716537D01*
X9419207Y25591411D01*
X9410000Y25569184D01*
X9410000Y25545125D01*
X9385111Y25420000D01*
X5820000Y25420000D01*
X5820000Y26797654D01*
X5834888Y26872501D01*
X5820000Y26947348D01*
X5820000Y26947352D01*
X5775904Y27169037D01*
X5714905Y27260329D01*
X5650329Y27356974D01*
X5650327Y27356976D01*
X5607929Y27420429D01*
X5544475Y27462828D01*
X5480000Y27527303D01*
X5480000Y27693374D01*
X5322431Y28073780D01*
X5031280Y28364931D01*
X4650874Y28522500D01*
X4239126Y28522500D01*
X3858720Y28364931D01*
X3567569Y28073780D01*
X3410000Y27693374D01*
X989000Y27693374D01*
X989000Y39651000D01*
X19331001Y39651000D01*
X19331000Y989000D01*
X19331000Y989000D01*
G37*
X19331000Y989000D02*
X989000Y989000D01*
X989000Y21717000D01*
X2246724Y21717000D01*
X2267001Y21615061D01*
X2267000Y13817934D01*
X2246724Y13716000D01*
X2267000Y13614066D01*
X2327052Y13312164D01*
X2555807Y12969807D01*
X2642227Y12912063D01*
X2752063Y12802227D01*
X2809807Y12715807D01*
X3127466Y12503554D01*
X3084843Y12439765D01*
X3035560Y12192000D01*
X3035560Y10668000D01*
X3084843Y10420235D01*
X3225191Y10210191D01*
X3435235Y10069843D01*
X3683000Y10020560D01*
X5207000Y10020560D01*
X5454765Y10069843D01*
X5664809Y10210191D01*
X5715000Y10285307D01*
X5765191Y10210191D01*
X5975235Y10069843D01*
X6223000Y10020560D01*
X7747000Y10020560D01*
X7994765Y10069843D01*
X8204809Y10210191D01*
X8255000Y10285307D01*
X8305191Y10210191D01*
X8515235Y10069843D01*
X8763000Y10020560D01*
X10287000Y10020560D01*
X10534765Y10069843D01*
X10744809Y10210191D01*
X10795000Y10285307D01*
X10845191Y10210191D01*
X11055235Y10069843D01*
X11303000Y10020560D01*
X12827000Y10020560D01*
X13074765Y10069843D01*
X13284809Y10210191D01*
X13335000Y10285307D01*
X13385191Y10210191D01*
X13595235Y10069843D01*
X13843000Y10020560D01*
X15367000Y10020560D01*
X15614765Y10069843D01*
X15824809Y10210191D01*
X15965157Y10420235D01*
X16014440Y10668000D01*
X16014440Y12192000D01*
X15965157Y12439765D01*
X15824809Y12649809D01*
X15614765Y12790157D01*
X15367000Y12839440D01*
X13843000Y12839440D01*
X13595235Y12790157D01*
X13385191Y12649809D01*
X13335000Y12574693D01*
X13284809Y12649809D01*
X13074765Y12790157D01*
X12827000Y12839440D01*
X11303000Y12839440D01*
X11055235Y12790157D01*
X10845191Y12649809D01*
X10795000Y12574693D01*
X10744809Y12649809D01*
X10534765Y12790157D01*
X10287000Y12839440D01*
X8763000Y12839440D01*
X8515235Y12790157D01*
X8305191Y12649809D01*
X8255000Y12574693D01*
X8204809Y12649809D01*
X8020000Y12773295D01*
X8020000Y12890071D01*
X8040275Y12992001D01*
X8020000Y13093930D01*
X8020000Y13093935D01*
X7959948Y13395837D01*
X7731193Y13738193D01*
X7644773Y13795937D01*
X7318937Y14121773D01*
X7261193Y14208193D01*
X6918837Y14436948D01*
X6802947Y14460000D01*
X15145153Y14460000D01*
X15220000Y14445112D01*
X15294847Y14460000D01*
X15294852Y14460000D01*
X15345125Y14470000D01*
X15409184Y14470000D01*
X15468367Y14494514D01*
X15516537Y14504096D01*
X15557374Y14531382D01*
X15684841Y14584181D01*
X15895819Y14795159D01*
X16010000Y15070816D01*
X16010000Y15215425D01*
X16014888Y15239999D01*
X16010000Y15264573D01*
X16010000Y15369184D01*
X16000000Y15393326D01*
X16000000Y20146674D01*
X16010000Y20170816D01*
X16010000Y20214875D01*
X16020000Y20265148D01*
X16020000Y20265152D01*
X16034888Y20339999D01*
X16020000Y20414846D01*
X16020000Y24549999D01*
X16980152Y24549999D01*
X17054999Y24535111D01*
X17129846Y24549999D01*
X17129851Y24549999D01*
X17351536Y24594095D01*
X17602928Y24762070D01*
X17645330Y24825528D01*
X18518476Y25698673D01*
X18581929Y25741071D01*
X18624327Y25804524D01*
X18624329Y25804526D01*
X18733511Y25967929D01*
X18749904Y25992463D01*
X18794000Y26214148D01*
X18794000Y26214152D01*
X18808888Y26288999D01*
X18794000Y26363846D01*
X18794000Y29966789D01*
X18911431Y30084220D01*
X19069000Y30464626D01*
X19069000Y30876374D01*
X18911431Y31256780D01*
X18620280Y31547931D01*
X18239874Y31705500D01*
X17828126Y31705500D01*
X17447720Y31547931D01*
X17156569Y31256780D01*
X16999000Y30876374D01*
X16999000Y30464626D01*
X17156569Y30084220D01*
X17274001Y29966788D01*
X17274000Y26603803D01*
X16740197Y26069999D01*
X15650607Y26069999D01*
X15409184Y26170000D01*
X15110816Y26170000D01*
X14835159Y26055819D01*
X14624181Y25844841D01*
X14571381Y25717370D01*
X14544097Y25676537D01*
X14534516Y25628371D01*
X14510000Y25569184D01*
X14510000Y25505120D01*
X14485112Y25380000D01*
X14500001Y25305148D01*
X14500000Y20495394D01*
X14465112Y20320000D01*
X14480001Y20245148D01*
X14480001Y20141527D01*
X14175874Y20267500D01*
X14009802Y20267500D01*
X13472831Y20804470D01*
X13430429Y20867929D01*
X13179037Y21035904D01*
X12957352Y21080000D01*
X12957347Y21080000D01*
X12882500Y21094888D01*
X12807653Y21080000D01*
X10085148Y21080000D01*
X10034875Y21070000D01*
X10010816Y21070000D01*
X9988589Y21060793D01*
X9863463Y21035904D01*
X9757387Y20965026D01*
X9735159Y20955819D01*
X9718146Y20938806D01*
X9616250Y20870721D01*
X9369037Y21035904D01*
X9147352Y21080000D01*
X9147347Y21080000D01*
X9072500Y21094888D01*
X8997653Y21080000D01*
X4985148Y21080000D01*
X4934875Y21070000D01*
X4910816Y21070000D01*
X4888589Y21060793D01*
X4763463Y21035904D01*
X4657387Y20965026D01*
X4635159Y20955819D01*
X4618146Y20938806D01*
X4512071Y20867929D01*
X4441194Y20761854D01*
X4424181Y20744841D01*
X4414974Y20722613D01*
X4344096Y20616537D01*
X4337000Y20580863D01*
X4337000Y21288290D01*
X4873711Y21825000D01*
X8460874Y21825000D01*
X8556901Y21864776D01*
X8658837Y21885052D01*
X8745253Y21942793D01*
X8841280Y21982569D01*
X8914776Y22056065D01*
X9001193Y22113807D01*
X9058935Y22200224D01*
X9132431Y22273720D01*
X9172207Y22369747D01*
X9229948Y22456163D01*
X9250224Y22558098D01*
X9290000Y22654126D01*
X9290000Y22758065D01*
X9310276Y22860000D01*
X9290000Y22961935D01*
X9290000Y23065874D01*
X9250224Y23161902D01*
X9229948Y23263837D01*
X9172207Y23350253D01*
X9132431Y23446280D01*
X9058935Y23519776D01*
X9001193Y23606193D01*
X8914776Y23663935D01*
X8841280Y23737431D01*
X8745253Y23777207D01*
X8658837Y23834948D01*
X8556901Y23855224D01*
X8460874Y23895000D01*
X4546934Y23895000D01*
X4444999Y23915276D01*
X4343065Y23895000D01*
X4041163Y23834948D01*
X3698807Y23606193D01*
X3641065Y23519776D01*
X2642225Y22520935D01*
X2555808Y22463193D01*
X2498066Y22376776D01*
X2327052Y22120836D01*
X2246724Y21717000D01*
X989000Y21717000D01*
X989000Y27693374D01*
X3410000Y27693374D01*
X3410000Y27281626D01*
X3567569Y26901220D01*
X3858720Y26610069D01*
X4239126Y26452500D01*
X4300001Y26452500D01*
X4300000Y25345149D01*
X4310000Y25294876D01*
X4310000Y25270816D01*
X4319207Y25248588D01*
X4344096Y25123464D01*
X4414973Y25017388D01*
X4424181Y24995159D01*
X4441194Y24978146D01*
X4512071Y24872071D01*
X4618146Y24801194D01*
X4635159Y24784181D01*
X4657387Y24774974D01*
X4763463Y24704096D01*
X4888589Y24679207D01*
X4910816Y24670000D01*
X4934875Y24670000D01*
X5060000Y24645111D01*
X5185125Y24670000D01*
X5209184Y24670000D01*
X5231412Y24679207D01*
X5356536Y24704096D01*
X5462612Y24774973D01*
X5484841Y24784181D01*
X5501854Y24801194D01*
X5607929Y24872071D01*
X5678806Y24978146D01*
X5695819Y24995159D01*
X5705026Y25017387D01*
X5775904Y25123463D01*
X5800793Y25248589D01*
X5810000Y25270816D01*
X5810000Y25294875D01*
X5820000Y25345148D01*
X5820000Y25420000D01*
X9385111Y25420000D01*
X9410000Y25294875D01*
X9410000Y25270816D01*
X9419207Y25248589D01*
X9444096Y25123463D01*
X9514974Y25017387D01*
X9524181Y24995159D01*
X9541194Y24978146D01*
X9612071Y24872071D01*
X9718146Y24801194D01*
X9735159Y24784181D01*
X9757387Y24774974D01*
X9863463Y24704096D01*
X9988589Y24679207D01*
X10010816Y24670000D01*
X10034875Y24670000D01*
X10085148Y24660000D01*
X11979673Y24660000D01*
X12054520Y24645112D01*
X12129367Y24660000D01*
X12129372Y24660000D01*
X12351057Y24704096D01*
X12602449Y24872071D01*
X12644851Y24935530D01*
X13344322Y25635000D01*
X13510394Y25635000D01*
X13890800Y25792569D01*
X14181951Y26083720D01*
X14339520Y26464126D01*
X14339520Y26875874D01*
X14181951Y27256280D01*
X13890800Y27547431D01*
X13510394Y27705000D01*
X13098646Y27705000D01*
X12718240Y27547431D01*
X12427089Y27256280D01*
X12269520Y26875874D01*
X12269520Y26709802D01*
X11739719Y26180000D01*
X10085148Y26180000D01*
X10034875Y26170000D01*
X10010816Y26170000D01*
X9988589Y26160793D01*
X9863463Y26135904D01*
X9757387Y26065026D01*
X9735159Y26055819D01*
X9718146Y26038806D01*
X9612071Y25967929D01*
X9541194Y25861854D01*
X9524181Y25844841D01*
X9514974Y25822613D01*
X9444096Y25716537D01*
X9419207Y25591411D01*
X9410000Y25569184D01*
X9410000Y25545125D01*
X9385111Y25420000D01*
X5820000Y25420000D01*
X5820000Y26797654D01*
X5834888Y26872501D01*
X5820000Y26947348D01*
X5820000Y26947352D01*
X5775904Y27169037D01*
X5714905Y27260329D01*
X5650329Y27356974D01*
X5650327Y27356976D01*
X5607929Y27420429D01*
X5544475Y27462828D01*
X5480000Y27527303D01*
X5480000Y27693374D01*
X5322431Y28073780D01*
X5031280Y28364931D01*
X4650874Y28522500D01*
X4239126Y28522500D01*
X3858720Y28364931D01*
X3567569Y28073780D01*
X3410000Y27693374D01*
X989000Y27693374D01*
X989000Y39651000D01*
X19331001Y39651000D01*
X19331000Y989000D01*
G36*
X4344096Y20023463D02*
X4414974Y19917387D01*
X4424181Y19895159D01*
X4441194Y19878146D01*
X4512071Y19772071D01*
X4618146Y19701194D01*
X4635159Y19684181D01*
X4657387Y19674974D01*
X4763463Y19604096D01*
X4888589Y19579207D01*
X4910816Y19570000D01*
X4934875Y19570000D01*
X4985148Y19560000D01*
X8757699Y19560000D01*
X9125000Y19192698D01*
X9125000Y19026626D01*
X9282569Y18646220D01*
X9573720Y18355069D01*
X9954126Y18197500D01*
X10365874Y18197500D01*
X10746280Y18355069D01*
X11037431Y18646220D01*
X11195000Y19026626D01*
X11195000Y19438374D01*
X11144621Y19560000D01*
X12567699Y19560000D01*
X12935000Y19192698D01*
X12935000Y19026626D01*
X13092569Y18646220D01*
X13383720Y18355069D01*
X13764126Y18197500D01*
X14175874Y18197500D01*
X14480001Y18323473D01*
X14480000Y15980000D01*
X4985148Y15980000D01*
X4934875Y15970000D01*
X4910816Y15970000D01*
X4888589Y15960793D01*
X4763463Y15935904D01*
X4657387Y15865026D01*
X4635159Y15855819D01*
X4618146Y15838806D01*
X4512071Y15767929D01*
X4441194Y15661854D01*
X4424181Y15644841D01*
X4414974Y15622613D01*
X4344096Y15516537D01*
X4337000Y15480863D01*
X4337000Y20059137D01*
X4344096Y20023463D01*
X4344096Y20023463D01*
G37*
X4344096Y20023463D02*
X4414974Y19917387D01*
X4424181Y19895159D01*
X4441194Y19878146D01*
X4512071Y19772071D01*
X4618146Y19701194D01*
X4635159Y19684181D01*
X4657387Y19674974D01*
X4763463Y19604096D01*
X4888589Y19579207D01*
X4910816Y19570000D01*
X4934875Y19570000D01*
X4985148Y19560000D01*
X8757699Y19560000D01*
X9125000Y19192698D01*
X9125000Y19026626D01*
X9282569Y18646220D01*
X9573720Y18355069D01*
X9954126Y18197500D01*
X10365874Y18197500D01*
X10746280Y18355069D01*
X11037431Y18646220D01*
X11195000Y19026626D01*
X11195000Y19438374D01*
X11144621Y19560000D01*
X12567699Y19560000D01*
X12935000Y19192698D01*
X12935000Y19026626D01*
X13092569Y18646220D01*
X13383720Y18355069D01*
X13764126Y18197500D01*
X14175874Y18197500D01*
X14480001Y18323473D01*
X14480000Y15980000D01*
X4985148Y15980000D01*
X4934875Y15970000D01*
X4910816Y15970000D01*
X4888589Y15960793D01*
X4763463Y15935904D01*
X4657387Y15865026D01*
X4635159Y15855819D01*
X4618146Y15838806D01*
X4512071Y15767929D01*
X4441194Y15661854D01*
X4424181Y15644841D01*
X4414974Y15622613D01*
X4344096Y15516537D01*
X4337000Y15480863D01*
X4337000Y20059137D01*
X4344096Y20023463D01*
M02*
