G04 #@! TF.GenerationSoftware,KiCad,Pcbnew,(6.0.0-rc1-dev-1606-g4cd41e394)*
G04 #@! TF.CreationDate,2019-02-20T22:55:41+01:00
G04 #@! TF.ProjectId,AIRDOSC01A_PCB01A,41495244-4f53-4433-9031-415f50434230,rev?*
G04 #@! TF.SameCoordinates,Original*
G04 #@! TF.FileFunction,Legend,Top*
G04 #@! TF.FilePolarity,Positive*
%FSLAX46Y46*%
G04 Gerber Fmt 4.6, Leading zero omitted, Abs format (unit mm)*
G04 Created by KiCad (PCBNEW (6.0.0-rc1-dev-1606-g4cd41e394)) date 20.02.2019 22:55:41*
%MOMM*%
%LPD*%
G04 APERTURE LIST*
%ADD10C,0.200000*%
%ADD11C,0.150000*%
G04 APERTURE END LIST*
D10*
X1769095Y17255714D02*
X2821476Y17255714D01*
X2945285Y17317619D01*
X3007190Y17379523D01*
X3069095Y17503333D01*
X3069095Y17750952D01*
X3007190Y17874761D01*
X2945285Y17936666D01*
X2821476Y17998571D01*
X1769095Y17998571D01*
X3007190Y18555714D02*
X3069095Y18741428D01*
X3069095Y19050952D01*
X3007190Y19174761D01*
X2945285Y19236666D01*
X2821476Y19298571D01*
X2697666Y19298571D01*
X2573857Y19236666D01*
X2511952Y19174761D01*
X2450047Y19050952D01*
X2388142Y18803333D01*
X2326238Y18679523D01*
X2264333Y18617619D01*
X2140523Y18555714D01*
X2016714Y18555714D01*
X1892904Y18617619D01*
X1831000Y18679523D01*
X1769095Y18803333D01*
X1769095Y19112857D01*
X1831000Y19298571D01*
X1769095Y19670000D02*
X1769095Y20412857D01*
X3069095Y20041428D02*
X1769095Y20041428D01*
X2945285Y20846190D02*
X3007190Y20908095D01*
X3069095Y20846190D01*
X3007190Y20784285D01*
X2945285Y20846190D01*
X3069095Y20846190D01*
X2945285Y22208095D02*
X3007190Y22146190D01*
X3069095Y21960476D01*
X3069095Y21836666D01*
X3007190Y21650952D01*
X2883380Y21527142D01*
X2759571Y21465238D01*
X2511952Y21403333D01*
X2326238Y21403333D01*
X2078619Y21465238D01*
X1954809Y21527142D01*
X1831000Y21650952D01*
X1769095Y21836666D01*
X1769095Y21960476D01*
X1831000Y22146190D01*
X1892904Y22208095D01*
X1769095Y22641428D02*
X1769095Y23508095D01*
X3069095Y22641428D01*
X3069095Y23508095D01*
X4847666Y10415238D02*
X4847666Y11034285D01*
X5219095Y10291428D02*
X3919095Y10724761D01*
X5219095Y11158095D01*
X5219095Y11591428D02*
X3919095Y11591428D01*
X5219095Y12953333D02*
X4600047Y12520000D01*
X5219095Y12210476D02*
X3919095Y12210476D01*
X3919095Y12705714D01*
X3980999Y12829523D01*
X4042904Y12891428D01*
X4166714Y12953333D01*
X4352428Y12953333D01*
X4476238Y12891428D01*
X4538142Y12829523D01*
X4600047Y12705714D01*
X4600047Y12210476D01*
X5219095Y13510476D02*
X3919095Y13510476D01*
X3919095Y13819999D01*
X3980999Y14005714D01*
X4104809Y14129523D01*
X4228619Y14191428D01*
X4476238Y14253333D01*
X4661952Y14253333D01*
X4909571Y14191428D01*
X5033380Y14129523D01*
X5157190Y14005714D01*
X5219095Y13819999D01*
X5219095Y13510476D01*
X3919095Y15058095D02*
X3919095Y15305714D01*
X3980999Y15429523D01*
X4104809Y15553333D01*
X4352428Y15615238D01*
X4785761Y15615238D01*
X5033380Y15553333D01*
X5157190Y15429523D01*
X5219095Y15305714D01*
X5219095Y15058095D01*
X5157190Y14934285D01*
X5033380Y14810476D01*
X4785761Y14748571D01*
X4352428Y14748571D01*
X4104809Y14810476D01*
X3980999Y14934285D01*
X3919095Y15058095D01*
X5157190Y16110476D02*
X5219095Y16296190D01*
X5219095Y16605714D01*
X5157190Y16729523D01*
X5095285Y16791428D01*
X4971476Y16853333D01*
X4847666Y16853333D01*
X4723857Y16791428D01*
X4661952Y16729523D01*
X4600047Y16605714D01*
X4538142Y16358095D01*
X4476238Y16234285D01*
X4414333Y16172380D01*
X4290523Y16110476D01*
X4166714Y16110476D01*
X4042904Y16172380D01*
X3981000Y16234285D01*
X3919095Y16358095D01*
X3919095Y16667619D01*
X3981000Y16853333D01*
X5095285Y18153333D02*
X5157190Y18091428D01*
X5219095Y17905714D01*
X5219095Y17781904D01*
X5157190Y17596190D01*
X5033380Y17472380D01*
X4909571Y17410476D01*
X4661952Y17348571D01*
X4476238Y17348571D01*
X4228619Y17410476D01*
X4104809Y17472380D01*
X3981000Y17596190D01*
X3919095Y17781904D01*
X3919095Y17905714D01*
X3981000Y18091428D01*
X4042904Y18153333D01*
X3919095Y18958095D02*
X3919095Y19081904D01*
X3981000Y19205714D01*
X4042904Y19267619D01*
X4166714Y19329523D01*
X4414333Y19391428D01*
X4723857Y19391428D01*
X4971476Y19329523D01*
X5095285Y19267619D01*
X5157190Y19205714D01*
X5219095Y19081904D01*
X5219095Y18958095D01*
X5157190Y18834285D01*
X5095285Y18772380D01*
X4971476Y18710476D01*
X4723857Y18648571D01*
X4414333Y18648571D01*
X4166714Y18710476D01*
X4042904Y18772380D01*
X3981000Y18834285D01*
X3919095Y18958095D01*
X5219095Y20629523D02*
X5219095Y19886666D01*
X5219095Y20258095D02*
X3919095Y20258095D01*
X4104809Y20134285D01*
X4228619Y20010476D01*
X4290523Y19886666D01*
X4847666Y21124761D02*
X4847666Y21743809D01*
X5219095Y21000952D02*
X3919095Y21434285D01*
X5219095Y21867619D01*
X5342904Y21991428D02*
X5342904Y22981904D01*
X5219095Y23291428D02*
X3919095Y23291428D01*
X3919095Y23786666D01*
X3981000Y23910476D01*
X4042904Y23972380D01*
X4166714Y24034285D01*
X4352428Y24034285D01*
X4476238Y23972380D01*
X4538142Y23910476D01*
X4600047Y23786666D01*
X4600047Y23291428D01*
X5095285Y25334285D02*
X5157190Y25272380D01*
X5219095Y25086666D01*
X5219095Y24962857D01*
X5157190Y24777142D01*
X5033380Y24653333D01*
X4909571Y24591428D01*
X4661952Y24529523D01*
X4476238Y24529523D01*
X4228619Y24591428D01*
X4104809Y24653333D01*
X3981000Y24777142D01*
X3919095Y24962857D01*
X3919095Y25086666D01*
X3981000Y25272380D01*
X4042904Y25334285D01*
X4538142Y26324761D02*
X4600047Y26510476D01*
X4661952Y26572380D01*
X4785761Y26634285D01*
X4971476Y26634285D01*
X5095285Y26572380D01*
X5157190Y26510476D01*
X5219095Y26386666D01*
X5219095Y25891428D01*
X3919095Y25891428D01*
X3919095Y26324761D01*
X3981000Y26448571D01*
X4042904Y26510476D01*
X4166714Y26572380D01*
X4290523Y26572380D01*
X4414333Y26510476D01*
X4476238Y26448571D01*
X4538142Y26324761D01*
X4538142Y25891428D01*
X3919095Y27439047D02*
X3919095Y27562857D01*
X3981000Y27686666D01*
X4042904Y27748571D01*
X4166714Y27810476D01*
X4414333Y27872380D01*
X4723857Y27872380D01*
X4971476Y27810476D01*
X5095285Y27748571D01*
X5157190Y27686666D01*
X5219095Y27562857D01*
X5219095Y27439047D01*
X5157190Y27315238D01*
X5095285Y27253333D01*
X4971476Y27191428D01*
X4723857Y27129523D01*
X4414333Y27129523D01*
X4166714Y27191428D01*
X4042904Y27253333D01*
X3981000Y27315238D01*
X3919095Y27439047D01*
X5219095Y29110476D02*
X5219095Y28367619D01*
X5219095Y28739047D02*
X3919095Y28739047D01*
X4104809Y28615238D01*
X4228619Y28491428D01*
X4290523Y28367619D01*
X4847666Y29605714D02*
X4847666Y30224761D01*
X5219095Y29481904D02*
X3919095Y29915238D01*
X5219095Y30348571D01*
X22940095Y2108571D02*
X21640095Y2108571D01*
X22940095Y2727619D02*
X21640095Y2727619D01*
X22940095Y3470476D01*
X21640095Y3470476D01*
X21640095Y4956190D02*
X21640095Y5760952D01*
X22135333Y5327619D01*
X22135333Y5513333D01*
X22197238Y5637142D01*
X22259142Y5699047D01*
X22382952Y5760952D01*
X22692476Y5760952D01*
X22816285Y5699047D01*
X22878190Y5637142D01*
X22940095Y5513333D01*
X22940095Y5141904D01*
X22878190Y5018095D01*
X22816285Y4956190D01*
X21640095Y6132380D02*
X22940095Y6565714D01*
X21640095Y6999047D01*
X21640095Y7989523D02*
X21640095Y7741904D01*
X21702000Y7618095D01*
X21763904Y7556190D01*
X21949619Y7432380D01*
X22197238Y7370476D01*
X22692476Y7370476D01*
X22816285Y7432380D01*
X22878190Y7494285D01*
X22940095Y7618095D01*
X22940095Y7865714D01*
X22878190Y7989523D01*
X22816285Y8051428D01*
X22692476Y8113333D01*
X22382952Y8113333D01*
X22259142Y8051428D01*
X22197238Y7989523D01*
X22135333Y7865714D01*
X22135333Y7618095D01*
X22197238Y7494285D01*
X22259142Y7432380D01*
X22382952Y7370476D01*
X22940095Y31572571D02*
X21640095Y31572571D01*
X22940095Y32191619D02*
X21640095Y32191619D01*
X22940095Y32934476D01*
X21640095Y32934476D01*
X21763904Y34482095D02*
X21702000Y34544000D01*
X21640095Y34667809D01*
X21640095Y34977333D01*
X21702000Y35101142D01*
X21763904Y35163047D01*
X21887714Y35224952D01*
X22011523Y35224952D01*
X22197238Y35163047D01*
X22940095Y34420190D01*
X22940095Y35224952D01*
X22197238Y35967809D02*
X22135333Y35844000D01*
X22073428Y35782095D01*
X21949619Y35720190D01*
X21887714Y35720190D01*
X21763904Y35782095D01*
X21702000Y35844000D01*
X21640095Y35967809D01*
X21640095Y36215428D01*
X21702000Y36339238D01*
X21763904Y36401142D01*
X21887714Y36463047D01*
X21949619Y36463047D01*
X22073428Y36401142D01*
X22135333Y36339238D01*
X22197238Y36215428D01*
X22197238Y35967809D01*
X22259142Y35844000D01*
X22321047Y35782095D01*
X22444857Y35720190D01*
X22692476Y35720190D01*
X22816285Y35782095D01*
X22878190Y35844000D01*
X22940095Y35967809D01*
X22940095Y36215428D01*
X22878190Y36339238D01*
X22816285Y36401142D01*
X22692476Y36463047D01*
X22444857Y36463047D01*
X22321047Y36401142D01*
X22259142Y36339238D01*
X22197238Y36215428D01*
X21640095Y36834476D02*
X22940095Y37267809D01*
X21640095Y37701142D01*
X20774571Y16398000D02*
X20650761Y16459904D01*
X20465047Y16459904D01*
X20279333Y16398000D01*
X20155523Y16274190D01*
X20093619Y16150380D01*
X20031714Y15902761D01*
X20031714Y15717047D01*
X20093619Y15469428D01*
X20155523Y15345619D01*
X20279333Y15221809D01*
X20465047Y15159904D01*
X20588857Y15159904D01*
X20774571Y15221809D01*
X20836476Y15283714D01*
X20836476Y15717047D01*
X20588857Y15717047D01*
X21393619Y15159904D02*
X21393619Y16459904D01*
X22136476Y15159904D01*
X22136476Y16459904D01*
X22755523Y15159904D02*
X22755523Y16459904D01*
X23065047Y16459904D01*
X23250761Y16398000D01*
X23374571Y16274190D01*
X23436476Y16150380D01*
X23498380Y15902761D01*
X23498380Y15717047D01*
X23436476Y15469428D01*
X23374571Y15345619D01*
X23250761Y15221809D01*
X23065047Y15159904D01*
X22755523Y15159904D01*
X20588857Y18999904D02*
X20836476Y18999904D01*
X20960285Y18938000D01*
X21084095Y18814190D01*
X21146000Y18566571D01*
X21146000Y18133238D01*
X21084095Y17885619D01*
X20960285Y17761809D01*
X20836476Y17699904D01*
X20588857Y17699904D01*
X20465047Y17761809D01*
X20341238Y17885619D01*
X20279333Y18133238D01*
X20279333Y18566571D01*
X20341238Y18814190D01*
X20465047Y18938000D01*
X20588857Y18999904D01*
X21703142Y18999904D02*
X21703142Y17947523D01*
X21765047Y17823714D01*
X21826952Y17761809D01*
X21950761Y17699904D01*
X22198380Y17699904D01*
X22322190Y17761809D01*
X22384095Y17823714D01*
X22446000Y17947523D01*
X22446000Y18999904D01*
X22879333Y18999904D02*
X23622190Y18999904D01*
X23250761Y17699904D02*
X23250761Y18999904D01*
X20093619Y21106571D02*
X21022190Y21106571D01*
X20465047Y21663714D02*
X20093619Y19992285D01*
X20898380Y20549428D02*
X19969809Y20549428D01*
X20526952Y19992285D02*
X20898380Y21663714D01*
X21455523Y20239904D02*
X21455523Y21539904D01*
X21950761Y21539904D01*
X22074571Y21478000D01*
X22136476Y21416095D01*
X22198380Y21292285D01*
X22198380Y21106571D01*
X22136476Y20982761D01*
X22074571Y20920857D01*
X21950761Y20858952D01*
X21455523Y20858952D01*
X22755523Y20239904D02*
X22755523Y21539904D01*
X23065047Y21539904D01*
X23250761Y21478000D01*
X23374571Y21354190D01*
X23436476Y21230380D01*
X23498380Y20982761D01*
X23498380Y20797047D01*
X23436476Y20549428D01*
X23374571Y20425619D01*
X23250761Y20301809D01*
X23065047Y20239904D01*
X22755523Y20239904D01*
X17122190Y22779904D02*
X17122190Y24079904D01*
X17431714Y24079904D01*
X17617428Y24018000D01*
X17741238Y23894190D01*
X17803142Y23770380D01*
X17865047Y23522761D01*
X17865047Y23337047D01*
X17803142Y23089428D01*
X17741238Y22965619D01*
X17617428Y22841809D01*
X17431714Y22779904D01*
X17122190Y22779904D01*
X18422190Y22779904D02*
X18422190Y24079904D01*
X19784095Y22779904D02*
X19350761Y23398952D01*
X19041238Y22779904D02*
X19041238Y24079904D01*
X19536476Y24079904D01*
X19660285Y24018000D01*
X19722190Y23956095D01*
X19784095Y23832285D01*
X19784095Y23646571D01*
X19722190Y23522761D01*
X19660285Y23460857D01*
X19536476Y23398952D01*
X19041238Y23398952D01*
X20588857Y24079904D02*
X20836476Y24079904D01*
X20960285Y24018000D01*
X21084095Y23894190D01*
X21146000Y23646571D01*
X21146000Y23213238D01*
X21084095Y22965619D01*
X20960285Y22841809D01*
X20836476Y22779904D01*
X20588857Y22779904D01*
X20465047Y22841809D01*
X20341238Y22965619D01*
X20279333Y23213238D01*
X20279333Y23646571D01*
X20341238Y23894190D01*
X20465047Y24018000D01*
X20588857Y24079904D01*
X21703142Y24079904D02*
X21703142Y23027523D01*
X21765047Y22903714D01*
X21826952Y22841809D01*
X21950761Y22779904D01*
X22198380Y22779904D01*
X22322190Y22841809D01*
X22384095Y22903714D01*
X22446000Y23027523D01*
X22446000Y24079904D01*
X22879333Y24079904D02*
X23622190Y24079904D01*
X23250761Y22779904D02*
X23250761Y24079904D01*
D11*
X8491509Y18529300D02*
G75*
G03X8491509Y18529300I-401609J0D01*
G01*
X6660000Y16820000D02*
X6660000Y22520000D01*
X13660000Y16820000D02*
X7960000Y16820000D01*
X13660000Y23820000D02*
X13660000Y18120000D01*
X6660000Y23820000D02*
X12360000Y23820000D01*
X23876000Y1270000D02*
X23876000Y3810000D01*
X28956000Y1270000D02*
X23876000Y1270000D01*
X28956000Y3810000D02*
X28956000Y1270000D01*
X23876000Y3810000D02*
X28956000Y3810000D01*
X28956000Y6350000D02*
X28956000Y3810000D01*
X23876000Y6350000D02*
X28956000Y6350000D01*
X23876000Y3810000D02*
X23876000Y6350000D01*
X28956000Y3810000D02*
X23876000Y3810000D01*
X28956000Y8890000D02*
X28956000Y6350000D01*
X23876000Y8890000D02*
X28956000Y8890000D01*
X23876000Y6350000D02*
X23876000Y8890000D01*
X28956000Y6350000D02*
X23876000Y6350000D01*
X23876000Y14478000D02*
X23876000Y17018000D01*
X28956000Y14478000D02*
X23876000Y14478000D01*
X28956000Y17018000D02*
X28956000Y14478000D01*
X23876000Y17018000D02*
X28956000Y17018000D01*
X23876000Y17018000D02*
X23876000Y19558000D01*
X28956000Y17018000D02*
X23876000Y17018000D01*
X28956000Y19558000D02*
X28956000Y17018000D01*
X23876000Y19558000D02*
X28956000Y19558000D01*
X23876000Y19558000D02*
X23876000Y22098000D01*
X28956000Y19558000D02*
X23876000Y19558000D01*
X28956000Y22098000D02*
X28956000Y19558000D01*
X23876000Y22098000D02*
X28956000Y22098000D01*
X23876000Y22098000D02*
X23876000Y24638000D01*
X28956000Y22098000D02*
X23876000Y22098000D01*
X28956000Y24638000D02*
X28956000Y22098000D01*
X23876000Y24638000D02*
X28956000Y24638000D01*
X23876000Y31750000D02*
X23876000Y34290000D01*
X28956000Y31750000D02*
X23876000Y31750000D01*
X28956000Y34290000D02*
X28956000Y31750000D01*
X23876000Y34290000D02*
X28956000Y34290000D01*
X23876000Y34290000D02*
X23876000Y36830000D01*
X28956000Y34290000D02*
X23876000Y34290000D01*
X28956000Y36830000D02*
X28956000Y34290000D01*
X23876000Y36830000D02*
X28956000Y36830000D01*
X23876000Y36830000D02*
X23876000Y39370000D01*
X28956000Y36830000D02*
X23876000Y36830000D01*
X28956000Y39370000D02*
X28956000Y36830000D01*
X23876000Y39370000D02*
X28956000Y39370000D01*
X9398095Y20367619D02*
X9398095Y19558095D01*
X9445714Y19462857D01*
X9493333Y19415238D01*
X9588571Y19367619D01*
X9779047Y19367619D01*
X9874285Y19415238D01*
X9921904Y19462857D01*
X9969523Y19558095D01*
X9969523Y20367619D01*
X10969523Y19367619D02*
X10398095Y19367619D01*
X10683809Y19367619D02*
X10683809Y20367619D01*
X10588571Y20224761D01*
X10493333Y20129523D01*
X10398095Y20081904D01*
M02*
