M48
; DRILL file {KiCad (6.0.0-rc1-dev-1606-g4cd41e394)} date 20.02.2019 22:55:45
; FORMAT={3:3/ absolute / metric / suppress leading zeros}
; #@! TF.CreationDate,2019-02-20T22:55:45+01:00
; #@! TF.GenerationSoftware,Kicad,Pcbnew,(6.0.0-rc1-dev-1606-g4cd41e394)
FMAT,2
METRIC,TZ
T1C0.400
T2C0.889
T3C3.000
%
G90
G05
T1
X5588Y10160
X7112Y30988
X7112Y29464
X7112Y27432
X7112Y25908
X7112Y10160
X7620Y15748
X8128Y24892
X8636Y13208
X8636Y10160
X9144Y33020
X10160Y13208
X10160Y10160
X10668Y33020
X11176Y28956
X11684Y10160
X12700Y24892
X12700Y11684
X13208Y10160
X14224Y18288
X14732Y25400
X14732Y22860
X14732Y20828
X16256Y23368
X16256Y16256
X17272Y16285
X17780Y20320
X17780Y14224
X18288Y23368
X19304Y38100
X19304Y36068
X19304Y34544
X19304Y32512
X19812Y23368
X20320Y19812
X20828Y38100
X22860Y38100
X22860Y16256
X22860Y14732
X22860Y13208
X24384Y13208
X25908Y30988
X25908Y29464
X25908Y27432
X25908Y25908
X25908Y13208
X27432Y13208
X27940Y30988
X27940Y29464
X27940Y27432
X27940Y25908
T2
X25146Y15748
X27686Y15748
X25146Y33020
X27686Y33020
X25146Y38100
X27686Y38100
X25146Y23368
X27686Y23368
X25146Y18288
X27686Y18288
X25146Y2540
X27686Y2540
X25146Y20828
X27686Y20828
X25146Y7620
X27686Y7620
X25146Y35560
X27686Y35560
X25146Y5080
X27686Y5080
T3
X5080Y35560
X15240Y5080
X15240Y35560
X5080Y5080
T0
M30
