G04 #@! TF.GenerationSoftware,KiCad,Pcbnew,(6.0.0-rc1-dev-1606-g4cd41e394)*
G04 #@! TF.CreationDate,2019-02-20T22:55:41+01:00
G04 #@! TF.ProjectId,AIRDOSC01A_PCB01A,41495244-4f53-4433-9031-415f50434230,rev?*
G04 #@! TF.SameCoordinates,Original*
G04 #@! TF.FileFunction,Copper,L1,Top*
G04 #@! TF.FilePolarity,Positive*
%FSLAX46Y46*%
G04 Gerber Fmt 4.6, Leading zero omitted, Abs format (unit mm)*
G04 Created by KiCad (PCBNEW (6.0.0-rc1-dev-1606-g4cd41e394)) date 20.02.2019 22:55:41*
%MOMM*%
%LPD*%
G04 APERTURE LIST*
%ADD10C,0.600000*%
%ADD11C,1.300000*%
%ADD12R,1.524000X1.524000*%
%ADD13C,6.000000*%
%ADD14C,0.800000*%
%ADD15C,0.500000*%
%ADD16C,0.400000*%
%ADD17C,0.254000*%
G04 APERTURE END LIST*
D10*
X7160000Y23170000D03*
D11*
G36*
X6610000Y23470000D02*
G01*
X7710000Y23470000D01*
X7710000Y22870000D01*
X6610000Y22870000D01*
X6610000Y23470000D01*
X6610000Y23470000D01*
G37*
D10*
X13010000Y23320000D03*
D11*
G36*
X13310000Y23870000D02*
G01*
X13310000Y22770000D01*
X12710000Y22770000D01*
X12710000Y23870000D01*
X13310000Y23870000D01*
X13310000Y23870000D01*
G37*
D10*
X13160000Y17470000D03*
D11*
G36*
X13710000Y17170000D02*
G01*
X12610000Y17170000D01*
X12610000Y17770000D01*
X13710000Y17770000D01*
X13710000Y17170000D01*
X13710000Y17170000D01*
G37*
D10*
X7310000Y17320000D03*
D11*
G36*
X7010000Y16770000D02*
G01*
X7010000Y17870000D01*
X7610000Y17870000D01*
X7610000Y16770000D01*
X7010000Y16770000D01*
X7010000Y16770000D01*
G37*
D12*
X27686000Y2540000D03*
X25146000Y2540000D03*
X25146000Y5080000D03*
X27686000Y5080000D03*
X25146000Y7620000D03*
X27686000Y7620000D03*
X27686000Y15748000D03*
X25146000Y15748000D03*
X27686000Y18288000D03*
X25146000Y18288000D03*
X27686000Y20828000D03*
X25146000Y20828000D03*
X27686000Y23368000D03*
X25146000Y23368000D03*
X27686000Y33020000D03*
X25146000Y33020000D03*
X27686000Y35560000D03*
X25146000Y35560000D03*
X27686000Y38100000D03*
X25146000Y38100000D03*
D13*
X15240000Y5080000D03*
X15240000Y35560000D03*
X5080000Y5080000D03*
X5080000Y35560000D03*
D14*
X17272000Y16284502D03*
X13208000Y10160000D03*
X11684000Y10160000D03*
X10160000Y10160000D03*
X8636000Y10160000D03*
X7112000Y10160000D03*
X5588000Y10160000D03*
X22860000Y13208000D03*
X22860000Y14732000D03*
X27432000Y13208000D03*
X25908000Y13208000D03*
X24384000Y13208000D03*
X7112000Y27432000D03*
X7112000Y25908000D03*
X8128000Y24892000D03*
X19304000Y32512000D03*
X19304000Y34544000D03*
X19304000Y36068000D03*
X19304000Y38100000D03*
X19812000Y23368000D03*
X18288000Y23368000D03*
X16256000Y23368000D03*
X22860000Y16256000D03*
X7112000Y29464000D03*
X7112000Y30988000D03*
X20320000Y19812000D03*
X8636000Y13208000D03*
X10160000Y13208000D03*
X12700000Y11684000D03*
X25908000Y25908000D03*
X25908000Y27432000D03*
X25908000Y29464000D03*
X27940000Y29464000D03*
X27940000Y27432000D03*
X27940000Y25908000D03*
X9144000Y33020000D03*
X10668000Y33020000D03*
X14732000Y22860000D03*
X20828000Y38100000D03*
X22860000Y38100000D03*
X25908000Y30988000D03*
X27940000Y30988000D03*
X14732000Y25400000D03*
X11176000Y28956000D03*
X12700000Y24892000D03*
X14732000Y20828000D03*
X7620000Y15748000D03*
X17780000Y14224000D03*
X14224000Y18288000D03*
X16256000Y16256000D03*
X17780000Y20320000D03*
D15*
X13208000Y10160000D02*
X11684000Y10160000D01*
X10160000Y10160000D02*
X8636000Y10160000D01*
X7112000Y10160000D02*
X5588000Y10160000D01*
X22860000Y13208000D02*
X22860000Y14732000D01*
X27432000Y13208000D02*
X25908000Y13208000D01*
X7112000Y27432000D02*
X7112000Y25908000D01*
X19304000Y32512000D02*
X19304000Y34544000D01*
X19304000Y36068000D02*
X19304000Y38100000D01*
X19812000Y23368000D02*
X18288000Y23368000D01*
X7112000Y29464000D02*
X7112000Y30988000D01*
D16*
X13010000Y23320000D02*
X13010000Y24582000D01*
X13010000Y24582000D02*
X12700000Y24892000D01*
D15*
X22860000Y23368000D02*
X25146000Y23368000D01*
X20719999Y21227999D02*
X22860000Y23368000D01*
X15131999Y21227999D02*
X20719999Y21227999D01*
X14732000Y20828000D02*
X15131999Y21227999D01*
X7310000Y17320000D02*
X7310000Y16058000D01*
X7310000Y16058000D02*
X7620000Y15748000D01*
X25146000Y18288000D02*
X27686000Y18288000D01*
X21844000Y18288000D02*
X25146000Y18288000D01*
X17780000Y14224000D02*
X21844000Y18288000D01*
X13160000Y17470000D02*
X13406000Y17470000D01*
X13406000Y17470000D02*
X14224000Y18288000D01*
X16256000Y16256000D02*
X16256000Y18796000D01*
X16256000Y18796000D02*
X17780000Y20320000D01*
D17*
G36*
X29516000Y964000D02*
G01*
X950247Y964000D01*
X950696Y2254250D01*
X23749000Y2254250D01*
X23749000Y1715458D01*
X23773403Y1592777D01*
X23821270Y1477215D01*
X23890763Y1373211D01*
X23979211Y1284763D01*
X24083215Y1215270D01*
X24198777Y1167403D01*
X24321458Y1143000D01*
X24860250Y1143000D01*
X25019000Y1301750D01*
X25019000Y2413000D01*
X25273000Y2413000D01*
X25273000Y1301750D01*
X25431750Y1143000D01*
X25970542Y1143000D01*
X26093223Y1167403D01*
X26208785Y1215270D01*
X26312789Y1284763D01*
X26401237Y1373211D01*
X26416000Y1395305D01*
X26430763Y1373211D01*
X26519211Y1284763D01*
X26623215Y1215270D01*
X26738777Y1167403D01*
X26861458Y1143000D01*
X27400250Y1143000D01*
X27559000Y1301750D01*
X27559000Y2413000D01*
X27813000Y2413000D01*
X27813000Y1301750D01*
X27971750Y1143000D01*
X28510542Y1143000D01*
X28633223Y1167403D01*
X28748785Y1215270D01*
X28852789Y1284763D01*
X28941237Y1373211D01*
X29010730Y1477215D01*
X29058597Y1592777D01*
X29083000Y1715458D01*
X29083000Y2254250D01*
X28924250Y2413000D01*
X27813000Y2413000D01*
X27559000Y2413000D01*
X26447750Y2413000D01*
X26416000Y2381250D01*
X26384250Y2413000D01*
X25273000Y2413000D01*
X25019000Y2413000D01*
X23907750Y2413000D01*
X23749000Y2254250D01*
X950696Y2254250D01*
X951948Y5842000D01*
X23745928Y5842000D01*
X23745928Y4318000D01*
X23758188Y4193518D01*
X23794498Y4073820D01*
X23853463Y3963506D01*
X23932815Y3866815D01*
X24001713Y3810272D01*
X23979211Y3795237D01*
X23890763Y3706789D01*
X23821270Y3602785D01*
X23773403Y3487223D01*
X23749000Y3364542D01*
X23749000Y2825750D01*
X23907750Y2667000D01*
X25019000Y2667000D01*
X25019000Y2687000D01*
X25273000Y2687000D01*
X25273000Y2667000D01*
X26384250Y2667000D01*
X26416000Y2698750D01*
X26447750Y2667000D01*
X27559000Y2667000D01*
X27559000Y2687000D01*
X27813000Y2687000D01*
X27813000Y2667000D01*
X28924250Y2667000D01*
X29083000Y2825750D01*
X29083000Y3364542D01*
X29058597Y3487223D01*
X29010730Y3602785D01*
X28941237Y3706789D01*
X28852789Y3795237D01*
X28830287Y3810272D01*
X28899185Y3866815D01*
X28978537Y3963506D01*
X29037502Y4073820D01*
X29073812Y4193518D01*
X29086072Y4318000D01*
X29086072Y5842000D01*
X29073812Y5966482D01*
X29037502Y6086180D01*
X28978537Y6196494D01*
X28899185Y6293185D01*
X28830287Y6349728D01*
X28852789Y6364763D01*
X28941237Y6453211D01*
X29010730Y6557215D01*
X29058597Y6672777D01*
X29083000Y6795458D01*
X29083000Y7334250D01*
X28924250Y7493000D01*
X27813000Y7493000D01*
X27813000Y7473000D01*
X27559000Y7473000D01*
X27559000Y7493000D01*
X26447750Y7493000D01*
X26416000Y7461250D01*
X26384250Y7493000D01*
X25273000Y7493000D01*
X25273000Y7473000D01*
X25019000Y7473000D01*
X25019000Y7493000D01*
X23907750Y7493000D01*
X23749000Y7334250D01*
X23749000Y6795458D01*
X23773403Y6672777D01*
X23821270Y6557215D01*
X23890763Y6453211D01*
X23979211Y6364763D01*
X24001713Y6349728D01*
X23932815Y6293185D01*
X23853463Y6196494D01*
X23794498Y6086180D01*
X23758188Y5966482D01*
X23745928Y5842000D01*
X951948Y5842000D01*
X952855Y8444542D01*
X23749000Y8444542D01*
X23749000Y7905750D01*
X23907750Y7747000D01*
X25019000Y7747000D01*
X25019000Y8858250D01*
X25273000Y8858250D01*
X25273000Y7747000D01*
X26384250Y7747000D01*
X26416000Y7778750D01*
X26447750Y7747000D01*
X27559000Y7747000D01*
X27559000Y8858250D01*
X27813000Y8858250D01*
X27813000Y7747000D01*
X28924250Y7747000D01*
X29083000Y7905750D01*
X29083000Y8444542D01*
X29058597Y8567223D01*
X29010730Y8682785D01*
X28941237Y8786789D01*
X28852789Y8875237D01*
X28748785Y8944730D01*
X28633223Y8992597D01*
X28510542Y9017000D01*
X27971750Y9017000D01*
X27813000Y8858250D01*
X27559000Y8858250D01*
X27400250Y9017000D01*
X26861458Y9017000D01*
X26738777Y8992597D01*
X26623215Y8944730D01*
X26519211Y8875237D01*
X26430763Y8786789D01*
X26416000Y8764695D01*
X26401237Y8786789D01*
X26312789Y8875237D01*
X26208785Y8944730D01*
X26093223Y8992597D01*
X25970542Y9017000D01*
X25431750Y9017000D01*
X25273000Y8858250D01*
X25019000Y8858250D01*
X24860250Y9017000D01*
X24321458Y9017000D01*
X24198777Y8992597D01*
X24083215Y8944730D01*
X23979211Y8875237D01*
X23890763Y8786789D01*
X23821270Y8682785D01*
X23773403Y8567223D01*
X23749000Y8444542D01*
X952855Y8444542D01*
X956144Y17870000D01*
X6371928Y17870000D01*
X6371928Y16770000D01*
X6384188Y16645518D01*
X6420498Y16525820D01*
X6425001Y16517396D01*
X6425001Y16101478D01*
X6420719Y16058000D01*
X6437805Y15884510D01*
X6488412Y15717687D01*
X6570590Y15563941D01*
X6611170Y15514494D01*
X6624774Y15446102D01*
X6702795Y15257744D01*
X6816063Y15088226D01*
X6960226Y14944063D01*
X7129744Y14830795D01*
X7318102Y14752774D01*
X7518061Y14713000D01*
X7721939Y14713000D01*
X7921898Y14752774D01*
X8110256Y14830795D01*
X8279774Y14944063D01*
X8423937Y15088226D01*
X8537205Y15257744D01*
X8615226Y15446102D01*
X8655000Y15646061D01*
X8655000Y15849939D01*
X8615226Y16049898D01*
X8537205Y16238256D01*
X8423937Y16407774D01*
X8279774Y16551937D01*
X8219618Y16592132D01*
X8235812Y16645518D01*
X8248072Y16770000D01*
X8248072Y17770000D01*
X11971928Y17770000D01*
X11971928Y17170000D01*
X11984188Y17045518D01*
X12020498Y16925820D01*
X12079463Y16815506D01*
X12158815Y16718815D01*
X12255506Y16639463D01*
X12365820Y16580498D01*
X12485518Y16544188D01*
X12610000Y16531928D01*
X13710000Y16531928D01*
X13834482Y16544188D01*
X13954180Y16580498D01*
X14064494Y16639463D01*
X14161185Y16718815D01*
X14240537Y16815506D01*
X14299502Y16925820D01*
X14335812Y17045518D01*
X14347033Y17159455D01*
X14469044Y17281465D01*
X14525898Y17292774D01*
X14714256Y17370795D01*
X14883774Y17484063D01*
X15027937Y17628226D01*
X15141205Y17797744D01*
X15219226Y17986102D01*
X15259000Y18186061D01*
X15259000Y18389939D01*
X15219226Y18589898D01*
X15141205Y18778256D01*
X15027937Y18947774D01*
X14883774Y19091937D01*
X14714256Y19205205D01*
X14525898Y19283226D01*
X14325939Y19323000D01*
X14122061Y19323000D01*
X13922102Y19283226D01*
X13733744Y19205205D01*
X13564226Y19091937D01*
X13420063Y18947774D01*
X13306795Y18778256D01*
X13228774Y18589898D01*
X13217465Y18533044D01*
X13092494Y18408072D01*
X12610000Y18408072D01*
X12485518Y18395812D01*
X12365820Y18359502D01*
X12255506Y18300537D01*
X12158815Y18221185D01*
X12079463Y18124494D01*
X12020498Y18014180D01*
X11984188Y17894482D01*
X11971928Y17770000D01*
X8248072Y17770000D01*
X8248072Y17870000D01*
X8235812Y17994482D01*
X8199502Y18114180D01*
X8140537Y18224494D01*
X8061185Y18321185D01*
X7964494Y18400537D01*
X7854180Y18459502D01*
X7734482Y18495812D01*
X7610000Y18508072D01*
X7010000Y18508072D01*
X6885518Y18495812D01*
X6765820Y18459502D01*
X6655506Y18400537D01*
X6558815Y18321185D01*
X6479463Y18224494D01*
X6420498Y18114180D01*
X6384188Y17994482D01*
X6371928Y17870000D01*
X956144Y17870000D01*
X957211Y20929939D01*
X13697000Y20929939D01*
X13697000Y20726061D01*
X13736774Y20526102D01*
X13814795Y20337744D01*
X13928063Y20168226D01*
X14072226Y20024063D01*
X14241744Y19910795D01*
X14430102Y19832774D01*
X14630061Y19793000D01*
X14833939Y19793000D01*
X15033898Y19832774D01*
X15222256Y19910795D01*
X15391774Y20024063D01*
X15535937Y20168226D01*
X15649205Y20337744D01*
X15651382Y20342999D01*
X16551420Y20342999D01*
X15660951Y19452529D01*
X15627184Y19424817D01*
X15599471Y19391049D01*
X15599468Y19391046D01*
X15516590Y19290059D01*
X15434412Y19136313D01*
X15383805Y18969490D01*
X15366719Y18796000D01*
X15371001Y18752521D01*
X15371000Y16794455D01*
X15338795Y16746256D01*
X15260774Y16557898D01*
X15221000Y16357939D01*
X15221000Y16154061D01*
X15260774Y15954102D01*
X15338795Y15765744D01*
X15452063Y15596226D01*
X15596226Y15452063D01*
X15765744Y15338795D01*
X15954102Y15260774D01*
X16154061Y15221000D01*
X16357939Y15221000D01*
X16557898Y15260774D01*
X16746256Y15338795D01*
X16915774Y15452063D01*
X17059937Y15596226D01*
X17173205Y15765744D01*
X17251226Y15954102D01*
X17291000Y16154061D01*
X17291000Y16357939D01*
X17251226Y16557898D01*
X17173205Y16746256D01*
X17141000Y16794454D01*
X17141000Y18429422D01*
X18025044Y19313465D01*
X18081898Y19324774D01*
X18270256Y19402795D01*
X18439774Y19516063D01*
X18583937Y19660226D01*
X18697205Y19829744D01*
X18775226Y20018102D01*
X18815000Y20218061D01*
X18815000Y20342999D01*
X20676530Y20342999D01*
X20719999Y20338718D01*
X20763468Y20342999D01*
X20763476Y20342999D01*
X20893489Y20355804D01*
X21060312Y20406410D01*
X21214058Y20488588D01*
X21348816Y20599182D01*
X21376533Y20632955D01*
X23226579Y22483000D01*
X23758042Y22483000D01*
X23758188Y22481518D01*
X23794498Y22361820D01*
X23853463Y22251506D01*
X23932815Y22154815D01*
X24002044Y22098000D01*
X23932815Y22041185D01*
X23853463Y21944494D01*
X23794498Y21834180D01*
X23758188Y21714482D01*
X23745928Y21590000D01*
X23745928Y20066000D01*
X23758188Y19941518D01*
X23794498Y19821820D01*
X23853463Y19711506D01*
X23932815Y19614815D01*
X24002044Y19558000D01*
X23932815Y19501185D01*
X23853463Y19404494D01*
X23794498Y19294180D01*
X23758188Y19174482D01*
X23758042Y19173000D01*
X21887469Y19173000D01*
X21844000Y19177281D01*
X21800531Y19173000D01*
X21800523Y19173000D01*
X21685306Y19161652D01*
X21670509Y19160195D01*
X21619903Y19144843D01*
X21503687Y19109589D01*
X21392203Y19050000D01*
X21349941Y19027411D01*
X21248953Y18944532D01*
X21248951Y18944530D01*
X21215183Y18916817D01*
X21187470Y18883049D01*
X17534957Y15230535D01*
X17478102Y15219226D01*
X17289744Y15141205D01*
X17120226Y15027937D01*
X16976063Y14883774D01*
X16862795Y14714256D01*
X16784774Y14525898D01*
X16745000Y14325939D01*
X16745000Y14122061D01*
X16784774Y13922102D01*
X16862795Y13733744D01*
X16976063Y13564226D01*
X17120226Y13420063D01*
X17289744Y13306795D01*
X17478102Y13228774D01*
X17678061Y13189000D01*
X17881939Y13189000D01*
X18081898Y13228774D01*
X18270256Y13306795D01*
X18439774Y13420063D01*
X18583937Y13564226D01*
X18697205Y13733744D01*
X18775226Y13922102D01*
X18786535Y13978957D01*
X20269828Y15462250D01*
X23749000Y15462250D01*
X23749000Y14923458D01*
X23773403Y14800777D01*
X23821270Y14685215D01*
X23890763Y14581211D01*
X23979211Y14492763D01*
X24083215Y14423270D01*
X24198777Y14375403D01*
X24321458Y14351000D01*
X24860250Y14351000D01*
X25019000Y14509750D01*
X25019000Y15621000D01*
X25273000Y15621000D01*
X25273000Y14509750D01*
X25431750Y14351000D01*
X25970542Y14351000D01*
X26093223Y14375403D01*
X26208785Y14423270D01*
X26312789Y14492763D01*
X26401237Y14581211D01*
X26416000Y14603305D01*
X26430763Y14581211D01*
X26519211Y14492763D01*
X26623215Y14423270D01*
X26738777Y14375403D01*
X26861458Y14351000D01*
X27400250Y14351000D01*
X27559000Y14509750D01*
X27559000Y15621000D01*
X27813000Y15621000D01*
X27813000Y14509750D01*
X27971750Y14351000D01*
X28510542Y14351000D01*
X28633223Y14375403D01*
X28748785Y14423270D01*
X28852789Y14492763D01*
X28941237Y14581211D01*
X29010730Y14685215D01*
X29058597Y14800777D01*
X29083000Y14923458D01*
X29083000Y15462250D01*
X28924250Y15621000D01*
X27813000Y15621000D01*
X27559000Y15621000D01*
X26447750Y15621000D01*
X26416000Y15589250D01*
X26384250Y15621000D01*
X25273000Y15621000D01*
X25019000Y15621000D01*
X23907750Y15621000D01*
X23749000Y15462250D01*
X20269828Y15462250D01*
X22210579Y17403000D01*
X23758042Y17403000D01*
X23758188Y17401518D01*
X23794498Y17281820D01*
X23853463Y17171506D01*
X23932815Y17074815D01*
X24001713Y17018272D01*
X23979211Y17003237D01*
X23890763Y16914789D01*
X23821270Y16810785D01*
X23773403Y16695223D01*
X23749000Y16572542D01*
X23749000Y16033750D01*
X23907750Y15875000D01*
X25019000Y15875000D01*
X25019000Y15895000D01*
X25273000Y15895000D01*
X25273000Y15875000D01*
X26384250Y15875000D01*
X26416000Y15906750D01*
X26447750Y15875000D01*
X27559000Y15875000D01*
X27559000Y15895000D01*
X27813000Y15895000D01*
X27813000Y15875000D01*
X28924250Y15875000D01*
X29083000Y16033750D01*
X29083000Y16572542D01*
X29058597Y16695223D01*
X29010730Y16810785D01*
X28941237Y16914789D01*
X28852789Y17003237D01*
X28830287Y17018272D01*
X28899185Y17074815D01*
X28978537Y17171506D01*
X29037502Y17281820D01*
X29073812Y17401518D01*
X29086072Y17526000D01*
X29086072Y19050000D01*
X29073812Y19174482D01*
X29037502Y19294180D01*
X28978537Y19404494D01*
X28899185Y19501185D01*
X28829956Y19558000D01*
X28899185Y19614815D01*
X28978537Y19711506D01*
X29037502Y19821820D01*
X29073812Y19941518D01*
X29086072Y20066000D01*
X29086072Y21590000D01*
X29073812Y21714482D01*
X29037502Y21834180D01*
X28978537Y21944494D01*
X28899185Y22041185D01*
X28829956Y22098000D01*
X28899185Y22154815D01*
X28978537Y22251506D01*
X29037502Y22361820D01*
X29073812Y22481518D01*
X29086072Y22606000D01*
X29086072Y24130000D01*
X29073812Y24254482D01*
X29037502Y24374180D01*
X28978537Y24484494D01*
X28899185Y24581185D01*
X28802494Y24660537D01*
X28692180Y24719502D01*
X28572482Y24755812D01*
X28448000Y24768072D01*
X26924000Y24768072D01*
X26799518Y24755812D01*
X26679820Y24719502D01*
X26569506Y24660537D01*
X26472815Y24581185D01*
X26416000Y24511956D01*
X26359185Y24581185D01*
X26262494Y24660537D01*
X26152180Y24719502D01*
X26032482Y24755812D01*
X25908000Y24768072D01*
X24384000Y24768072D01*
X24259518Y24755812D01*
X24139820Y24719502D01*
X24029506Y24660537D01*
X23932815Y24581185D01*
X23853463Y24484494D01*
X23794498Y24374180D01*
X23758188Y24254482D01*
X23758042Y24253000D01*
X22903465Y24253000D01*
X22859999Y24257281D01*
X22816533Y24253000D01*
X22816523Y24253000D01*
X22686510Y24240195D01*
X22519687Y24189589D01*
X22365941Y24107411D01*
X22365939Y24107410D01*
X22365940Y24107410D01*
X22264953Y24024532D01*
X22264951Y24024530D01*
X22231183Y23996817D01*
X22203470Y23963049D01*
X20353421Y22112999D01*
X15175465Y22112999D01*
X15131998Y22117280D01*
X15088532Y22112999D01*
X15088522Y22112999D01*
X14958509Y22100194D01*
X14791686Y22049588D01*
X14637940Y21967410D01*
X14503182Y21856816D01*
X14484494Y21834045D01*
X14430102Y21823226D01*
X14241744Y21745205D01*
X14072226Y21631937D01*
X13928063Y21487774D01*
X13814795Y21318256D01*
X13736774Y21129898D01*
X13697000Y20929939D01*
X957211Y20929939D01*
X958098Y23470000D01*
X5971928Y23470000D01*
X5971928Y22870000D01*
X5984188Y22745518D01*
X6020498Y22625820D01*
X6079463Y22515506D01*
X6158815Y22418815D01*
X6255506Y22339463D01*
X6365820Y22280498D01*
X6485518Y22244188D01*
X6610000Y22231928D01*
X7710000Y22231928D01*
X7834482Y22244188D01*
X7954180Y22280498D01*
X8064494Y22339463D01*
X8161185Y22418815D01*
X8240537Y22515506D01*
X8299502Y22625820D01*
X8335812Y22745518D01*
X8348072Y22870000D01*
X8348072Y23470000D01*
X8335812Y23594482D01*
X8299502Y23714180D01*
X8240537Y23824494D01*
X8161185Y23921185D01*
X8064494Y24000537D01*
X7954180Y24059502D01*
X7834482Y24095812D01*
X7710000Y24108072D01*
X6610000Y24108072D01*
X6485518Y24095812D01*
X6365820Y24059502D01*
X6255506Y24000537D01*
X6158815Y23921185D01*
X6079463Y23824494D01*
X6020498Y23714180D01*
X5984188Y23594482D01*
X5971928Y23470000D01*
X958098Y23470000D01*
X958629Y24993939D01*
X11665000Y24993939D01*
X11665000Y24790061D01*
X11704774Y24590102D01*
X11782795Y24401744D01*
X11896063Y24232226D01*
X12040226Y24088063D01*
X12100382Y24047868D01*
X12084188Y23994482D01*
X12071928Y23870000D01*
X12071928Y22770000D01*
X12084188Y22645518D01*
X12120498Y22525820D01*
X12179463Y22415506D01*
X12258815Y22318815D01*
X12355506Y22239463D01*
X12465820Y22180498D01*
X12585518Y22144188D01*
X12710000Y22131928D01*
X13310000Y22131928D01*
X13434482Y22144188D01*
X13554180Y22180498D01*
X13664494Y22239463D01*
X13761185Y22318815D01*
X13840537Y22415506D01*
X13899502Y22525820D01*
X13935812Y22645518D01*
X13948072Y22770000D01*
X13948072Y23870000D01*
X13935812Y23994482D01*
X13899502Y24114180D01*
X13845000Y24216144D01*
X13845000Y24540985D01*
X13849040Y24582001D01*
X13845000Y24623019D01*
X13832918Y24745689D01*
X13785172Y24903087D01*
X13734046Y24998737D01*
X13695226Y25193898D01*
X13617205Y25382256D01*
X13503937Y25551774D01*
X13359774Y25695937D01*
X13190256Y25809205D01*
X13001898Y25887226D01*
X12801939Y25927000D01*
X12598061Y25927000D01*
X12398102Y25887226D01*
X12209744Y25809205D01*
X12040226Y25695937D01*
X11896063Y25551774D01*
X11782795Y25382256D01*
X11704774Y25193898D01*
X11665000Y24993939D01*
X958629Y24993939D01*
X961329Y32734250D01*
X23749000Y32734250D01*
X23749000Y32195458D01*
X23773403Y32072777D01*
X23821270Y31957215D01*
X23890763Y31853211D01*
X23979211Y31764763D01*
X24083215Y31695270D01*
X24198777Y31647403D01*
X24321458Y31623000D01*
X24860250Y31623000D01*
X25019000Y31781750D01*
X25019000Y32893000D01*
X25273000Y32893000D01*
X25273000Y31781750D01*
X25431750Y31623000D01*
X25970542Y31623000D01*
X26093223Y31647403D01*
X26208785Y31695270D01*
X26312789Y31764763D01*
X26401237Y31853211D01*
X26416000Y31875305D01*
X26430763Y31853211D01*
X26519211Y31764763D01*
X26623215Y31695270D01*
X26738777Y31647403D01*
X26861458Y31623000D01*
X27400250Y31623000D01*
X27559000Y31781750D01*
X27559000Y32893000D01*
X27813000Y32893000D01*
X27813000Y31781750D01*
X27971750Y31623000D01*
X28510542Y31623000D01*
X28633223Y31647403D01*
X28748785Y31695270D01*
X28852789Y31764763D01*
X28941237Y31853211D01*
X29010730Y31957215D01*
X29058597Y32072777D01*
X29083000Y32195458D01*
X29083000Y32734250D01*
X28924250Y32893000D01*
X27813000Y32893000D01*
X27559000Y32893000D01*
X26447750Y32893000D01*
X26416000Y32861250D01*
X26384250Y32893000D01*
X25273000Y32893000D01*
X25019000Y32893000D01*
X23907750Y32893000D01*
X23749000Y32734250D01*
X961329Y32734250D01*
X962581Y36322000D01*
X23745928Y36322000D01*
X23745928Y34798000D01*
X23758188Y34673518D01*
X23794498Y34553820D01*
X23853463Y34443506D01*
X23932815Y34346815D01*
X24001713Y34290272D01*
X23979211Y34275237D01*
X23890763Y34186789D01*
X23821270Y34082785D01*
X23773403Y33967223D01*
X23749000Y33844542D01*
X23749000Y33305750D01*
X23907750Y33147000D01*
X25019000Y33147000D01*
X25019000Y33167000D01*
X25273000Y33167000D01*
X25273000Y33147000D01*
X26384250Y33147000D01*
X26416000Y33178750D01*
X26447750Y33147000D01*
X27559000Y33147000D01*
X27559000Y33167000D01*
X27813000Y33167000D01*
X27813000Y33147000D01*
X28924250Y33147000D01*
X29083000Y33305750D01*
X29083000Y33844542D01*
X29058597Y33967223D01*
X29010730Y34082785D01*
X28941237Y34186789D01*
X28852789Y34275237D01*
X28830287Y34290272D01*
X28899185Y34346815D01*
X28978537Y34443506D01*
X29037502Y34553820D01*
X29073812Y34673518D01*
X29086072Y34798000D01*
X29086072Y36322000D01*
X29073812Y36446482D01*
X29037502Y36566180D01*
X28978537Y36676494D01*
X28899185Y36773185D01*
X28830287Y36829728D01*
X28852789Y36844763D01*
X28941237Y36933211D01*
X29010730Y37037215D01*
X29058597Y37152777D01*
X29083000Y37275458D01*
X29083000Y37814250D01*
X28924250Y37973000D01*
X27813000Y37973000D01*
X27813000Y37953000D01*
X27559000Y37953000D01*
X27559000Y37973000D01*
X26447750Y37973000D01*
X26416000Y37941250D01*
X26384250Y37973000D01*
X25273000Y37973000D01*
X25273000Y37953000D01*
X25019000Y37953000D01*
X25019000Y37973000D01*
X23907750Y37973000D01*
X23749000Y37814250D01*
X23749000Y37275458D01*
X23773403Y37152777D01*
X23821270Y37037215D01*
X23890763Y36933211D01*
X23979211Y36844763D01*
X24001713Y36829728D01*
X23932815Y36773185D01*
X23853463Y36676494D01*
X23794498Y36566180D01*
X23758188Y36446482D01*
X23745928Y36322000D01*
X962581Y36322000D01*
X963489Y38924542D01*
X23749000Y38924542D01*
X23749000Y38385750D01*
X23907750Y38227000D01*
X25019000Y38227000D01*
X25019000Y39338250D01*
X25273000Y39338250D01*
X25273000Y38227000D01*
X26384250Y38227000D01*
X26416000Y38258750D01*
X26447750Y38227000D01*
X27559000Y38227000D01*
X27559000Y39338250D01*
X27813000Y39338250D01*
X27813000Y38227000D01*
X28924250Y38227000D01*
X29083000Y38385750D01*
X29083000Y38924542D01*
X29058597Y39047223D01*
X29010730Y39162785D01*
X28941237Y39266789D01*
X28852789Y39355237D01*
X28748785Y39424730D01*
X28633223Y39472597D01*
X28510542Y39497000D01*
X27971750Y39497000D01*
X27813000Y39338250D01*
X27559000Y39338250D01*
X27400250Y39497000D01*
X26861458Y39497000D01*
X26738777Y39472597D01*
X26623215Y39424730D01*
X26519211Y39355237D01*
X26430763Y39266789D01*
X26416000Y39244695D01*
X26401237Y39266789D01*
X26312789Y39355237D01*
X26208785Y39424730D01*
X26093223Y39472597D01*
X25970542Y39497000D01*
X25431750Y39497000D01*
X25273000Y39338250D01*
X25019000Y39338250D01*
X24860250Y39497000D01*
X24321458Y39497000D01*
X24198777Y39472597D01*
X24083215Y39424730D01*
X23979211Y39355237D01*
X23890763Y39266789D01*
X23821270Y39162785D01*
X23773403Y39047223D01*
X23749000Y38924542D01*
X963489Y38924542D01*
X963752Y39676000D01*
X29516001Y39676000D01*
X29516000Y964000D01*
X29516000Y964000D01*
G37*
X29516000Y964000D02*
X950247Y964000D01*
X950696Y2254250D01*
X23749000Y2254250D01*
X23749000Y1715458D01*
X23773403Y1592777D01*
X23821270Y1477215D01*
X23890763Y1373211D01*
X23979211Y1284763D01*
X24083215Y1215270D01*
X24198777Y1167403D01*
X24321458Y1143000D01*
X24860250Y1143000D01*
X25019000Y1301750D01*
X25019000Y2413000D01*
X25273000Y2413000D01*
X25273000Y1301750D01*
X25431750Y1143000D01*
X25970542Y1143000D01*
X26093223Y1167403D01*
X26208785Y1215270D01*
X26312789Y1284763D01*
X26401237Y1373211D01*
X26416000Y1395305D01*
X26430763Y1373211D01*
X26519211Y1284763D01*
X26623215Y1215270D01*
X26738777Y1167403D01*
X26861458Y1143000D01*
X27400250Y1143000D01*
X27559000Y1301750D01*
X27559000Y2413000D01*
X27813000Y2413000D01*
X27813000Y1301750D01*
X27971750Y1143000D01*
X28510542Y1143000D01*
X28633223Y1167403D01*
X28748785Y1215270D01*
X28852789Y1284763D01*
X28941237Y1373211D01*
X29010730Y1477215D01*
X29058597Y1592777D01*
X29083000Y1715458D01*
X29083000Y2254250D01*
X28924250Y2413000D01*
X27813000Y2413000D01*
X27559000Y2413000D01*
X26447750Y2413000D01*
X26416000Y2381250D01*
X26384250Y2413000D01*
X25273000Y2413000D01*
X25019000Y2413000D01*
X23907750Y2413000D01*
X23749000Y2254250D01*
X950696Y2254250D01*
X951948Y5842000D01*
X23745928Y5842000D01*
X23745928Y4318000D01*
X23758188Y4193518D01*
X23794498Y4073820D01*
X23853463Y3963506D01*
X23932815Y3866815D01*
X24001713Y3810272D01*
X23979211Y3795237D01*
X23890763Y3706789D01*
X23821270Y3602785D01*
X23773403Y3487223D01*
X23749000Y3364542D01*
X23749000Y2825750D01*
X23907750Y2667000D01*
X25019000Y2667000D01*
X25019000Y2687000D01*
X25273000Y2687000D01*
X25273000Y2667000D01*
X26384250Y2667000D01*
X26416000Y2698750D01*
X26447750Y2667000D01*
X27559000Y2667000D01*
X27559000Y2687000D01*
X27813000Y2687000D01*
X27813000Y2667000D01*
X28924250Y2667000D01*
X29083000Y2825750D01*
X29083000Y3364542D01*
X29058597Y3487223D01*
X29010730Y3602785D01*
X28941237Y3706789D01*
X28852789Y3795237D01*
X28830287Y3810272D01*
X28899185Y3866815D01*
X28978537Y3963506D01*
X29037502Y4073820D01*
X29073812Y4193518D01*
X29086072Y4318000D01*
X29086072Y5842000D01*
X29073812Y5966482D01*
X29037502Y6086180D01*
X28978537Y6196494D01*
X28899185Y6293185D01*
X28830287Y6349728D01*
X28852789Y6364763D01*
X28941237Y6453211D01*
X29010730Y6557215D01*
X29058597Y6672777D01*
X29083000Y6795458D01*
X29083000Y7334250D01*
X28924250Y7493000D01*
X27813000Y7493000D01*
X27813000Y7473000D01*
X27559000Y7473000D01*
X27559000Y7493000D01*
X26447750Y7493000D01*
X26416000Y7461250D01*
X26384250Y7493000D01*
X25273000Y7493000D01*
X25273000Y7473000D01*
X25019000Y7473000D01*
X25019000Y7493000D01*
X23907750Y7493000D01*
X23749000Y7334250D01*
X23749000Y6795458D01*
X23773403Y6672777D01*
X23821270Y6557215D01*
X23890763Y6453211D01*
X23979211Y6364763D01*
X24001713Y6349728D01*
X23932815Y6293185D01*
X23853463Y6196494D01*
X23794498Y6086180D01*
X23758188Y5966482D01*
X23745928Y5842000D01*
X951948Y5842000D01*
X952855Y8444542D01*
X23749000Y8444542D01*
X23749000Y7905750D01*
X23907750Y7747000D01*
X25019000Y7747000D01*
X25019000Y8858250D01*
X25273000Y8858250D01*
X25273000Y7747000D01*
X26384250Y7747000D01*
X26416000Y7778750D01*
X26447750Y7747000D01*
X27559000Y7747000D01*
X27559000Y8858250D01*
X27813000Y8858250D01*
X27813000Y7747000D01*
X28924250Y7747000D01*
X29083000Y7905750D01*
X29083000Y8444542D01*
X29058597Y8567223D01*
X29010730Y8682785D01*
X28941237Y8786789D01*
X28852789Y8875237D01*
X28748785Y8944730D01*
X28633223Y8992597D01*
X28510542Y9017000D01*
X27971750Y9017000D01*
X27813000Y8858250D01*
X27559000Y8858250D01*
X27400250Y9017000D01*
X26861458Y9017000D01*
X26738777Y8992597D01*
X26623215Y8944730D01*
X26519211Y8875237D01*
X26430763Y8786789D01*
X26416000Y8764695D01*
X26401237Y8786789D01*
X26312789Y8875237D01*
X26208785Y8944730D01*
X26093223Y8992597D01*
X25970542Y9017000D01*
X25431750Y9017000D01*
X25273000Y8858250D01*
X25019000Y8858250D01*
X24860250Y9017000D01*
X24321458Y9017000D01*
X24198777Y8992597D01*
X24083215Y8944730D01*
X23979211Y8875237D01*
X23890763Y8786789D01*
X23821270Y8682785D01*
X23773403Y8567223D01*
X23749000Y8444542D01*
X952855Y8444542D01*
X956144Y17870000D01*
X6371928Y17870000D01*
X6371928Y16770000D01*
X6384188Y16645518D01*
X6420498Y16525820D01*
X6425001Y16517396D01*
X6425001Y16101478D01*
X6420719Y16058000D01*
X6437805Y15884510D01*
X6488412Y15717687D01*
X6570590Y15563941D01*
X6611170Y15514494D01*
X6624774Y15446102D01*
X6702795Y15257744D01*
X6816063Y15088226D01*
X6960226Y14944063D01*
X7129744Y14830795D01*
X7318102Y14752774D01*
X7518061Y14713000D01*
X7721939Y14713000D01*
X7921898Y14752774D01*
X8110256Y14830795D01*
X8279774Y14944063D01*
X8423937Y15088226D01*
X8537205Y15257744D01*
X8615226Y15446102D01*
X8655000Y15646061D01*
X8655000Y15849939D01*
X8615226Y16049898D01*
X8537205Y16238256D01*
X8423937Y16407774D01*
X8279774Y16551937D01*
X8219618Y16592132D01*
X8235812Y16645518D01*
X8248072Y16770000D01*
X8248072Y17770000D01*
X11971928Y17770000D01*
X11971928Y17170000D01*
X11984188Y17045518D01*
X12020498Y16925820D01*
X12079463Y16815506D01*
X12158815Y16718815D01*
X12255506Y16639463D01*
X12365820Y16580498D01*
X12485518Y16544188D01*
X12610000Y16531928D01*
X13710000Y16531928D01*
X13834482Y16544188D01*
X13954180Y16580498D01*
X14064494Y16639463D01*
X14161185Y16718815D01*
X14240537Y16815506D01*
X14299502Y16925820D01*
X14335812Y17045518D01*
X14347033Y17159455D01*
X14469044Y17281465D01*
X14525898Y17292774D01*
X14714256Y17370795D01*
X14883774Y17484063D01*
X15027937Y17628226D01*
X15141205Y17797744D01*
X15219226Y17986102D01*
X15259000Y18186061D01*
X15259000Y18389939D01*
X15219226Y18589898D01*
X15141205Y18778256D01*
X15027937Y18947774D01*
X14883774Y19091937D01*
X14714256Y19205205D01*
X14525898Y19283226D01*
X14325939Y19323000D01*
X14122061Y19323000D01*
X13922102Y19283226D01*
X13733744Y19205205D01*
X13564226Y19091937D01*
X13420063Y18947774D01*
X13306795Y18778256D01*
X13228774Y18589898D01*
X13217465Y18533044D01*
X13092494Y18408072D01*
X12610000Y18408072D01*
X12485518Y18395812D01*
X12365820Y18359502D01*
X12255506Y18300537D01*
X12158815Y18221185D01*
X12079463Y18124494D01*
X12020498Y18014180D01*
X11984188Y17894482D01*
X11971928Y17770000D01*
X8248072Y17770000D01*
X8248072Y17870000D01*
X8235812Y17994482D01*
X8199502Y18114180D01*
X8140537Y18224494D01*
X8061185Y18321185D01*
X7964494Y18400537D01*
X7854180Y18459502D01*
X7734482Y18495812D01*
X7610000Y18508072D01*
X7010000Y18508072D01*
X6885518Y18495812D01*
X6765820Y18459502D01*
X6655506Y18400537D01*
X6558815Y18321185D01*
X6479463Y18224494D01*
X6420498Y18114180D01*
X6384188Y17994482D01*
X6371928Y17870000D01*
X956144Y17870000D01*
X957211Y20929939D01*
X13697000Y20929939D01*
X13697000Y20726061D01*
X13736774Y20526102D01*
X13814795Y20337744D01*
X13928063Y20168226D01*
X14072226Y20024063D01*
X14241744Y19910795D01*
X14430102Y19832774D01*
X14630061Y19793000D01*
X14833939Y19793000D01*
X15033898Y19832774D01*
X15222256Y19910795D01*
X15391774Y20024063D01*
X15535937Y20168226D01*
X15649205Y20337744D01*
X15651382Y20342999D01*
X16551420Y20342999D01*
X15660951Y19452529D01*
X15627184Y19424817D01*
X15599471Y19391049D01*
X15599468Y19391046D01*
X15516590Y19290059D01*
X15434412Y19136313D01*
X15383805Y18969490D01*
X15366719Y18796000D01*
X15371001Y18752521D01*
X15371000Y16794455D01*
X15338795Y16746256D01*
X15260774Y16557898D01*
X15221000Y16357939D01*
X15221000Y16154061D01*
X15260774Y15954102D01*
X15338795Y15765744D01*
X15452063Y15596226D01*
X15596226Y15452063D01*
X15765744Y15338795D01*
X15954102Y15260774D01*
X16154061Y15221000D01*
X16357939Y15221000D01*
X16557898Y15260774D01*
X16746256Y15338795D01*
X16915774Y15452063D01*
X17059937Y15596226D01*
X17173205Y15765744D01*
X17251226Y15954102D01*
X17291000Y16154061D01*
X17291000Y16357939D01*
X17251226Y16557898D01*
X17173205Y16746256D01*
X17141000Y16794454D01*
X17141000Y18429422D01*
X18025044Y19313465D01*
X18081898Y19324774D01*
X18270256Y19402795D01*
X18439774Y19516063D01*
X18583937Y19660226D01*
X18697205Y19829744D01*
X18775226Y20018102D01*
X18815000Y20218061D01*
X18815000Y20342999D01*
X20676530Y20342999D01*
X20719999Y20338718D01*
X20763468Y20342999D01*
X20763476Y20342999D01*
X20893489Y20355804D01*
X21060312Y20406410D01*
X21214058Y20488588D01*
X21348816Y20599182D01*
X21376533Y20632955D01*
X23226579Y22483000D01*
X23758042Y22483000D01*
X23758188Y22481518D01*
X23794498Y22361820D01*
X23853463Y22251506D01*
X23932815Y22154815D01*
X24002044Y22098000D01*
X23932815Y22041185D01*
X23853463Y21944494D01*
X23794498Y21834180D01*
X23758188Y21714482D01*
X23745928Y21590000D01*
X23745928Y20066000D01*
X23758188Y19941518D01*
X23794498Y19821820D01*
X23853463Y19711506D01*
X23932815Y19614815D01*
X24002044Y19558000D01*
X23932815Y19501185D01*
X23853463Y19404494D01*
X23794498Y19294180D01*
X23758188Y19174482D01*
X23758042Y19173000D01*
X21887469Y19173000D01*
X21844000Y19177281D01*
X21800531Y19173000D01*
X21800523Y19173000D01*
X21685306Y19161652D01*
X21670509Y19160195D01*
X21619903Y19144843D01*
X21503687Y19109589D01*
X21392203Y19050000D01*
X21349941Y19027411D01*
X21248953Y18944532D01*
X21248951Y18944530D01*
X21215183Y18916817D01*
X21187470Y18883049D01*
X17534957Y15230535D01*
X17478102Y15219226D01*
X17289744Y15141205D01*
X17120226Y15027937D01*
X16976063Y14883774D01*
X16862795Y14714256D01*
X16784774Y14525898D01*
X16745000Y14325939D01*
X16745000Y14122061D01*
X16784774Y13922102D01*
X16862795Y13733744D01*
X16976063Y13564226D01*
X17120226Y13420063D01*
X17289744Y13306795D01*
X17478102Y13228774D01*
X17678061Y13189000D01*
X17881939Y13189000D01*
X18081898Y13228774D01*
X18270256Y13306795D01*
X18439774Y13420063D01*
X18583937Y13564226D01*
X18697205Y13733744D01*
X18775226Y13922102D01*
X18786535Y13978957D01*
X20269828Y15462250D01*
X23749000Y15462250D01*
X23749000Y14923458D01*
X23773403Y14800777D01*
X23821270Y14685215D01*
X23890763Y14581211D01*
X23979211Y14492763D01*
X24083215Y14423270D01*
X24198777Y14375403D01*
X24321458Y14351000D01*
X24860250Y14351000D01*
X25019000Y14509750D01*
X25019000Y15621000D01*
X25273000Y15621000D01*
X25273000Y14509750D01*
X25431750Y14351000D01*
X25970542Y14351000D01*
X26093223Y14375403D01*
X26208785Y14423270D01*
X26312789Y14492763D01*
X26401237Y14581211D01*
X26416000Y14603305D01*
X26430763Y14581211D01*
X26519211Y14492763D01*
X26623215Y14423270D01*
X26738777Y14375403D01*
X26861458Y14351000D01*
X27400250Y14351000D01*
X27559000Y14509750D01*
X27559000Y15621000D01*
X27813000Y15621000D01*
X27813000Y14509750D01*
X27971750Y14351000D01*
X28510542Y14351000D01*
X28633223Y14375403D01*
X28748785Y14423270D01*
X28852789Y14492763D01*
X28941237Y14581211D01*
X29010730Y14685215D01*
X29058597Y14800777D01*
X29083000Y14923458D01*
X29083000Y15462250D01*
X28924250Y15621000D01*
X27813000Y15621000D01*
X27559000Y15621000D01*
X26447750Y15621000D01*
X26416000Y15589250D01*
X26384250Y15621000D01*
X25273000Y15621000D01*
X25019000Y15621000D01*
X23907750Y15621000D01*
X23749000Y15462250D01*
X20269828Y15462250D01*
X22210579Y17403000D01*
X23758042Y17403000D01*
X23758188Y17401518D01*
X23794498Y17281820D01*
X23853463Y17171506D01*
X23932815Y17074815D01*
X24001713Y17018272D01*
X23979211Y17003237D01*
X23890763Y16914789D01*
X23821270Y16810785D01*
X23773403Y16695223D01*
X23749000Y16572542D01*
X23749000Y16033750D01*
X23907750Y15875000D01*
X25019000Y15875000D01*
X25019000Y15895000D01*
X25273000Y15895000D01*
X25273000Y15875000D01*
X26384250Y15875000D01*
X26416000Y15906750D01*
X26447750Y15875000D01*
X27559000Y15875000D01*
X27559000Y15895000D01*
X27813000Y15895000D01*
X27813000Y15875000D01*
X28924250Y15875000D01*
X29083000Y16033750D01*
X29083000Y16572542D01*
X29058597Y16695223D01*
X29010730Y16810785D01*
X28941237Y16914789D01*
X28852789Y17003237D01*
X28830287Y17018272D01*
X28899185Y17074815D01*
X28978537Y17171506D01*
X29037502Y17281820D01*
X29073812Y17401518D01*
X29086072Y17526000D01*
X29086072Y19050000D01*
X29073812Y19174482D01*
X29037502Y19294180D01*
X28978537Y19404494D01*
X28899185Y19501185D01*
X28829956Y19558000D01*
X28899185Y19614815D01*
X28978537Y19711506D01*
X29037502Y19821820D01*
X29073812Y19941518D01*
X29086072Y20066000D01*
X29086072Y21590000D01*
X29073812Y21714482D01*
X29037502Y21834180D01*
X28978537Y21944494D01*
X28899185Y22041185D01*
X28829956Y22098000D01*
X28899185Y22154815D01*
X28978537Y22251506D01*
X29037502Y22361820D01*
X29073812Y22481518D01*
X29086072Y22606000D01*
X29086072Y24130000D01*
X29073812Y24254482D01*
X29037502Y24374180D01*
X28978537Y24484494D01*
X28899185Y24581185D01*
X28802494Y24660537D01*
X28692180Y24719502D01*
X28572482Y24755812D01*
X28448000Y24768072D01*
X26924000Y24768072D01*
X26799518Y24755812D01*
X26679820Y24719502D01*
X26569506Y24660537D01*
X26472815Y24581185D01*
X26416000Y24511956D01*
X26359185Y24581185D01*
X26262494Y24660537D01*
X26152180Y24719502D01*
X26032482Y24755812D01*
X25908000Y24768072D01*
X24384000Y24768072D01*
X24259518Y24755812D01*
X24139820Y24719502D01*
X24029506Y24660537D01*
X23932815Y24581185D01*
X23853463Y24484494D01*
X23794498Y24374180D01*
X23758188Y24254482D01*
X23758042Y24253000D01*
X22903465Y24253000D01*
X22859999Y24257281D01*
X22816533Y24253000D01*
X22816523Y24253000D01*
X22686510Y24240195D01*
X22519687Y24189589D01*
X22365941Y24107411D01*
X22365939Y24107410D01*
X22365940Y24107410D01*
X22264953Y24024532D01*
X22264951Y24024530D01*
X22231183Y23996817D01*
X22203470Y23963049D01*
X20353421Y22112999D01*
X15175465Y22112999D01*
X15131998Y22117280D01*
X15088532Y22112999D01*
X15088522Y22112999D01*
X14958509Y22100194D01*
X14791686Y22049588D01*
X14637940Y21967410D01*
X14503182Y21856816D01*
X14484494Y21834045D01*
X14430102Y21823226D01*
X14241744Y21745205D01*
X14072226Y21631937D01*
X13928063Y21487774D01*
X13814795Y21318256D01*
X13736774Y21129898D01*
X13697000Y20929939D01*
X957211Y20929939D01*
X958098Y23470000D01*
X5971928Y23470000D01*
X5971928Y22870000D01*
X5984188Y22745518D01*
X6020498Y22625820D01*
X6079463Y22515506D01*
X6158815Y22418815D01*
X6255506Y22339463D01*
X6365820Y22280498D01*
X6485518Y22244188D01*
X6610000Y22231928D01*
X7710000Y22231928D01*
X7834482Y22244188D01*
X7954180Y22280498D01*
X8064494Y22339463D01*
X8161185Y22418815D01*
X8240537Y22515506D01*
X8299502Y22625820D01*
X8335812Y22745518D01*
X8348072Y22870000D01*
X8348072Y23470000D01*
X8335812Y23594482D01*
X8299502Y23714180D01*
X8240537Y23824494D01*
X8161185Y23921185D01*
X8064494Y24000537D01*
X7954180Y24059502D01*
X7834482Y24095812D01*
X7710000Y24108072D01*
X6610000Y24108072D01*
X6485518Y24095812D01*
X6365820Y24059502D01*
X6255506Y24000537D01*
X6158815Y23921185D01*
X6079463Y23824494D01*
X6020498Y23714180D01*
X5984188Y23594482D01*
X5971928Y23470000D01*
X958098Y23470000D01*
X958629Y24993939D01*
X11665000Y24993939D01*
X11665000Y24790061D01*
X11704774Y24590102D01*
X11782795Y24401744D01*
X11896063Y24232226D01*
X12040226Y24088063D01*
X12100382Y24047868D01*
X12084188Y23994482D01*
X12071928Y23870000D01*
X12071928Y22770000D01*
X12084188Y22645518D01*
X12120498Y22525820D01*
X12179463Y22415506D01*
X12258815Y22318815D01*
X12355506Y22239463D01*
X12465820Y22180498D01*
X12585518Y22144188D01*
X12710000Y22131928D01*
X13310000Y22131928D01*
X13434482Y22144188D01*
X13554180Y22180498D01*
X13664494Y22239463D01*
X13761185Y22318815D01*
X13840537Y22415506D01*
X13899502Y22525820D01*
X13935812Y22645518D01*
X13948072Y22770000D01*
X13948072Y23870000D01*
X13935812Y23994482D01*
X13899502Y24114180D01*
X13845000Y24216144D01*
X13845000Y24540985D01*
X13849040Y24582001D01*
X13845000Y24623019D01*
X13832918Y24745689D01*
X13785172Y24903087D01*
X13734046Y24998737D01*
X13695226Y25193898D01*
X13617205Y25382256D01*
X13503937Y25551774D01*
X13359774Y25695937D01*
X13190256Y25809205D01*
X13001898Y25887226D01*
X12801939Y25927000D01*
X12598061Y25927000D01*
X12398102Y25887226D01*
X12209744Y25809205D01*
X12040226Y25695937D01*
X11896063Y25551774D01*
X11782795Y25382256D01*
X11704774Y25193898D01*
X11665000Y24993939D01*
X958629Y24993939D01*
X961329Y32734250D01*
X23749000Y32734250D01*
X23749000Y32195458D01*
X23773403Y32072777D01*
X23821270Y31957215D01*
X23890763Y31853211D01*
X23979211Y31764763D01*
X24083215Y31695270D01*
X24198777Y31647403D01*
X24321458Y31623000D01*
X24860250Y31623000D01*
X25019000Y31781750D01*
X25019000Y32893000D01*
X25273000Y32893000D01*
X25273000Y31781750D01*
X25431750Y31623000D01*
X25970542Y31623000D01*
X26093223Y31647403D01*
X26208785Y31695270D01*
X26312789Y31764763D01*
X26401237Y31853211D01*
X26416000Y31875305D01*
X26430763Y31853211D01*
X26519211Y31764763D01*
X26623215Y31695270D01*
X26738777Y31647403D01*
X26861458Y31623000D01*
X27400250Y31623000D01*
X27559000Y31781750D01*
X27559000Y32893000D01*
X27813000Y32893000D01*
X27813000Y31781750D01*
X27971750Y31623000D01*
X28510542Y31623000D01*
X28633223Y31647403D01*
X28748785Y31695270D01*
X28852789Y31764763D01*
X28941237Y31853211D01*
X29010730Y31957215D01*
X29058597Y32072777D01*
X29083000Y32195458D01*
X29083000Y32734250D01*
X28924250Y32893000D01*
X27813000Y32893000D01*
X27559000Y32893000D01*
X26447750Y32893000D01*
X26416000Y32861250D01*
X26384250Y32893000D01*
X25273000Y32893000D01*
X25019000Y32893000D01*
X23907750Y32893000D01*
X23749000Y32734250D01*
X961329Y32734250D01*
X962581Y36322000D01*
X23745928Y36322000D01*
X23745928Y34798000D01*
X23758188Y34673518D01*
X23794498Y34553820D01*
X23853463Y34443506D01*
X23932815Y34346815D01*
X24001713Y34290272D01*
X23979211Y34275237D01*
X23890763Y34186789D01*
X23821270Y34082785D01*
X23773403Y33967223D01*
X23749000Y33844542D01*
X23749000Y33305750D01*
X23907750Y33147000D01*
X25019000Y33147000D01*
X25019000Y33167000D01*
X25273000Y33167000D01*
X25273000Y33147000D01*
X26384250Y33147000D01*
X26416000Y33178750D01*
X26447750Y33147000D01*
X27559000Y33147000D01*
X27559000Y33167000D01*
X27813000Y33167000D01*
X27813000Y33147000D01*
X28924250Y33147000D01*
X29083000Y33305750D01*
X29083000Y33844542D01*
X29058597Y33967223D01*
X29010730Y34082785D01*
X28941237Y34186789D01*
X28852789Y34275237D01*
X28830287Y34290272D01*
X28899185Y34346815D01*
X28978537Y34443506D01*
X29037502Y34553820D01*
X29073812Y34673518D01*
X29086072Y34798000D01*
X29086072Y36322000D01*
X29073812Y36446482D01*
X29037502Y36566180D01*
X28978537Y36676494D01*
X28899185Y36773185D01*
X28830287Y36829728D01*
X28852789Y36844763D01*
X28941237Y36933211D01*
X29010730Y37037215D01*
X29058597Y37152777D01*
X29083000Y37275458D01*
X29083000Y37814250D01*
X28924250Y37973000D01*
X27813000Y37973000D01*
X27813000Y37953000D01*
X27559000Y37953000D01*
X27559000Y37973000D01*
X26447750Y37973000D01*
X26416000Y37941250D01*
X26384250Y37973000D01*
X25273000Y37973000D01*
X25273000Y37953000D01*
X25019000Y37953000D01*
X25019000Y37973000D01*
X23907750Y37973000D01*
X23749000Y37814250D01*
X23749000Y37275458D01*
X23773403Y37152777D01*
X23821270Y37037215D01*
X23890763Y36933211D01*
X23979211Y36844763D01*
X24001713Y36829728D01*
X23932815Y36773185D01*
X23853463Y36676494D01*
X23794498Y36566180D01*
X23758188Y36446482D01*
X23745928Y36322000D01*
X962581Y36322000D01*
X963489Y38924542D01*
X23749000Y38924542D01*
X23749000Y38385750D01*
X23907750Y38227000D01*
X25019000Y38227000D01*
X25019000Y39338250D01*
X25273000Y39338250D01*
X25273000Y38227000D01*
X26384250Y38227000D01*
X26416000Y38258750D01*
X26447750Y38227000D01*
X27559000Y38227000D01*
X27559000Y39338250D01*
X27813000Y39338250D01*
X27813000Y38227000D01*
X28924250Y38227000D01*
X29083000Y38385750D01*
X29083000Y38924542D01*
X29058597Y39047223D01*
X29010730Y39162785D01*
X28941237Y39266789D01*
X28852789Y39355237D01*
X28748785Y39424730D01*
X28633223Y39472597D01*
X28510542Y39497000D01*
X27971750Y39497000D01*
X27813000Y39338250D01*
X27559000Y39338250D01*
X27400250Y39497000D01*
X26861458Y39497000D01*
X26738777Y39472597D01*
X26623215Y39424730D01*
X26519211Y39355237D01*
X26430763Y39266789D01*
X26416000Y39244695D01*
X26401237Y39266789D01*
X26312789Y39355237D01*
X26208785Y39424730D01*
X26093223Y39472597D01*
X25970542Y39497000D01*
X25431750Y39497000D01*
X25273000Y39338250D01*
X25019000Y39338250D01*
X24860250Y39497000D01*
X24321458Y39497000D01*
X24198777Y39472597D01*
X24083215Y39424730D01*
X23979211Y39355237D01*
X23890763Y39266789D01*
X23821270Y39162785D01*
X23773403Y39047223D01*
X23749000Y38924542D01*
X963489Y38924542D01*
X963752Y39676000D01*
X29516001Y39676000D01*
X29516000Y964000D01*
M02*
