G04 #@! TF.GenerationSoftware,KiCad,Pcbnew,(6.0.0-rc1-dev-1606-g4cd41e394)*
G04 #@! TF.CreationDate,2019-02-20T22:55:41+01:00
G04 #@! TF.ProjectId,AIRDOSC01A_PCB01A,41495244-4f53-4433-9031-415f50434230,rev?*
G04 #@! TF.SameCoordinates,Original*
G04 #@! TF.FileFunction,Soldermask,Top*
G04 #@! TF.FilePolarity,Negative*
%FSLAX46Y46*%
G04 Gerber Fmt 4.6, Leading zero omitted, Abs format (unit mm)*
G04 Created by KiCad (PCBNEW (6.0.0-rc1-dev-1606-g4cd41e394)) date 20.02.2019 22:55:41*
%MOMM*%
%LPD*%
G04 APERTURE LIST*
%ADD10C,0.150000*%
%ADD11C,1.300000*%
G04 APERTURE END LIST*
D10*
G36*
X29972000Y508000D02*
G01*
X24384000Y508000D01*
X24384000Y40132000D01*
X29972000Y40132000D01*
X29972000Y508000D01*
G37*
X29972000Y508000D02*
X24384000Y508000D01*
X24384000Y40132000D01*
X29972000Y40132000D01*
X29972000Y508000D01*
D11*
G36*
X28648000Y1578000D02*
G01*
X26724000Y1578000D01*
X26724000Y3502000D01*
X28648000Y3502000D01*
X28648000Y1578000D01*
X28648000Y1578000D01*
G37*
G36*
X26108000Y1578000D02*
G01*
X24184000Y1578000D01*
X24184000Y3502000D01*
X26108000Y3502000D01*
X26108000Y1578000D01*
X26108000Y1578000D01*
G37*
G36*
X6013404Y8157026D02*
G01*
X6595767Y7915804D01*
X6595768Y7915803D01*
X7119881Y7565602D01*
X7565602Y7119881D01*
X7799599Y6769679D01*
X7915804Y6595767D01*
X8157026Y6013404D01*
X8280000Y5395174D01*
X8280000Y4764826D01*
X8157026Y4146596D01*
X7915804Y3564233D01*
X7915803Y3564232D01*
X7565602Y3040119D01*
X7119881Y2594398D01*
X6769679Y2360401D01*
X6595767Y2244196D01*
X6013404Y2002974D01*
X5395174Y1880000D01*
X4764826Y1880000D01*
X4146596Y2002974D01*
X3564233Y2244196D01*
X3390321Y2360401D01*
X3040119Y2594398D01*
X2594398Y3040119D01*
X2244197Y3564232D01*
X2244196Y3564233D01*
X2002974Y4146596D01*
X1880000Y4764826D01*
X1880000Y5395174D01*
X2002974Y6013404D01*
X2244196Y6595767D01*
X2360401Y6769679D01*
X2594398Y7119881D01*
X3040119Y7565602D01*
X3564232Y7915803D01*
X3564233Y7915804D01*
X4146596Y8157026D01*
X4764826Y8280000D01*
X5395174Y8280000D01*
X6013404Y8157026D01*
X6013404Y8157026D01*
G37*
G36*
X16173404Y8157026D02*
G01*
X16755767Y7915804D01*
X16755768Y7915803D01*
X17279881Y7565602D01*
X17725602Y7119881D01*
X17959599Y6769679D01*
X18075804Y6595767D01*
X18317026Y6013404D01*
X18440000Y5395174D01*
X18440000Y4764826D01*
X18317026Y4146596D01*
X18075804Y3564233D01*
X18075803Y3564232D01*
X17725602Y3040119D01*
X17279881Y2594398D01*
X16929679Y2360401D01*
X16755767Y2244196D01*
X16173404Y2002974D01*
X15555174Y1880000D01*
X14924826Y1880000D01*
X14306596Y2002974D01*
X13724233Y2244196D01*
X13550321Y2360401D01*
X13200119Y2594398D01*
X12754398Y3040119D01*
X12404197Y3564232D01*
X12404196Y3564233D01*
X12162974Y4146596D01*
X12040000Y4764826D01*
X12040000Y5395174D01*
X12162974Y6013404D01*
X12404196Y6595767D01*
X12520401Y6769679D01*
X12754398Y7119881D01*
X13200119Y7565602D01*
X13724232Y7915803D01*
X13724233Y7915804D01*
X14306596Y8157026D01*
X14924826Y8280000D01*
X15555174Y8280000D01*
X16173404Y8157026D01*
X16173404Y8157026D01*
G37*
G36*
X28648000Y4118000D02*
G01*
X26724000Y4118000D01*
X26724000Y6042000D01*
X28648000Y6042000D01*
X28648000Y4118000D01*
X28648000Y4118000D01*
G37*
G36*
X26108000Y4118000D02*
G01*
X24184000Y4118000D01*
X24184000Y6042000D01*
X26108000Y6042000D01*
X26108000Y4118000D01*
X26108000Y4118000D01*
G37*
G36*
X26108000Y6658000D02*
G01*
X24184000Y6658000D01*
X24184000Y8582000D01*
X26108000Y8582000D01*
X26108000Y6658000D01*
X26108000Y6658000D01*
G37*
G36*
X28648000Y6658000D02*
G01*
X26724000Y6658000D01*
X26724000Y8582000D01*
X28648000Y8582000D01*
X28648000Y6658000D01*
X28648000Y6658000D01*
G37*
G36*
X28648000Y14786000D02*
G01*
X26724000Y14786000D01*
X26724000Y16710000D01*
X28648000Y16710000D01*
X28648000Y14786000D01*
X28648000Y14786000D01*
G37*
G36*
X26108000Y14786000D02*
G01*
X24184000Y14786000D01*
X24184000Y16710000D01*
X26108000Y16710000D01*
X26108000Y14786000D01*
X26108000Y14786000D01*
G37*
G36*
X7810000Y16570000D02*
G01*
X6810000Y16570000D01*
X6810000Y18070000D01*
X7810000Y18070000D01*
X7810000Y16570000D01*
X7810000Y16570000D01*
G37*
G36*
X13910000Y16970000D02*
G01*
X12410000Y16970000D01*
X12410000Y17970000D01*
X13910000Y17970000D01*
X13910000Y16970000D01*
X13910000Y16970000D01*
G37*
G36*
X28648000Y17326000D02*
G01*
X26724000Y17326000D01*
X26724000Y19250000D01*
X28648000Y19250000D01*
X28648000Y17326000D01*
X28648000Y17326000D01*
G37*
G36*
X26108000Y17326000D02*
G01*
X24184000Y17326000D01*
X24184000Y19250000D01*
X26108000Y19250000D01*
X26108000Y17326000D01*
X26108000Y17326000D01*
G37*
G36*
X26108000Y19866000D02*
G01*
X24184000Y19866000D01*
X24184000Y21790000D01*
X26108000Y21790000D01*
X26108000Y19866000D01*
X26108000Y19866000D01*
G37*
G36*
X28648000Y19866000D02*
G01*
X26724000Y19866000D01*
X26724000Y21790000D01*
X28648000Y21790000D01*
X28648000Y19866000D01*
X28648000Y19866000D01*
G37*
G36*
X28648000Y22406000D02*
G01*
X26724000Y22406000D01*
X26724000Y24330000D01*
X28648000Y24330000D01*
X28648000Y22406000D01*
X28648000Y22406000D01*
G37*
G36*
X26108000Y22406000D02*
G01*
X24184000Y22406000D01*
X24184000Y24330000D01*
X26108000Y24330000D01*
X26108000Y22406000D01*
X26108000Y22406000D01*
G37*
G36*
X13510000Y22570000D02*
G01*
X12510000Y22570000D01*
X12510000Y24070000D01*
X13510000Y24070000D01*
X13510000Y22570000D01*
X13510000Y22570000D01*
G37*
G36*
X7910000Y22670000D02*
G01*
X6410000Y22670000D01*
X6410000Y23670000D01*
X7910000Y23670000D01*
X7910000Y22670000D01*
X7910000Y22670000D01*
G37*
G36*
X28648000Y32058000D02*
G01*
X26724000Y32058000D01*
X26724000Y33982000D01*
X28648000Y33982000D01*
X28648000Y32058000D01*
X28648000Y32058000D01*
G37*
G36*
X26108000Y32058000D02*
G01*
X24184000Y32058000D01*
X24184000Y33982000D01*
X26108000Y33982000D01*
X26108000Y32058000D01*
X26108000Y32058000D01*
G37*
G36*
X6013404Y38637026D02*
G01*
X6595767Y38395804D01*
X6595768Y38395803D01*
X7119881Y38045602D01*
X7565602Y37599881D01*
X7799599Y37249679D01*
X7915804Y37075767D01*
X8157026Y36493404D01*
X8280000Y35875174D01*
X8280000Y35244826D01*
X8157026Y34626596D01*
X7915804Y34044233D01*
X7915803Y34044232D01*
X7565602Y33520119D01*
X7119881Y33074398D01*
X6769679Y32840401D01*
X6595767Y32724196D01*
X6013404Y32482974D01*
X5395174Y32360000D01*
X4764826Y32360000D01*
X4146596Y32482974D01*
X3564233Y32724196D01*
X3390321Y32840401D01*
X3040119Y33074398D01*
X2594398Y33520119D01*
X2244197Y34044232D01*
X2244196Y34044233D01*
X2002974Y34626596D01*
X1880000Y35244826D01*
X1880000Y35875174D01*
X2002974Y36493404D01*
X2244196Y37075767D01*
X2360401Y37249679D01*
X2594398Y37599881D01*
X3040119Y38045602D01*
X3564232Y38395803D01*
X3564233Y38395804D01*
X4146596Y38637026D01*
X4764826Y38760000D01*
X5395174Y38760000D01*
X6013404Y38637026D01*
X6013404Y38637026D01*
G37*
G36*
X16173404Y38637026D02*
G01*
X16755767Y38395804D01*
X16755768Y38395803D01*
X17279881Y38045602D01*
X17725602Y37599881D01*
X17959599Y37249679D01*
X18075804Y37075767D01*
X18317026Y36493404D01*
X18440000Y35875174D01*
X18440000Y35244826D01*
X18317026Y34626596D01*
X18075804Y34044233D01*
X18075803Y34044232D01*
X17725602Y33520119D01*
X17279881Y33074398D01*
X16929679Y32840401D01*
X16755767Y32724196D01*
X16173404Y32482974D01*
X15555174Y32360000D01*
X14924826Y32360000D01*
X14306596Y32482974D01*
X13724233Y32724196D01*
X13550321Y32840401D01*
X13200119Y33074398D01*
X12754398Y33520119D01*
X12404197Y34044232D01*
X12404196Y34044233D01*
X12162974Y34626596D01*
X12040000Y35244826D01*
X12040000Y35875174D01*
X12162974Y36493404D01*
X12404196Y37075767D01*
X12520401Y37249679D01*
X12754398Y37599881D01*
X13200119Y38045602D01*
X13724232Y38395803D01*
X13724233Y38395804D01*
X14306596Y38637026D01*
X14924826Y38760000D01*
X15555174Y38760000D01*
X16173404Y38637026D01*
X16173404Y38637026D01*
G37*
G36*
X28648000Y34598000D02*
G01*
X26724000Y34598000D01*
X26724000Y36522000D01*
X28648000Y36522000D01*
X28648000Y34598000D01*
X28648000Y34598000D01*
G37*
G36*
X26108000Y34598000D02*
G01*
X24184000Y34598000D01*
X24184000Y36522000D01*
X26108000Y36522000D01*
X26108000Y34598000D01*
X26108000Y34598000D01*
G37*
G36*
X28648000Y37138000D02*
G01*
X26724000Y37138000D01*
X26724000Y39062000D01*
X28648000Y39062000D01*
X28648000Y37138000D01*
X28648000Y37138000D01*
G37*
G36*
X26108000Y37138000D02*
G01*
X24184000Y37138000D01*
X24184000Y39062000D01*
X26108000Y39062000D01*
X26108000Y37138000D01*
X26108000Y37138000D01*
G37*
M02*
