G04 #@! TF.GenerationSoftware,KiCad,Pcbnew,(2018-02-10 revision a04965c36)-makepkg*
G04 #@! TF.CreationDate,2018-12-03T23:15:46+01:00*
G04 #@! TF.ProjectId,SIPM01B,5349504D3031422E6B696361645F7063,rev?*
G04 #@! TF.SameCoordinates,Original*
G04 #@! TF.FileFunction,Soldermask,Bot*
G04 #@! TF.FilePolarity,Negative*
%FSLAX46Y46*%
G04 Gerber Fmt 4.6, Leading zero omitted, Abs format (unit mm)*
G04 Created by KiCad (PCBNEW (2018-02-10 revision a04965c36)-makepkg) date 12/03/18 23:15:46*
%MOMM*%
%LPD*%
G01*
G04 APERTURE LIST*
%ADD10C,0.100000*%
G04 APERTURE END LIST*
D10*
G36*
X16173405Y8157026D02*
X16755767Y7915804D01*
X17279884Y7565600D01*
X17725600Y7119884D01*
X18075804Y6595767D01*
X18317026Y6013405D01*
X18440000Y5395174D01*
X18440000Y4764826D01*
X18317026Y4146595D01*
X18075804Y3564233D01*
X17725600Y3040116D01*
X17279884Y2594400D01*
X16755767Y2244196D01*
X16173405Y2002974D01*
X15555174Y1880000D01*
X14924826Y1880000D01*
X14306595Y2002974D01*
X13724233Y2244196D01*
X13200116Y2594400D01*
X12754400Y3040116D01*
X12404196Y3564233D01*
X12162974Y4146595D01*
X12040000Y4764826D01*
X12040000Y5395174D01*
X12162974Y6013405D01*
X12404196Y6595767D01*
X12754400Y7119884D01*
X13200116Y7565600D01*
X13724233Y7915804D01*
X14306595Y8157026D01*
X14924826Y8280000D01*
X15555174Y8280000D01*
X16173405Y8157026D01*
X16173405Y8157026D01*
G37*
G36*
X6013405Y8157026D02*
X6595767Y7915804D01*
X7119884Y7565600D01*
X7565600Y7119884D01*
X7915804Y6595767D01*
X8157026Y6013405D01*
X8280000Y5395174D01*
X8280000Y4764826D01*
X8157026Y4146595D01*
X7915804Y3564233D01*
X7565600Y3040116D01*
X7119884Y2594400D01*
X6595767Y2244196D01*
X6013405Y2002974D01*
X5395174Y1880000D01*
X4764826Y1880000D01*
X4146595Y2002974D01*
X3564233Y2244196D01*
X3040116Y2594400D01*
X2594400Y3040116D01*
X2244196Y3564233D01*
X2002974Y4146595D01*
X1880000Y4764826D01*
X1880000Y5395174D01*
X2002974Y6013405D01*
X2244196Y6595767D01*
X2594400Y7119884D01*
X3040116Y7565600D01*
X3564233Y7915804D01*
X4146595Y8157026D01*
X4764826Y8280000D01*
X5395174Y8280000D01*
X6013405Y8157026D01*
X6013405Y8157026D01*
G37*
G36*
X13027000Y10468000D02*
X11103000Y10468000D01*
X11103000Y12392000D01*
X13027000Y12392000D01*
X13027000Y10468000D01*
X13027000Y10468000D01*
G37*
G36*
X15567000Y10468000D02*
X13643000Y10468000D01*
X13643000Y12392000D01*
X15567000Y12392000D01*
X15567000Y10468000D01*
X15567000Y10468000D01*
G37*
G36*
X5407000Y10468000D02*
X3483000Y10468000D01*
X3483000Y12392000D01*
X5407000Y12392000D01*
X5407000Y10468000D01*
X5407000Y10468000D01*
G37*
G36*
X7947000Y10468000D02*
X6023000Y10468000D01*
X6023000Y12392000D01*
X7947000Y12392000D01*
X7947000Y10468000D01*
X7947000Y10468000D01*
G37*
G36*
X10487000Y10468000D02*
X8563000Y10468000D01*
X8563000Y12392000D01*
X10487000Y12392000D01*
X10487000Y10468000D01*
X10487000Y10468000D01*
G37*
G36*
X19229680Y12525400D02*
X16330320Y12525400D01*
X16330320Y15475560D01*
X19229680Y15475560D01*
X19229680Y12525400D01*
X19229680Y12525400D01*
G37*
G36*
X6529680Y13764920D02*
X3630320Y13764920D01*
X3630320Y16715080D01*
X6529680Y16715080D01*
X6529680Y13764920D01*
X6529680Y13764920D01*
G37*
G36*
X10873580Y20214663D02*
X10897637Y20212294D01*
X10939976Y20199451D01*
X10982316Y20186607D01*
X11024029Y20164311D01*
X11060355Y20144894D01*
X11060357Y20144893D01*
X11060356Y20144893D01*
X11128757Y20088757D01*
X11184893Y20020356D01*
X11226607Y19942316D01*
X11252294Y19857636D01*
X11261572Y19763435D01*
X11261572Y18701565D01*
X11252294Y18607364D01*
X11226607Y18522684D01*
X11204311Y18480971D01*
X11184894Y18444645D01*
X11128757Y18376243D01*
X11060355Y18320106D01*
X11060353Y18320105D01*
X11056114Y18316626D01*
X11038787Y18299299D01*
X11025173Y18278925D01*
X11015795Y18256286D01*
X11011015Y18232252D01*
X11011015Y18207748D01*
X11015795Y18183714D01*
X11025173Y18161075D01*
X11038787Y18140701D01*
X11056114Y18123374D01*
X11076488Y18109760D01*
X11099127Y18100382D01*
X11135413Y18095000D01*
X11860000Y18095000D01*
X11860000Y16195000D01*
X11135691Y16195000D01*
X11111305Y16192598D01*
X11087856Y16185485D01*
X11066245Y16173934D01*
X11047303Y16158388D01*
X11031757Y16139446D01*
X11020206Y16117835D01*
X11013093Y16094386D01*
X11010691Y16070000D01*
X11013093Y16045614D01*
X11020206Y16022165D01*
X11031757Y16000554D01*
X11056391Y15973374D01*
X11128884Y15913880D01*
X11184966Y15845544D01*
X11226638Y15767582D01*
X11226639Y15767578D01*
X11252302Y15682980D01*
X11252302Y15682978D01*
X11261572Y15588860D01*
X11261572Y14526140D01*
X11260967Y14519999D01*
X11252302Y14432020D01*
X11233316Y14369434D01*
X11226638Y14347418D01*
X11184966Y14269456D01*
X11128882Y14201118D01*
X11060544Y14145034D01*
X10982582Y14103362D01*
X10960566Y14096684D01*
X10897980Y14077698D01*
X10848341Y14072809D01*
X10803860Y14068428D01*
X9516140Y14068428D01*
X9471659Y14072809D01*
X9422020Y14077698D01*
X9359434Y14096684D01*
X9337418Y14103362D01*
X9259456Y14145034D01*
X9191118Y14201118D01*
X9135034Y14269456D01*
X9093362Y14347418D01*
X9086684Y14369434D01*
X9067698Y14432020D01*
X9059033Y14519999D01*
X9058428Y14526140D01*
X9058428Y15588860D01*
X9067698Y15682978D01*
X9067698Y15682980D01*
X9093361Y15767578D01*
X9093362Y15767582D01*
X9135034Y15845544D01*
X9191116Y15913880D01*
X9263609Y15973374D01*
X9280936Y15990701D01*
X9294549Y16011076D01*
X9303927Y16033715D01*
X9308707Y16057748D01*
X9308707Y16082253D01*
X9303926Y16106286D01*
X9294549Y16128925D01*
X9280935Y16149300D01*
X9263608Y16166627D01*
X9243233Y16180240D01*
X9220594Y16189618D01*
X9184309Y16195000D01*
X8460000Y16195000D01*
X8460000Y18095000D01*
X9184587Y18095000D01*
X9208973Y18097402D01*
X9232422Y18104515D01*
X9254033Y18116066D01*
X9272975Y18131612D01*
X9288521Y18150554D01*
X9300072Y18172165D01*
X9307185Y18195614D01*
X9309587Y18220000D01*
X9307185Y18244386D01*
X9300072Y18267835D01*
X9288521Y18289446D01*
X9263886Y18316626D01*
X9259647Y18320105D01*
X9259645Y18320106D01*
X9191243Y18376243D01*
X9135106Y18444645D01*
X9115689Y18480971D01*
X9093393Y18522684D01*
X9067706Y18607364D01*
X9058428Y18701565D01*
X9058428Y19763435D01*
X9067706Y19857636D01*
X9093393Y19942316D01*
X9135107Y20020356D01*
X9191243Y20088757D01*
X9259644Y20144893D01*
X9259643Y20144893D01*
X9259645Y20144894D01*
X9295971Y20164311D01*
X9337684Y20186607D01*
X9380024Y20199450D01*
X9422363Y20212294D01*
X9446420Y20214663D01*
X9516565Y20221572D01*
X10803435Y20221572D01*
X10873580Y20214663D01*
X10873580Y20214663D01*
G37*
G36*
X14683580Y20214663D02*
X14707637Y20212294D01*
X14749976Y20199451D01*
X14792316Y20186607D01*
X14834029Y20164311D01*
X14870355Y20144894D01*
X14870357Y20144893D01*
X14870356Y20144893D01*
X14938757Y20088757D01*
X14994893Y20020356D01*
X15036607Y19942316D01*
X15062294Y19857636D01*
X15071572Y19763435D01*
X15071572Y18701565D01*
X15062294Y18607364D01*
X15036607Y18522684D01*
X15014311Y18480971D01*
X14994894Y18444645D01*
X14938757Y18376243D01*
X14870355Y18320106D01*
X14870353Y18320105D01*
X14866114Y18316626D01*
X14848787Y18299299D01*
X14835173Y18278925D01*
X14825795Y18256286D01*
X14821015Y18232252D01*
X14821015Y18207748D01*
X14825795Y18183714D01*
X14835173Y18161075D01*
X14848787Y18140701D01*
X14866114Y18123374D01*
X14886488Y18109760D01*
X14909127Y18100382D01*
X14945413Y18095000D01*
X15670000Y18095000D01*
X15670000Y16195000D01*
X14945691Y16195000D01*
X14921305Y16192598D01*
X14897856Y16185485D01*
X14876245Y16173934D01*
X14857303Y16158388D01*
X14841757Y16139446D01*
X14830206Y16117835D01*
X14823093Y16094386D01*
X14820691Y16070000D01*
X14823093Y16045614D01*
X14830206Y16022165D01*
X14841757Y16000554D01*
X14866391Y15973374D01*
X14938884Y15913880D01*
X14994966Y15845544D01*
X15036638Y15767582D01*
X15036639Y15767578D01*
X15062302Y15682980D01*
X15062302Y15682978D01*
X15071572Y15588860D01*
X15071572Y14526140D01*
X15070967Y14519999D01*
X15062302Y14432020D01*
X15043316Y14369434D01*
X15036638Y14347418D01*
X14994966Y14269456D01*
X14938882Y14201118D01*
X14870544Y14145034D01*
X14792582Y14103362D01*
X14770566Y14096684D01*
X14707980Y14077698D01*
X14658341Y14072809D01*
X14613860Y14068428D01*
X13326140Y14068428D01*
X13281659Y14072809D01*
X13232020Y14077698D01*
X13169434Y14096684D01*
X13147418Y14103362D01*
X13069456Y14145034D01*
X13001118Y14201118D01*
X12945034Y14269456D01*
X12903362Y14347418D01*
X12896684Y14369434D01*
X12877698Y14432020D01*
X12869033Y14519999D01*
X12868428Y14526140D01*
X12868428Y15588860D01*
X12877698Y15682978D01*
X12877698Y15682980D01*
X12903361Y15767578D01*
X12903362Y15767582D01*
X12945034Y15845544D01*
X13001116Y15913880D01*
X13073609Y15973374D01*
X13090936Y15990701D01*
X13104549Y16011076D01*
X13113927Y16033715D01*
X13118707Y16057748D01*
X13118707Y16082253D01*
X13113926Y16106286D01*
X13104549Y16128925D01*
X13090935Y16149300D01*
X13073608Y16166627D01*
X13053233Y16180240D01*
X13030594Y16189618D01*
X12994309Y16195000D01*
X12270000Y16195000D01*
X12270000Y18095000D01*
X12994587Y18095000D01*
X13018973Y18097402D01*
X13042422Y18104515D01*
X13064033Y18116066D01*
X13082975Y18131612D01*
X13098521Y18150554D01*
X13110072Y18172165D01*
X13117185Y18195614D01*
X13119587Y18220000D01*
X13117185Y18244386D01*
X13110072Y18267835D01*
X13098521Y18289446D01*
X13073886Y18316626D01*
X13069647Y18320105D01*
X13069645Y18320106D01*
X13001243Y18376243D01*
X12945106Y18444645D01*
X12925689Y18480971D01*
X12903393Y18522684D01*
X12877706Y18607364D01*
X12868428Y18701565D01*
X12868428Y19763435D01*
X12877706Y19857636D01*
X12903393Y19942316D01*
X12945107Y20020356D01*
X13001243Y20088757D01*
X13069644Y20144893D01*
X13069643Y20144893D01*
X13069645Y20144894D01*
X13105971Y20164311D01*
X13147684Y20186607D01*
X13190024Y20199450D01*
X13232363Y20212294D01*
X13256420Y20214663D01*
X13326565Y20221572D01*
X14613435Y20221572D01*
X14683580Y20214663D01*
X14683580Y20214663D01*
G37*
G36*
X19229680Y17574920D02*
X16330320Y17574920D01*
X16330320Y20525080D01*
X19229680Y20525080D01*
X19229680Y17574920D01*
X19229680Y17574920D01*
G37*
G36*
X6529680Y18814440D02*
X3630320Y18814440D01*
X3630320Y21764600D01*
X6529680Y21764600D01*
X6529680Y18814440D01*
X6529680Y18814440D01*
G37*
G36*
X12832500Y23835413D02*
X12834902Y23811027D01*
X12842015Y23787578D01*
X12853566Y23765967D01*
X12869112Y23747025D01*
X12888054Y23731479D01*
X12909665Y23719928D01*
X12933114Y23712815D01*
X12957500Y23710413D01*
X12981886Y23712815D01*
X13005335Y23719928D01*
X13026946Y23731479D01*
X13054126Y23756114D01*
X13057605Y23760353D01*
X13057606Y23760355D01*
X13113743Y23828757D01*
X13182145Y23884894D01*
X13218471Y23904311D01*
X13260184Y23926607D01*
X13302524Y23939450D01*
X13344863Y23952294D01*
X13368920Y23954663D01*
X13439065Y23961572D01*
X14500935Y23961572D01*
X14571080Y23954663D01*
X14595137Y23952294D01*
X14637476Y23939450D01*
X14679816Y23926607D01*
X14721529Y23904311D01*
X14757855Y23884894D01*
X14826257Y23828757D01*
X14882394Y23760355D01*
X14893774Y23739064D01*
X14924107Y23682316D01*
X14924107Y23682315D01*
X14949691Y23597978D01*
X14949794Y23597636D01*
X14959072Y23503435D01*
X14959072Y22216565D01*
X14958467Y22210425D01*
X14949794Y22122363D01*
X14949690Y22122020D01*
X14924107Y22037684D01*
X14908940Y22009309D01*
X14882394Y21959645D01*
X14826257Y21891243D01*
X14757855Y21835106D01*
X14721529Y21815689D01*
X14679816Y21793393D01*
X14637476Y21780549D01*
X14595137Y21767706D01*
X14571080Y21765337D01*
X14500935Y21758428D01*
X13439065Y21758428D01*
X13368920Y21765337D01*
X13344863Y21767706D01*
X13302524Y21780549D01*
X13260184Y21793393D01*
X13218471Y21815689D01*
X13182145Y21835106D01*
X13113743Y21891243D01*
X13057606Y21959645D01*
X13057605Y21959647D01*
X13054126Y21963886D01*
X13036799Y21981213D01*
X13016425Y21994827D01*
X12993786Y22004205D01*
X12969752Y22008985D01*
X12945248Y22008985D01*
X12921214Y22004205D01*
X12898575Y21994827D01*
X12878201Y21981213D01*
X12860874Y21963886D01*
X12847260Y21943512D01*
X12837882Y21920873D01*
X12832500Y21884587D01*
X12832500Y21160000D01*
X10932500Y21160000D01*
X10932500Y21884309D01*
X10930098Y21908695D01*
X10922985Y21932144D01*
X10911434Y21953755D01*
X10895888Y21972697D01*
X10876946Y21988243D01*
X10855335Y21999794D01*
X10831886Y22006907D01*
X10807500Y22009309D01*
X10783114Y22006907D01*
X10759665Y21999794D01*
X10738054Y21988243D01*
X10710874Y21963609D01*
X10707467Y21959457D01*
X10707466Y21959456D01*
X10651485Y21891243D01*
X10651380Y21891116D01*
X10583044Y21835034D01*
X10505082Y21793362D01*
X10483066Y21786684D01*
X10420480Y21767698D01*
X10370841Y21762809D01*
X10326360Y21758428D01*
X9263640Y21758428D01*
X9219159Y21762809D01*
X9169520Y21767698D01*
X9106934Y21786684D01*
X9084918Y21793362D01*
X9006956Y21835034D01*
X8938618Y21891118D01*
X8882534Y21959456D01*
X8840862Y22037418D01*
X8834184Y22059434D01*
X8815198Y22122020D01*
X8806533Y22209999D01*
X8805928Y22216140D01*
X8805928Y23503860D01*
X8815198Y23597978D01*
X8815198Y23597980D01*
X8840781Y23682315D01*
X8840862Y23682582D01*
X8882534Y23760544D01*
X8938618Y23828882D01*
X9006956Y23884966D01*
X9084918Y23926638D01*
X9122308Y23937980D01*
X9169520Y23952302D01*
X9219159Y23957191D01*
X9263640Y23961572D01*
X10326360Y23961572D01*
X10370841Y23957191D01*
X10420480Y23952302D01*
X10467692Y23937980D01*
X10505082Y23926638D01*
X10583044Y23884966D01*
X10643086Y23835691D01*
X10651382Y23828882D01*
X10694152Y23776767D01*
X10710874Y23756391D01*
X10728201Y23739064D01*
X10748576Y23725451D01*
X10771215Y23716073D01*
X10795248Y23711293D01*
X10819753Y23711293D01*
X10843786Y23716074D01*
X10866425Y23725451D01*
X10886800Y23739065D01*
X10904127Y23756392D01*
X10917740Y23776767D01*
X10927118Y23799406D01*
X10932500Y23835691D01*
X10932500Y24560000D01*
X12832500Y24560000D01*
X12832500Y23835413D01*
X12832500Y23835413D01*
G37*
G36*
X20234000Y21456800D02*
X15834000Y21456800D01*
X15834000Y26396800D01*
X20234000Y26396800D01*
X20234000Y21456800D01*
X20234000Y21456800D01*
G37*
G36*
X5158580Y28469663D02*
X5182637Y28467294D01*
X5224976Y28454451D01*
X5267316Y28441607D01*
X5309029Y28419311D01*
X5345355Y28399894D01*
X5345357Y28399893D01*
X5345356Y28399893D01*
X5413757Y28343757D01*
X5469893Y28275356D01*
X5511607Y28197316D01*
X5511607Y28197315D01*
X5535158Y28119680D01*
X5537294Y28112636D01*
X5546572Y28018435D01*
X5546572Y26956565D01*
X5537294Y26862364D01*
X5511607Y26777684D01*
X5489311Y26735971D01*
X5469894Y26699645D01*
X5413757Y26631243D01*
X5345355Y26575106D01*
X5345353Y26575105D01*
X5341114Y26571626D01*
X5323787Y26554299D01*
X5310173Y26533925D01*
X5300795Y26511286D01*
X5296015Y26487252D01*
X5296015Y26462748D01*
X5300795Y26438714D01*
X5310173Y26416075D01*
X5323787Y26395701D01*
X5341114Y26378374D01*
X5361488Y26364760D01*
X5384127Y26355382D01*
X5420413Y26350000D01*
X6145000Y26350000D01*
X6145000Y24450000D01*
X5420691Y24450000D01*
X5396305Y24447598D01*
X5372856Y24440485D01*
X5351245Y24428934D01*
X5332303Y24413388D01*
X5316757Y24394446D01*
X5305206Y24372835D01*
X5298093Y24349386D01*
X5295691Y24325000D01*
X5298093Y24300614D01*
X5305206Y24277165D01*
X5316757Y24255554D01*
X5341391Y24228374D01*
X5413884Y24168880D01*
X5469966Y24100544D01*
X5511638Y24022582D01*
X5511639Y24022578D01*
X5537302Y23937980D01*
X5537302Y23937978D01*
X5546572Y23843860D01*
X5546572Y22781140D01*
X5545967Y22774999D01*
X5537302Y22687020D01*
X5518316Y22624434D01*
X5511638Y22602418D01*
X5469966Y22524456D01*
X5413882Y22456118D01*
X5345544Y22400034D01*
X5267582Y22358362D01*
X5245566Y22351684D01*
X5182980Y22332698D01*
X5133341Y22327809D01*
X5088860Y22323428D01*
X3801140Y22323428D01*
X3756659Y22327809D01*
X3707020Y22332698D01*
X3644434Y22351684D01*
X3622418Y22358362D01*
X3544456Y22400034D01*
X3476118Y22456118D01*
X3420034Y22524456D01*
X3378362Y22602418D01*
X3371684Y22624434D01*
X3352698Y22687020D01*
X3344033Y22774999D01*
X3343428Y22781140D01*
X3343428Y23843860D01*
X3352698Y23937978D01*
X3352698Y23937980D01*
X3378361Y24022578D01*
X3378362Y24022582D01*
X3420034Y24100544D01*
X3476116Y24168880D01*
X3548609Y24228374D01*
X3565936Y24245701D01*
X3579549Y24266076D01*
X3588927Y24288715D01*
X3593707Y24312748D01*
X3593707Y24337253D01*
X3588926Y24361286D01*
X3579549Y24383925D01*
X3565935Y24404300D01*
X3548608Y24421627D01*
X3528233Y24435240D01*
X3505594Y24444618D01*
X3469309Y24450000D01*
X2745000Y24450000D01*
X2745000Y26350000D01*
X3469587Y26350000D01*
X3493973Y26352402D01*
X3517422Y26359515D01*
X3539033Y26371066D01*
X3557975Y26386612D01*
X3573521Y26405554D01*
X3585072Y26427165D01*
X3592185Y26450614D01*
X3594587Y26475000D01*
X3592185Y26499386D01*
X3585072Y26522835D01*
X3573521Y26544446D01*
X3548886Y26571626D01*
X3544647Y26575105D01*
X3544645Y26575106D01*
X3476243Y26631243D01*
X3420106Y26699645D01*
X3400689Y26735971D01*
X3378393Y26777684D01*
X3352706Y26862364D01*
X3343428Y26956565D01*
X3343428Y28018435D01*
X3352706Y28112636D01*
X3354843Y28119680D01*
X3378393Y28197315D01*
X3378393Y28197316D01*
X3420107Y28275356D01*
X3476243Y28343757D01*
X3544644Y28399893D01*
X3544643Y28399893D01*
X3544645Y28399894D01*
X3580971Y28419311D01*
X3622684Y28441607D01*
X3665024Y28454451D01*
X3707363Y28467294D01*
X3731420Y28469663D01*
X3801565Y28476572D01*
X5088435Y28476572D01*
X5158580Y28469663D01*
X5158580Y28469663D01*
G37*
G36*
X14779600Y25220320D02*
X11829440Y25220320D01*
X11829440Y28119680D01*
X14779600Y28119680D01*
X14779600Y25220320D01*
X14779600Y25220320D01*
G37*
G36*
X9730080Y25220320D02*
X6779920Y25220320D01*
X6779920Y28119680D01*
X9730080Y28119680D01*
X9730080Y25220320D01*
X9730080Y25220320D01*
G37*
G36*
X20234000Y26930500D02*
X15834000Y26930500D01*
X15834000Y31870500D01*
X20234000Y31870500D01*
X20234000Y26930500D01*
X20234000Y26930500D01*
G37*
G36*
X12905080Y29030320D02*
X9954920Y29030320D01*
X9954920Y31929680D01*
X12905080Y31929680D01*
X12905080Y29030320D01*
X12905080Y29030320D01*
G37*
G36*
X7855560Y29030320D02*
X4905400Y29030320D01*
X4905400Y31929680D01*
X7855560Y31929680D01*
X7855560Y29030320D01*
X7855560Y29030320D01*
G37*
G36*
X6013405Y38637026D02*
X6595767Y38395804D01*
X7119884Y38045600D01*
X7565600Y37599884D01*
X7915804Y37075767D01*
X8157026Y36493405D01*
X8280000Y35875174D01*
X8280000Y35244826D01*
X8157026Y34626595D01*
X7915804Y34044233D01*
X7565600Y33520116D01*
X7119884Y33074400D01*
X6595767Y32724196D01*
X6013405Y32482974D01*
X5395174Y32360000D01*
X4764826Y32360000D01*
X4146595Y32482974D01*
X3564233Y32724196D01*
X3040116Y33074400D01*
X2594400Y33520116D01*
X2244196Y34044233D01*
X2002974Y34626595D01*
X1880000Y35244826D01*
X1880000Y35875174D01*
X2002974Y36493405D01*
X2244196Y37075767D01*
X2594400Y37599884D01*
X3040116Y38045600D01*
X3564233Y38395804D01*
X4146595Y38637026D01*
X4764826Y38760000D01*
X5395174Y38760000D01*
X6013405Y38637026D01*
X6013405Y38637026D01*
G37*
G36*
X16173405Y38637026D02*
X16755767Y38395804D01*
X17279884Y38045600D01*
X17725600Y37599884D01*
X18075804Y37075767D01*
X18317026Y36493405D01*
X18440000Y35875174D01*
X18440000Y35244826D01*
X18317026Y34626595D01*
X18075804Y34044233D01*
X17725600Y33520116D01*
X17279884Y33074400D01*
X16755767Y32724196D01*
X16173405Y32482974D01*
X15555174Y32360000D01*
X14924826Y32360000D01*
X14306595Y32482974D01*
X13724233Y32724196D01*
X13200116Y33074400D01*
X12754400Y33520116D01*
X12404196Y34044233D01*
X12162974Y34626595D01*
X12040000Y35244826D01*
X12040000Y35875174D01*
X12162974Y36493405D01*
X12404196Y37075767D01*
X12754400Y37599884D01*
X13200116Y38045600D01*
X13724233Y38395804D01*
X14306595Y38637026D01*
X14924826Y38760000D01*
X15555174Y38760000D01*
X16173405Y38637026D01*
X16173405Y38637026D01*
G37*
M02*
