G04 #@! TF.GenerationSoftware,KiCad,Pcbnew,(2018-02-10 revision a04965c36)-makepkg*
G04 #@! TF.CreationDate,2018-12-03T23:15:46+01:00*
G04 #@! TF.ProjectId,SIPM01B,5349504D3031422E6B696361645F7063,rev?*
G04 #@! TF.SameCoordinates,Original*
G04 #@! TF.FileFunction,Soldermask,Top*
G04 #@! TF.FilePolarity,Negative*
%FSLAX46Y46*%
G04 Gerber Fmt 4.6, Leading zero omitted, Abs format (unit mm)*
G04 Created by KiCad (PCBNEW (2018-02-10 revision a04965c36)-makepkg) date 12/03/18 23:15:46*
%MOMM*%
%LPD*%
G01*
G04 APERTURE LIST*
%ADD10C,0.100000*%
G04 APERTURE END LIST*
D10*
G36*
X16173405Y8157026D02*
X16755767Y7915804D01*
X17279884Y7565600D01*
X17725600Y7119884D01*
X18075804Y6595767D01*
X18317026Y6013405D01*
X18440000Y5395174D01*
X18440000Y4764826D01*
X18317026Y4146595D01*
X18075804Y3564233D01*
X17725600Y3040116D01*
X17279884Y2594400D01*
X16755767Y2244196D01*
X16173405Y2002974D01*
X15555174Y1880000D01*
X14924826Y1880000D01*
X14306595Y2002974D01*
X13724233Y2244196D01*
X13200116Y2594400D01*
X12754400Y3040116D01*
X12404196Y3564233D01*
X12162974Y4146595D01*
X12040000Y4764826D01*
X12040000Y5395174D01*
X12162974Y6013405D01*
X12404196Y6595767D01*
X12754400Y7119884D01*
X13200116Y7565600D01*
X13724233Y7915804D01*
X14306595Y8157026D01*
X14924826Y8280000D01*
X15555174Y8280000D01*
X16173405Y8157026D01*
X16173405Y8157026D01*
G37*
G36*
X6013405Y8157026D02*
X6595767Y7915804D01*
X7119884Y7565600D01*
X7565600Y7119884D01*
X7915804Y6595767D01*
X8157026Y6013405D01*
X8280000Y5395174D01*
X8280000Y4764826D01*
X8157026Y4146595D01*
X7915804Y3564233D01*
X7565600Y3040116D01*
X7119884Y2594400D01*
X6595767Y2244196D01*
X6013405Y2002974D01*
X5395174Y1880000D01*
X4764826Y1880000D01*
X4146595Y2002974D01*
X3564233Y2244196D01*
X3040116Y2594400D01*
X2594400Y3040116D01*
X2244196Y3564233D01*
X2002974Y4146595D01*
X1880000Y4764826D01*
X1880000Y5395174D01*
X2002974Y6013405D01*
X2244196Y6595767D01*
X2594400Y7119884D01*
X3040116Y7565600D01*
X3564233Y7915804D01*
X4146595Y8157026D01*
X4764826Y8280000D01*
X5395174Y8280000D01*
X6013405Y8157026D01*
X6013405Y8157026D01*
G37*
G36*
X15567000Y10468000D02*
X13643000Y10468000D01*
X13643000Y12392000D01*
X15567000Y12392000D01*
X15567000Y10468000D01*
X15567000Y10468000D01*
G37*
G36*
X13027000Y10468000D02*
X11103000Y10468000D01*
X11103000Y12392000D01*
X13027000Y12392000D01*
X13027000Y10468000D01*
X13027000Y10468000D01*
G37*
G36*
X10487000Y10468000D02*
X8563000Y10468000D01*
X8563000Y12392000D01*
X10487000Y12392000D01*
X10487000Y10468000D01*
X10487000Y10468000D01*
G37*
G36*
X7947000Y10468000D02*
X6023000Y10468000D01*
X6023000Y12392000D01*
X7947000Y12392000D01*
X7947000Y10468000D01*
X7947000Y10468000D01*
G37*
G36*
X5407000Y10468000D02*
X3483000Y10468000D01*
X3483000Y12392000D01*
X5407000Y12392000D01*
X5407000Y10468000D01*
X5407000Y10468000D01*
G37*
G36*
X15321453Y15528948D02*
X15351882Y15522895D01*
X15375627Y15513059D01*
X15409207Y15499150D01*
X15460804Y15464674D01*
X15504674Y15420804D01*
X15539150Y15369207D01*
X15562895Y15311881D01*
X15575000Y15251026D01*
X15575000Y15188974D01*
X15562895Y15128119D01*
X15539150Y15070793D01*
X15504674Y15019196D01*
X15460804Y14975326D01*
X15409207Y14940850D01*
X15375627Y14926941D01*
X15351882Y14917105D01*
X15321454Y14911053D01*
X15291026Y14905000D01*
X15228974Y14905000D01*
X15198546Y14911053D01*
X15168118Y14917105D01*
X15144373Y14926941D01*
X15110793Y14940850D01*
X15059196Y14975326D01*
X15015326Y15019196D01*
X14980850Y15070793D01*
X14957105Y15128119D01*
X14945000Y15188974D01*
X14945000Y15251026D01*
X14957105Y15311881D01*
X14980850Y15369207D01*
X15015326Y15420804D01*
X15059196Y15464674D01*
X15110793Y15499150D01*
X15144373Y15513059D01*
X15168118Y15522895D01*
X15198547Y15528948D01*
X15228974Y15535000D01*
X15291026Y15535000D01*
X15321453Y15528948D01*
X15321453Y15528948D01*
G37*
G36*
X10221453Y15528948D02*
X10251882Y15522895D01*
X10275627Y15513059D01*
X10309207Y15499150D01*
X10360804Y15464674D01*
X10404674Y15420804D01*
X10439150Y15369207D01*
X10462895Y15311881D01*
X10475000Y15251026D01*
X10475000Y15188974D01*
X10462895Y15128119D01*
X10439150Y15070793D01*
X10404674Y15019196D01*
X10360804Y14975326D01*
X10309207Y14940850D01*
X10275627Y14926941D01*
X10251882Y14917105D01*
X10221454Y14911053D01*
X10191026Y14905000D01*
X10128974Y14905000D01*
X10098546Y14911053D01*
X10068118Y14917105D01*
X10044373Y14926941D01*
X10010793Y14940850D01*
X9959196Y14975326D01*
X9915326Y15019196D01*
X9880850Y15070793D01*
X9857105Y15128119D01*
X9845000Y15188974D01*
X9845000Y15251026D01*
X9857105Y15311881D01*
X9880850Y15369207D01*
X9915326Y15420804D01*
X9959196Y15464674D01*
X10010793Y15499150D01*
X10044373Y15513059D01*
X10068118Y15522895D01*
X10098547Y15528948D01*
X10128974Y15535000D01*
X10191026Y15535000D01*
X10221453Y15528948D01*
X10221453Y15528948D01*
G37*
G36*
X5121453Y15528948D02*
X5151882Y15522895D01*
X5175627Y15513059D01*
X5209207Y15499150D01*
X5260804Y15464674D01*
X5304674Y15420804D01*
X5339150Y15369207D01*
X5362895Y15311881D01*
X5375000Y15251026D01*
X5375000Y15188974D01*
X5362895Y15128119D01*
X5339150Y15070793D01*
X5304674Y15019196D01*
X5260804Y14975326D01*
X5209207Y14940850D01*
X5175627Y14926941D01*
X5151882Y14917105D01*
X5121454Y14911053D01*
X5091026Y14905000D01*
X5028974Y14905000D01*
X4998546Y14911053D01*
X4968118Y14917105D01*
X4944373Y14926941D01*
X4910793Y14940850D01*
X4859196Y14975326D01*
X4815326Y15019196D01*
X4780850Y15070793D01*
X4757105Y15128119D01*
X4745000Y15188974D01*
X4745000Y15251026D01*
X4757105Y15311881D01*
X4780850Y15369207D01*
X4815326Y15420804D01*
X4859196Y15464674D01*
X4910793Y15499150D01*
X4944373Y15513059D01*
X4968118Y15522895D01*
X4998547Y15528948D01*
X5028974Y15535000D01*
X5091026Y15535000D01*
X5121453Y15528948D01*
X5121453Y15528948D01*
G37*
G36*
X15321454Y20628947D02*
X15351882Y20622895D01*
X15375627Y20613059D01*
X15409207Y20599150D01*
X15460804Y20564674D01*
X15504674Y20520804D01*
X15539150Y20469207D01*
X15562895Y20411881D01*
X15575000Y20351026D01*
X15575000Y20288974D01*
X15562895Y20228119D01*
X15539150Y20170793D01*
X15504674Y20119196D01*
X15460804Y20075326D01*
X15409207Y20040850D01*
X15375627Y20026941D01*
X15351882Y20017105D01*
X15321453Y20011052D01*
X15291026Y20005000D01*
X15228974Y20005000D01*
X15198547Y20011052D01*
X15168118Y20017105D01*
X15144373Y20026941D01*
X15110793Y20040850D01*
X15059196Y20075326D01*
X15015326Y20119196D01*
X14980850Y20170793D01*
X14957105Y20228119D01*
X14945000Y20288974D01*
X14945000Y20351026D01*
X14957105Y20411881D01*
X14980850Y20469207D01*
X15015326Y20520804D01*
X15059196Y20564674D01*
X15110793Y20599150D01*
X15144373Y20613059D01*
X15168118Y20622895D01*
X15198546Y20628947D01*
X15228974Y20635000D01*
X15291026Y20635000D01*
X15321454Y20628947D01*
X15321454Y20628947D01*
G37*
G36*
X10221454Y20628947D02*
X10251882Y20622895D01*
X10275627Y20613059D01*
X10309207Y20599150D01*
X10360804Y20564674D01*
X10404674Y20520804D01*
X10439150Y20469207D01*
X10462895Y20411881D01*
X10475000Y20351026D01*
X10475000Y20288974D01*
X10462895Y20228119D01*
X10439150Y20170793D01*
X10404674Y20119196D01*
X10360804Y20075326D01*
X10309207Y20040850D01*
X10275627Y20026941D01*
X10251882Y20017105D01*
X10221453Y20011052D01*
X10191026Y20005000D01*
X10128974Y20005000D01*
X10098547Y20011052D01*
X10068118Y20017105D01*
X10044373Y20026941D01*
X10010793Y20040850D01*
X9959196Y20075326D01*
X9915326Y20119196D01*
X9880850Y20170793D01*
X9857105Y20228119D01*
X9845000Y20288974D01*
X9845000Y20351026D01*
X9857105Y20411881D01*
X9880850Y20469207D01*
X9915326Y20520804D01*
X9959196Y20564674D01*
X10010793Y20599150D01*
X10044373Y20613059D01*
X10068118Y20622895D01*
X10098546Y20628947D01*
X10128974Y20635000D01*
X10191026Y20635000D01*
X10221454Y20628947D01*
X10221454Y20628947D01*
G37*
G36*
X5121454Y20628947D02*
X5151882Y20622895D01*
X5175627Y20613059D01*
X5209207Y20599150D01*
X5260804Y20564674D01*
X5304674Y20520804D01*
X5339150Y20469207D01*
X5362895Y20411881D01*
X5375000Y20351026D01*
X5375000Y20288974D01*
X5362895Y20228119D01*
X5339150Y20170793D01*
X5304674Y20119196D01*
X5260804Y20075326D01*
X5209207Y20040850D01*
X5175627Y20026941D01*
X5151882Y20017105D01*
X5121453Y20011052D01*
X5091026Y20005000D01*
X5028974Y20005000D01*
X4998547Y20011052D01*
X4968118Y20017105D01*
X4944373Y20026941D01*
X4910793Y20040850D01*
X4859196Y20075326D01*
X4815326Y20119196D01*
X4780850Y20170793D01*
X4757105Y20228119D01*
X4745000Y20288974D01*
X4745000Y20351026D01*
X4757105Y20411881D01*
X4780850Y20469207D01*
X4815326Y20520804D01*
X4859196Y20564674D01*
X4910793Y20599150D01*
X4944373Y20613059D01*
X4968118Y20622895D01*
X4998546Y20628947D01*
X5028974Y20635000D01*
X5091026Y20635000D01*
X5121454Y20628947D01*
X5121454Y20628947D01*
G37*
G36*
X15321454Y25728947D02*
X15351882Y25722895D01*
X15375627Y25713059D01*
X15409207Y25699150D01*
X15460804Y25664674D01*
X15504674Y25620804D01*
X15539150Y25569207D01*
X15562895Y25511881D01*
X15575000Y25451026D01*
X15575000Y25388974D01*
X15562895Y25328119D01*
X15539150Y25270793D01*
X15504674Y25219196D01*
X15460804Y25175326D01*
X15409207Y25140850D01*
X15375627Y25126941D01*
X15351882Y25117105D01*
X15321453Y25111052D01*
X15291026Y25105000D01*
X15228974Y25105000D01*
X15198547Y25111052D01*
X15168118Y25117105D01*
X15144373Y25126941D01*
X15110793Y25140850D01*
X15059196Y25175326D01*
X15015326Y25219196D01*
X14980850Y25270793D01*
X14957105Y25328119D01*
X14945000Y25388974D01*
X14945000Y25451026D01*
X14957105Y25511881D01*
X14980850Y25569207D01*
X15015326Y25620804D01*
X15059196Y25664674D01*
X15110793Y25699150D01*
X15144373Y25713059D01*
X15168118Y25722895D01*
X15198546Y25728947D01*
X15228974Y25735000D01*
X15291026Y25735000D01*
X15321454Y25728947D01*
X15321454Y25728947D01*
G37*
G36*
X10221454Y25728947D02*
X10251882Y25722895D01*
X10275627Y25713059D01*
X10309207Y25699150D01*
X10360804Y25664674D01*
X10404674Y25620804D01*
X10439150Y25569207D01*
X10462895Y25511881D01*
X10475000Y25451026D01*
X10475000Y25388974D01*
X10462895Y25328119D01*
X10439150Y25270793D01*
X10404674Y25219196D01*
X10360804Y25175326D01*
X10309207Y25140850D01*
X10275627Y25126941D01*
X10251882Y25117105D01*
X10221453Y25111052D01*
X10191026Y25105000D01*
X10128974Y25105000D01*
X10098547Y25111052D01*
X10068118Y25117105D01*
X10044373Y25126941D01*
X10010793Y25140850D01*
X9959196Y25175326D01*
X9915326Y25219196D01*
X9880850Y25270793D01*
X9857105Y25328119D01*
X9845000Y25388974D01*
X9845000Y25451026D01*
X9857105Y25511881D01*
X9880850Y25569207D01*
X9915326Y25620804D01*
X9959196Y25664674D01*
X10010793Y25699150D01*
X10044373Y25713059D01*
X10068118Y25722895D01*
X10098546Y25728947D01*
X10128974Y25735000D01*
X10191026Y25735000D01*
X10221454Y25728947D01*
X10221454Y25728947D01*
G37*
G36*
X5121454Y25728947D02*
X5151882Y25722895D01*
X5175627Y25713059D01*
X5209207Y25699150D01*
X5260804Y25664674D01*
X5304674Y25620804D01*
X5339150Y25569207D01*
X5362895Y25511881D01*
X5375000Y25451026D01*
X5375000Y25388974D01*
X5362895Y25328119D01*
X5339150Y25270793D01*
X5304674Y25219196D01*
X5260804Y25175326D01*
X5209207Y25140850D01*
X5175627Y25126941D01*
X5151882Y25117105D01*
X5121453Y25111052D01*
X5091026Y25105000D01*
X5028974Y25105000D01*
X4998547Y25111052D01*
X4968118Y25117105D01*
X4944373Y25126941D01*
X4910793Y25140850D01*
X4859196Y25175326D01*
X4815326Y25219196D01*
X4780850Y25270793D01*
X4757105Y25328119D01*
X4745000Y25388974D01*
X4745000Y25451026D01*
X4757105Y25511881D01*
X4780850Y25569207D01*
X4815326Y25620804D01*
X4859196Y25664674D01*
X4910793Y25699150D01*
X4944373Y25713059D01*
X4968118Y25722895D01*
X4998546Y25728947D01*
X5028974Y25735000D01*
X5091026Y25735000D01*
X5121454Y25728947D01*
X5121454Y25728947D01*
G37*
G36*
X6013405Y38637026D02*
X6595767Y38395804D01*
X7119884Y38045600D01*
X7565600Y37599884D01*
X7915804Y37075767D01*
X8157026Y36493405D01*
X8280000Y35875174D01*
X8280000Y35244826D01*
X8157026Y34626595D01*
X7915804Y34044233D01*
X7565600Y33520116D01*
X7119884Y33074400D01*
X6595767Y32724196D01*
X6013405Y32482974D01*
X5395174Y32360000D01*
X4764826Y32360000D01*
X4146595Y32482974D01*
X3564233Y32724196D01*
X3040116Y33074400D01*
X2594400Y33520116D01*
X2244196Y34044233D01*
X2002974Y34626595D01*
X1880000Y35244826D01*
X1880000Y35875174D01*
X2002974Y36493405D01*
X2244196Y37075767D01*
X2594400Y37599884D01*
X3040116Y38045600D01*
X3564233Y38395804D01*
X4146595Y38637026D01*
X4764826Y38760000D01*
X5395174Y38760000D01*
X6013405Y38637026D01*
X6013405Y38637026D01*
G37*
G36*
X16173405Y38637026D02*
X16755767Y38395804D01*
X17279884Y38045600D01*
X17725600Y37599884D01*
X18075804Y37075767D01*
X18317026Y36493405D01*
X18440000Y35875174D01*
X18440000Y35244826D01*
X18317026Y34626595D01*
X18075804Y34044233D01*
X17725600Y33520116D01*
X17279884Y33074400D01*
X16755767Y32724196D01*
X16173405Y32482974D01*
X15555174Y32360000D01*
X14924826Y32360000D01*
X14306595Y32482974D01*
X13724233Y32724196D01*
X13200116Y33074400D01*
X12754400Y33520116D01*
X12404196Y34044233D01*
X12162974Y34626595D01*
X12040000Y35244826D01*
X12040000Y35875174D01*
X12162974Y36493405D01*
X12404196Y37075767D01*
X12754400Y37599884D01*
X13200116Y38045600D01*
X13724233Y38395804D01*
X14306595Y38637026D01*
X14924826Y38760000D01*
X15555174Y38760000D01*
X16173405Y38637026D01*
X16173405Y38637026D01*
G37*
M02*
