G04 #@! TF.GenerationSoftware,KiCad,Pcbnew,6.0.0-rc1-unknown-f68581d~66~ubuntu16.04.1*
G04 #@! TF.CreationDate,2018-09-30T17:07:12+02:00*
G04 #@! TF.ProjectId,SIPM01A,5349504D3031412E6B696361645F7063,rev?*
G04 #@! TF.SameCoordinates,Original*
G04 #@! TF.FileFunction,Copper,L1,Top,Signal*
G04 #@! TF.FilePolarity,Positive*
%FSLAX46Y46*%
G04 Gerber Fmt 4.6, Leading zero omitted, Abs format (unit mm)*
G04 Created by KiCad (PCBNEW 6.0.0-rc1-unknown-f68581d~66~ubuntu16.04.1) date Sun Sep 30 17:07:12 2018*
%MOMM*%
%LPD*%
G01*
G04 APERTURE LIST*
G04 #@! TA.AperFunction,ComponentPad*
%ADD10C,6.000000*%
G04 #@! TD*
G04 #@! TA.AperFunction,BGAPad,CuDef*
%ADD11C,0.230000*%
G04 #@! TD*
G04 #@! TA.AperFunction,ComponentPad*
%ADD12R,1.524000X1.524000*%
G04 #@! TD*
G04 #@! TA.AperFunction,ViaPad*
%ADD13C,0.800000*%
G04 #@! TD*
G04 #@! TA.AperFunction,Conductor*
%ADD14C,0.250000*%
G04 #@! TD*
G04 #@! TA.AperFunction,Conductor*
%ADD15C,0.800000*%
G04 #@! TD*
G04 #@! TA.AperFunction,Conductor*
%ADD16C,0.254000*%
G04 #@! TD*
G04 APERTURE END LIST*
D10*
G04 #@! TO.P,M1,1*
G04 #@! TO.N,GND*
X15240000Y35560000D03*
G04 #@! TD*
G04 #@! TO.P,M2,1*
G04 #@! TO.N,GND*
X5080000Y5080000D03*
G04 #@! TD*
G04 #@! TO.P,M3,1*
G04 #@! TO.N,GND*
X5080000Y35560000D03*
G04 #@! TD*
G04 #@! TO.P,M4,1*
G04 #@! TO.N,GND*
X15240000Y5080000D03*
G04 #@! TD*
D11*
G04 #@! TO.P,U1,A3*
G04 #@! TO.N,/K*
X18003200Y25293000D03*
G04 #@! TO.P,U1,B3*
X18003200Y20193000D03*
G04 #@! TO.P,U1,C3*
X18003200Y15093000D03*
G04 #@! TO.P,U1,C2*
X12903200Y15093000D03*
G04 #@! TO.P,U1,C1*
X7803200Y15093000D03*
G04 #@! TO.P,U1,B1*
G04 #@! TO.N,/U3*
X7803200Y20193000D03*
G04 #@! TO.P,U1,B2*
G04 #@! TO.N,/U4*
X12903200Y20193000D03*
G04 #@! TO.P,U1,A2*
G04 #@! TO.N,/U2*
X12903200Y25293000D03*
G04 #@! TO.P,U1,A1*
G04 #@! TO.N,/U1*
X7803200Y25293000D03*
G04 #@! TD*
D12*
G04 #@! TO.P,J1,1*
G04 #@! TO.N,/U1in*
X4445000Y11430000D03*
G04 #@! TD*
G04 #@! TO.P,J2,1*
G04 #@! TO.N,/U2in*
X6985000Y11430000D03*
G04 #@! TD*
G04 #@! TO.P,J3,1*
G04 #@! TO.N,/U3in*
X9525000Y11430000D03*
G04 #@! TD*
G04 #@! TO.P,J4,1*
G04 #@! TO.N,/U4in*
X12065000Y11430000D03*
G04 #@! TD*
G04 #@! TO.P,J7,1*
G04 #@! TO.N,/+*
X14605000Y11430000D03*
G04 #@! TD*
D13*
G04 #@! TO.N,/U1*
X4445000Y27487500D03*
G04 #@! TO.N,/U2*
X13970000Y24765000D03*
G04 #@! TO.N,/U3*
X10160000Y19232500D03*
G04 #@! TO.N,/U4*
X13970000Y19232500D03*
G04 #@! TO.N,GND*
X15875000Y26035000D03*
G04 #@! TO.N,/U2in*
X6350000Y22860000D03*
G04 #@! TO.N,/K*
X18034000Y30670500D03*
G04 #@! TD*
D14*
G04 #@! TO.N,/U1*
X6639500Y25293000D02*
X4445000Y27487500D01*
X7803200Y25293000D02*
X6639500Y25293000D01*
G04 #@! TO.N,/U2*
X12903200Y25293000D02*
X13442000Y25293000D01*
X13442000Y25293000D02*
X13970000Y24765000D01*
G04 #@! TO.N,/U3*
X9199500Y20193000D02*
X10160000Y19232500D01*
X7803200Y20193000D02*
X9199500Y20193000D01*
G04 #@! TO.N,/U4*
X13009500Y20193000D02*
X13970000Y19232500D01*
X12903200Y20193000D02*
X13009500Y20193000D01*
D15*
G04 #@! TO.N,/U2in*
X6350000Y22860000D02*
X6350000Y12065000D01*
X6350000Y12065000D02*
X6985000Y11430000D01*
D14*
G04 #@! TO.N,/K*
X18003200Y30639700D02*
X18034000Y30670500D01*
X18003200Y25293000D02*
X18003200Y30639700D01*
X18003200Y20096800D02*
X18003200Y25293000D01*
X18003200Y15093000D02*
X18003200Y20096800D01*
X12903200Y15093000D02*
X18003200Y15093000D01*
X7803200Y15093000D02*
X12903200Y15093000D01*
G04 #@! TD*
D16*
G04 #@! TO.N,GND*
G36*
X19331000Y989000D02*
X989000Y989000D01*
X989000Y12192000D01*
X3035560Y12192000D01*
X3035560Y10668000D01*
X3084843Y10420235D01*
X3225191Y10210191D01*
X3435235Y10069843D01*
X3683000Y10020560D01*
X5207000Y10020560D01*
X5454765Y10069843D01*
X5664809Y10210191D01*
X5715000Y10285307D01*
X5765191Y10210191D01*
X5975235Y10069843D01*
X6223000Y10020560D01*
X7747000Y10020560D01*
X7994765Y10069843D01*
X8204809Y10210191D01*
X8255000Y10285307D01*
X8305191Y10210191D01*
X8515235Y10069843D01*
X8763000Y10020560D01*
X10287000Y10020560D01*
X10534765Y10069843D01*
X10744809Y10210191D01*
X10795000Y10285307D01*
X10845191Y10210191D01*
X11055235Y10069843D01*
X11303000Y10020560D01*
X12827000Y10020560D01*
X13074765Y10069843D01*
X13284809Y10210191D01*
X13335000Y10285307D01*
X13385191Y10210191D01*
X13595235Y10069843D01*
X13843000Y10020560D01*
X15367000Y10020560D01*
X15614765Y10069843D01*
X15824809Y10210191D01*
X15965157Y10420235D01*
X16014440Y10668000D01*
X16014440Y12192000D01*
X15965157Y12439765D01*
X15824809Y12649809D01*
X15614765Y12790157D01*
X15367000Y12839440D01*
X13843000Y12839440D01*
X13595235Y12790157D01*
X13385191Y12649809D01*
X13335000Y12574693D01*
X13284809Y12649809D01*
X13074765Y12790157D01*
X12827000Y12839440D01*
X11303000Y12839440D01*
X11055235Y12790157D01*
X10845191Y12649809D01*
X10795000Y12574693D01*
X10744809Y12649809D01*
X10534765Y12790157D01*
X10287000Y12839440D01*
X8763000Y12839440D01*
X8515235Y12790157D01*
X8305191Y12649809D01*
X8255000Y12574693D01*
X8204809Y12649809D01*
X7994765Y12790157D01*
X7747000Y12839440D01*
X7385000Y12839440D01*
X7385000Y14454430D01*
X7400587Y14447974D01*
X7506663Y14377096D01*
X7631789Y14352207D01*
X7654016Y14343000D01*
X7678075Y14343000D01*
X7728348Y14333000D01*
X17928348Y14333000D01*
X18003200Y14318111D01*
X18078052Y14333000D01*
X18128325Y14343000D01*
X18152384Y14343000D01*
X18174611Y14352207D01*
X18299737Y14377096D01*
X18405813Y14447974D01*
X18428041Y14457181D01*
X18445054Y14474194D01*
X18551129Y14545071D01*
X18622006Y14651146D01*
X18639019Y14668159D01*
X18648226Y14690387D01*
X18719104Y14796463D01*
X18743993Y14921589D01*
X18753200Y14943816D01*
X18753200Y14967875D01*
X18778089Y15093000D01*
X18763200Y15167852D01*
X18763200Y29935989D01*
X18911431Y30084220D01*
X19069000Y30464626D01*
X19069000Y30876374D01*
X18911431Y31256780D01*
X18620280Y31547931D01*
X18239874Y31705500D01*
X17828126Y31705500D01*
X17447720Y31547931D01*
X17156569Y31256780D01*
X16999000Y30876374D01*
X16999000Y30464626D01*
X17156569Y30084220D01*
X17243201Y29997588D01*
X17243200Y25218149D01*
X17243201Y25218144D01*
X17243200Y20021949D01*
X17243201Y20021944D01*
X17243200Y15853000D01*
X7728348Y15853000D01*
X7678075Y15843000D01*
X7654016Y15843000D01*
X7631789Y15833793D01*
X7506663Y15808904D01*
X7400587Y15738026D01*
X7385000Y15731570D01*
X7385000Y19554430D01*
X7400587Y19547974D01*
X7506663Y19477096D01*
X7631789Y19452207D01*
X7654016Y19443000D01*
X7678075Y19443000D01*
X7728348Y19433000D01*
X8884699Y19433000D01*
X9125000Y19192699D01*
X9125000Y19026626D01*
X9282569Y18646220D01*
X9573720Y18355069D01*
X9954126Y18197500D01*
X10365874Y18197500D01*
X10746280Y18355069D01*
X11037431Y18646220D01*
X11195000Y19026626D01*
X11195000Y19438374D01*
X11037431Y19818780D01*
X10746280Y20109931D01*
X10545734Y20193000D01*
X12128311Y20193000D01*
X12153200Y20067875D01*
X12153200Y20043816D01*
X12162407Y20021589D01*
X12187296Y19896463D01*
X12258174Y19790387D01*
X12267381Y19768159D01*
X12284394Y19751146D01*
X12355271Y19645071D01*
X12461346Y19574194D01*
X12478359Y19557181D01*
X12500587Y19547974D01*
X12606663Y19477096D01*
X12661513Y19466186D01*
X12935000Y19192699D01*
X12935000Y19026626D01*
X13092569Y18646220D01*
X13383720Y18355069D01*
X13764126Y18197500D01*
X14175874Y18197500D01*
X14556280Y18355069D01*
X14847431Y18646220D01*
X15005000Y19026626D01*
X15005000Y19438374D01*
X14847431Y19818780D01*
X14556280Y20109931D01*
X14175874Y20267500D01*
X14009801Y20267500D01*
X13599831Y20677470D01*
X13557429Y20740929D01*
X13306037Y20908904D01*
X13084352Y20953000D01*
X13084347Y20953000D01*
X13009500Y20967888D01*
X12934653Y20953000D01*
X12828348Y20953000D01*
X12778075Y20943000D01*
X12754016Y20943000D01*
X12731789Y20933793D01*
X12606663Y20908904D01*
X12500587Y20838026D01*
X12478359Y20828819D01*
X12461346Y20811806D01*
X12355271Y20740929D01*
X12284394Y20634854D01*
X12267381Y20617841D01*
X12258174Y20595613D01*
X12187296Y20489537D01*
X12162407Y20364411D01*
X12153200Y20342184D01*
X12153200Y20318125D01*
X12128311Y20193000D01*
X10545734Y20193000D01*
X10365874Y20267500D01*
X10199801Y20267500D01*
X9789831Y20677470D01*
X9747429Y20740929D01*
X9496037Y20908904D01*
X9274352Y20953000D01*
X9274347Y20953000D01*
X9199500Y20967888D01*
X9124653Y20953000D01*
X7728348Y20953000D01*
X7678075Y20943000D01*
X7654016Y20943000D01*
X7631789Y20933793D01*
X7506663Y20908904D01*
X7400587Y20838026D01*
X7385000Y20831570D01*
X7385000Y23065874D01*
X7345224Y23161901D01*
X7324948Y23263837D01*
X7267207Y23350253D01*
X7227431Y23446280D01*
X7153935Y23519776D01*
X7096193Y23606193D01*
X7009777Y23663934D01*
X6936280Y23737431D01*
X6840251Y23777207D01*
X6753836Y23834948D01*
X6651902Y23855224D01*
X6555874Y23895000D01*
X6451934Y23895000D01*
X6350000Y23915276D01*
X6248065Y23895000D01*
X6144126Y23895000D01*
X6048098Y23855224D01*
X5946163Y23834948D01*
X5859747Y23777207D01*
X5763720Y23737431D01*
X5690224Y23663935D01*
X5603807Y23606193D01*
X5546066Y23519777D01*
X5472569Y23446280D01*
X5432793Y23350251D01*
X5375052Y23263836D01*
X5354776Y23161902D01*
X5315000Y23065874D01*
X5315000Y22961934D01*
X5315001Y12817958D01*
X5207000Y12839440D01*
X3683000Y12839440D01*
X3435235Y12790157D01*
X3225191Y12649809D01*
X3084843Y12439765D01*
X3035560Y12192000D01*
X989000Y12192000D01*
X989000Y27693374D01*
X3410000Y27693374D01*
X3410000Y27281626D01*
X3567569Y26901220D01*
X3858720Y26610069D01*
X4239126Y26452500D01*
X4405199Y26452500D01*
X6049170Y24808528D01*
X6091571Y24745071D01*
X6155027Y24702671D01*
X6342962Y24577096D01*
X6391105Y24567520D01*
X6564648Y24533000D01*
X6564652Y24533000D01*
X6639500Y24518112D01*
X6714348Y24533000D01*
X7878052Y24533000D01*
X7928325Y24543000D01*
X7952384Y24543000D01*
X7974611Y24552207D01*
X8099737Y24577096D01*
X8205813Y24647974D01*
X8228041Y24657181D01*
X8245054Y24674194D01*
X8351129Y24745071D01*
X8422006Y24851146D01*
X8439019Y24868159D01*
X8448226Y24890387D01*
X8519104Y24996463D01*
X8543993Y25121589D01*
X8553200Y25143816D01*
X8553200Y25167875D01*
X8578089Y25293000D01*
X12128311Y25293000D01*
X12153200Y25167875D01*
X12153200Y25143816D01*
X12162407Y25121589D01*
X12187296Y24996463D01*
X12258174Y24890387D01*
X12267381Y24868159D01*
X12284394Y24851146D01*
X12355271Y24745071D01*
X12461346Y24674194D01*
X12478359Y24657181D01*
X12500587Y24647974D01*
X12606663Y24577096D01*
X12731789Y24552207D01*
X12754016Y24543000D01*
X12778075Y24543000D01*
X12828348Y24533000D01*
X12945822Y24533000D01*
X13092569Y24178720D01*
X13383720Y23887569D01*
X13764126Y23730000D01*
X14175874Y23730000D01*
X14556280Y23887569D01*
X14847431Y24178720D01*
X15005000Y24559126D01*
X15005000Y24970874D01*
X14847431Y25351280D01*
X14556280Y25642431D01*
X14175874Y25800000D01*
X14017277Y25800000D01*
X13989929Y25840929D01*
X13738537Y26008904D01*
X13516852Y26053000D01*
X13516847Y26053000D01*
X13442000Y26067888D01*
X13367153Y26053000D01*
X12828348Y26053000D01*
X12778075Y26043000D01*
X12754016Y26043000D01*
X12731789Y26033793D01*
X12606663Y26008904D01*
X12500587Y25938026D01*
X12478359Y25928819D01*
X12461346Y25911806D01*
X12355271Y25840929D01*
X12284394Y25734854D01*
X12267381Y25717841D01*
X12258174Y25695613D01*
X12187296Y25589537D01*
X12162407Y25464411D01*
X12153200Y25442184D01*
X12153200Y25418125D01*
X12128311Y25293000D01*
X8578089Y25293000D01*
X8553200Y25418125D01*
X8553200Y25442184D01*
X8543993Y25464411D01*
X8519104Y25589537D01*
X8448226Y25695613D01*
X8439019Y25717841D01*
X8422006Y25734854D01*
X8351129Y25840929D01*
X8245054Y25911806D01*
X8228041Y25928819D01*
X8205813Y25938026D01*
X8099737Y26008904D01*
X7974611Y26033793D01*
X7952384Y26043000D01*
X7928325Y26043000D01*
X7878052Y26053000D01*
X6954302Y26053000D01*
X5480000Y27527301D01*
X5480000Y27693374D01*
X5322431Y28073780D01*
X5031280Y28364931D01*
X4650874Y28522500D01*
X4239126Y28522500D01*
X3858720Y28364931D01*
X3567569Y28073780D01*
X3410000Y27693374D01*
X989000Y27693374D01*
X989000Y39651000D01*
X19331001Y39651000D01*
X19331000Y989000D01*
X19331000Y989000D01*
G37*
X19331000Y989000D02*
X989000Y989000D01*
X989000Y12192000D01*
X3035560Y12192000D01*
X3035560Y10668000D01*
X3084843Y10420235D01*
X3225191Y10210191D01*
X3435235Y10069843D01*
X3683000Y10020560D01*
X5207000Y10020560D01*
X5454765Y10069843D01*
X5664809Y10210191D01*
X5715000Y10285307D01*
X5765191Y10210191D01*
X5975235Y10069843D01*
X6223000Y10020560D01*
X7747000Y10020560D01*
X7994765Y10069843D01*
X8204809Y10210191D01*
X8255000Y10285307D01*
X8305191Y10210191D01*
X8515235Y10069843D01*
X8763000Y10020560D01*
X10287000Y10020560D01*
X10534765Y10069843D01*
X10744809Y10210191D01*
X10795000Y10285307D01*
X10845191Y10210191D01*
X11055235Y10069843D01*
X11303000Y10020560D01*
X12827000Y10020560D01*
X13074765Y10069843D01*
X13284809Y10210191D01*
X13335000Y10285307D01*
X13385191Y10210191D01*
X13595235Y10069843D01*
X13843000Y10020560D01*
X15367000Y10020560D01*
X15614765Y10069843D01*
X15824809Y10210191D01*
X15965157Y10420235D01*
X16014440Y10668000D01*
X16014440Y12192000D01*
X15965157Y12439765D01*
X15824809Y12649809D01*
X15614765Y12790157D01*
X15367000Y12839440D01*
X13843000Y12839440D01*
X13595235Y12790157D01*
X13385191Y12649809D01*
X13335000Y12574693D01*
X13284809Y12649809D01*
X13074765Y12790157D01*
X12827000Y12839440D01*
X11303000Y12839440D01*
X11055235Y12790157D01*
X10845191Y12649809D01*
X10795000Y12574693D01*
X10744809Y12649809D01*
X10534765Y12790157D01*
X10287000Y12839440D01*
X8763000Y12839440D01*
X8515235Y12790157D01*
X8305191Y12649809D01*
X8255000Y12574693D01*
X8204809Y12649809D01*
X7994765Y12790157D01*
X7747000Y12839440D01*
X7385000Y12839440D01*
X7385000Y14454430D01*
X7400587Y14447974D01*
X7506663Y14377096D01*
X7631789Y14352207D01*
X7654016Y14343000D01*
X7678075Y14343000D01*
X7728348Y14333000D01*
X17928348Y14333000D01*
X18003200Y14318111D01*
X18078052Y14333000D01*
X18128325Y14343000D01*
X18152384Y14343000D01*
X18174611Y14352207D01*
X18299737Y14377096D01*
X18405813Y14447974D01*
X18428041Y14457181D01*
X18445054Y14474194D01*
X18551129Y14545071D01*
X18622006Y14651146D01*
X18639019Y14668159D01*
X18648226Y14690387D01*
X18719104Y14796463D01*
X18743993Y14921589D01*
X18753200Y14943816D01*
X18753200Y14967875D01*
X18778089Y15093000D01*
X18763200Y15167852D01*
X18763200Y29935989D01*
X18911431Y30084220D01*
X19069000Y30464626D01*
X19069000Y30876374D01*
X18911431Y31256780D01*
X18620280Y31547931D01*
X18239874Y31705500D01*
X17828126Y31705500D01*
X17447720Y31547931D01*
X17156569Y31256780D01*
X16999000Y30876374D01*
X16999000Y30464626D01*
X17156569Y30084220D01*
X17243201Y29997588D01*
X17243200Y25218149D01*
X17243201Y25218144D01*
X17243200Y20021949D01*
X17243201Y20021944D01*
X17243200Y15853000D01*
X7728348Y15853000D01*
X7678075Y15843000D01*
X7654016Y15843000D01*
X7631789Y15833793D01*
X7506663Y15808904D01*
X7400587Y15738026D01*
X7385000Y15731570D01*
X7385000Y19554430D01*
X7400587Y19547974D01*
X7506663Y19477096D01*
X7631789Y19452207D01*
X7654016Y19443000D01*
X7678075Y19443000D01*
X7728348Y19433000D01*
X8884699Y19433000D01*
X9125000Y19192699D01*
X9125000Y19026626D01*
X9282569Y18646220D01*
X9573720Y18355069D01*
X9954126Y18197500D01*
X10365874Y18197500D01*
X10746280Y18355069D01*
X11037431Y18646220D01*
X11195000Y19026626D01*
X11195000Y19438374D01*
X11037431Y19818780D01*
X10746280Y20109931D01*
X10545734Y20193000D01*
X12128311Y20193000D01*
X12153200Y20067875D01*
X12153200Y20043816D01*
X12162407Y20021589D01*
X12187296Y19896463D01*
X12258174Y19790387D01*
X12267381Y19768159D01*
X12284394Y19751146D01*
X12355271Y19645071D01*
X12461346Y19574194D01*
X12478359Y19557181D01*
X12500587Y19547974D01*
X12606663Y19477096D01*
X12661513Y19466186D01*
X12935000Y19192699D01*
X12935000Y19026626D01*
X13092569Y18646220D01*
X13383720Y18355069D01*
X13764126Y18197500D01*
X14175874Y18197500D01*
X14556280Y18355069D01*
X14847431Y18646220D01*
X15005000Y19026626D01*
X15005000Y19438374D01*
X14847431Y19818780D01*
X14556280Y20109931D01*
X14175874Y20267500D01*
X14009801Y20267500D01*
X13599831Y20677470D01*
X13557429Y20740929D01*
X13306037Y20908904D01*
X13084352Y20953000D01*
X13084347Y20953000D01*
X13009500Y20967888D01*
X12934653Y20953000D01*
X12828348Y20953000D01*
X12778075Y20943000D01*
X12754016Y20943000D01*
X12731789Y20933793D01*
X12606663Y20908904D01*
X12500587Y20838026D01*
X12478359Y20828819D01*
X12461346Y20811806D01*
X12355271Y20740929D01*
X12284394Y20634854D01*
X12267381Y20617841D01*
X12258174Y20595613D01*
X12187296Y20489537D01*
X12162407Y20364411D01*
X12153200Y20342184D01*
X12153200Y20318125D01*
X12128311Y20193000D01*
X10545734Y20193000D01*
X10365874Y20267500D01*
X10199801Y20267500D01*
X9789831Y20677470D01*
X9747429Y20740929D01*
X9496037Y20908904D01*
X9274352Y20953000D01*
X9274347Y20953000D01*
X9199500Y20967888D01*
X9124653Y20953000D01*
X7728348Y20953000D01*
X7678075Y20943000D01*
X7654016Y20943000D01*
X7631789Y20933793D01*
X7506663Y20908904D01*
X7400587Y20838026D01*
X7385000Y20831570D01*
X7385000Y23065874D01*
X7345224Y23161901D01*
X7324948Y23263837D01*
X7267207Y23350253D01*
X7227431Y23446280D01*
X7153935Y23519776D01*
X7096193Y23606193D01*
X7009777Y23663934D01*
X6936280Y23737431D01*
X6840251Y23777207D01*
X6753836Y23834948D01*
X6651902Y23855224D01*
X6555874Y23895000D01*
X6451934Y23895000D01*
X6350000Y23915276D01*
X6248065Y23895000D01*
X6144126Y23895000D01*
X6048098Y23855224D01*
X5946163Y23834948D01*
X5859747Y23777207D01*
X5763720Y23737431D01*
X5690224Y23663935D01*
X5603807Y23606193D01*
X5546066Y23519777D01*
X5472569Y23446280D01*
X5432793Y23350251D01*
X5375052Y23263836D01*
X5354776Y23161902D01*
X5315000Y23065874D01*
X5315000Y22961934D01*
X5315001Y12817958D01*
X5207000Y12839440D01*
X3683000Y12839440D01*
X3435235Y12790157D01*
X3225191Y12649809D01*
X3084843Y12439765D01*
X3035560Y12192000D01*
X989000Y12192000D01*
X989000Y27693374D01*
X3410000Y27693374D01*
X3410000Y27281626D01*
X3567569Y26901220D01*
X3858720Y26610069D01*
X4239126Y26452500D01*
X4405199Y26452500D01*
X6049170Y24808528D01*
X6091571Y24745071D01*
X6155027Y24702671D01*
X6342962Y24577096D01*
X6391105Y24567520D01*
X6564648Y24533000D01*
X6564652Y24533000D01*
X6639500Y24518112D01*
X6714348Y24533000D01*
X7878052Y24533000D01*
X7928325Y24543000D01*
X7952384Y24543000D01*
X7974611Y24552207D01*
X8099737Y24577096D01*
X8205813Y24647974D01*
X8228041Y24657181D01*
X8245054Y24674194D01*
X8351129Y24745071D01*
X8422006Y24851146D01*
X8439019Y24868159D01*
X8448226Y24890387D01*
X8519104Y24996463D01*
X8543993Y25121589D01*
X8553200Y25143816D01*
X8553200Y25167875D01*
X8578089Y25293000D01*
X12128311Y25293000D01*
X12153200Y25167875D01*
X12153200Y25143816D01*
X12162407Y25121589D01*
X12187296Y24996463D01*
X12258174Y24890387D01*
X12267381Y24868159D01*
X12284394Y24851146D01*
X12355271Y24745071D01*
X12461346Y24674194D01*
X12478359Y24657181D01*
X12500587Y24647974D01*
X12606663Y24577096D01*
X12731789Y24552207D01*
X12754016Y24543000D01*
X12778075Y24543000D01*
X12828348Y24533000D01*
X12945822Y24533000D01*
X13092569Y24178720D01*
X13383720Y23887569D01*
X13764126Y23730000D01*
X14175874Y23730000D01*
X14556280Y23887569D01*
X14847431Y24178720D01*
X15005000Y24559126D01*
X15005000Y24970874D01*
X14847431Y25351280D01*
X14556280Y25642431D01*
X14175874Y25800000D01*
X14017277Y25800000D01*
X13989929Y25840929D01*
X13738537Y26008904D01*
X13516852Y26053000D01*
X13516847Y26053000D01*
X13442000Y26067888D01*
X13367153Y26053000D01*
X12828348Y26053000D01*
X12778075Y26043000D01*
X12754016Y26043000D01*
X12731789Y26033793D01*
X12606663Y26008904D01*
X12500587Y25938026D01*
X12478359Y25928819D01*
X12461346Y25911806D01*
X12355271Y25840929D01*
X12284394Y25734854D01*
X12267381Y25717841D01*
X12258174Y25695613D01*
X12187296Y25589537D01*
X12162407Y25464411D01*
X12153200Y25442184D01*
X12153200Y25418125D01*
X12128311Y25293000D01*
X8578089Y25293000D01*
X8553200Y25418125D01*
X8553200Y25442184D01*
X8543993Y25464411D01*
X8519104Y25589537D01*
X8448226Y25695613D01*
X8439019Y25717841D01*
X8422006Y25734854D01*
X8351129Y25840929D01*
X8245054Y25911806D01*
X8228041Y25928819D01*
X8205813Y25938026D01*
X8099737Y26008904D01*
X7974611Y26033793D01*
X7952384Y26043000D01*
X7928325Y26043000D01*
X7878052Y26053000D01*
X6954302Y26053000D01*
X5480000Y27527301D01*
X5480000Y27693374D01*
X5322431Y28073780D01*
X5031280Y28364931D01*
X4650874Y28522500D01*
X4239126Y28522500D01*
X3858720Y28364931D01*
X3567569Y28073780D01*
X3410000Y27693374D01*
X989000Y27693374D01*
X989000Y39651000D01*
X19331001Y39651000D01*
X19331000Y989000D01*
G04 #@! TD*
M02*
