G04 #@! TF.GenerationSoftware,KiCad,Pcbnew,6.0.0-rc1-unknown-f68581d~66~ubuntu16.04.1*
G04 #@! TF.CreationDate,2018-09-30T17:07:12+02:00*
G04 #@! TF.ProjectId,SIPM01A,5349504D3031412E6B696361645F7063,rev?*
G04 #@! TF.SameCoordinates,Original*
G04 #@! TF.FileFunction,Soldermask,Top*
G04 #@! TF.FilePolarity,Negative*
%FSLAX46Y46*%
G04 Gerber Fmt 4.6, Leading zero omitted, Abs format (unit mm)*
G04 Created by KiCad (PCBNEW 6.0.0-rc1-unknown-f68581d~66~ubuntu16.04.1) date Sun Sep 30 17:07:12 2018*
%MOMM*%
%LPD*%
G01*
G04 APERTURE LIST*
%ADD10C,0.100000*%
G04 APERTURE END LIST*
D10*
G36*
X16173405Y8157026D02*
X16755767Y7915804D01*
X17279884Y7565600D01*
X17725600Y7119884D01*
X18075804Y6595767D01*
X18317026Y6013405D01*
X18440000Y5395174D01*
X18440000Y4764826D01*
X18317026Y4146595D01*
X18075804Y3564233D01*
X17725600Y3040116D01*
X17279884Y2594400D01*
X16755767Y2244196D01*
X16173405Y2002974D01*
X15555174Y1880000D01*
X14924826Y1880000D01*
X14306595Y2002974D01*
X13724233Y2244196D01*
X13200116Y2594400D01*
X12754400Y3040116D01*
X12404196Y3564233D01*
X12162974Y4146595D01*
X12040000Y4764826D01*
X12040000Y5395174D01*
X12162974Y6013405D01*
X12404196Y6595767D01*
X12754400Y7119884D01*
X13200116Y7565600D01*
X13724233Y7915804D01*
X14306595Y8157026D01*
X14924826Y8280000D01*
X15555174Y8280000D01*
X16173405Y8157026D01*
X16173405Y8157026D01*
G37*
G36*
X6013405Y8157026D02*
X6595767Y7915804D01*
X7119884Y7565600D01*
X7565600Y7119884D01*
X7915804Y6595767D01*
X8157026Y6013405D01*
X8280000Y5395174D01*
X8280000Y4764826D01*
X8157026Y4146595D01*
X7915804Y3564233D01*
X7565600Y3040116D01*
X7119884Y2594400D01*
X6595767Y2244196D01*
X6013405Y2002974D01*
X5395174Y1880000D01*
X4764826Y1880000D01*
X4146595Y2002974D01*
X3564233Y2244196D01*
X3040116Y2594400D01*
X2594400Y3040116D01*
X2244196Y3564233D01*
X2002974Y4146595D01*
X1880000Y4764826D01*
X1880000Y5395174D01*
X2002974Y6013405D01*
X2244196Y6595767D01*
X2594400Y7119884D01*
X3040116Y7565600D01*
X3564233Y7915804D01*
X4146595Y8157026D01*
X4764826Y8280000D01*
X5395174Y8280000D01*
X6013405Y8157026D01*
X6013405Y8157026D01*
G37*
G36*
X15567000Y10468000D02*
X13643000Y10468000D01*
X13643000Y12392000D01*
X15567000Y12392000D01*
X15567000Y10468000D01*
X15567000Y10468000D01*
G37*
G36*
X13027000Y10468000D02*
X11103000Y10468000D01*
X11103000Y12392000D01*
X13027000Y12392000D01*
X13027000Y10468000D01*
X13027000Y10468000D01*
G37*
G36*
X10487000Y10468000D02*
X8563000Y10468000D01*
X8563000Y12392000D01*
X10487000Y12392000D01*
X10487000Y10468000D01*
X10487000Y10468000D01*
G37*
G36*
X7947000Y10468000D02*
X6023000Y10468000D01*
X6023000Y12392000D01*
X7947000Y12392000D01*
X7947000Y10468000D01*
X7947000Y10468000D01*
G37*
G36*
X5407000Y10468000D02*
X3483000Y10468000D01*
X3483000Y12392000D01*
X5407000Y12392000D01*
X5407000Y10468000D01*
X5407000Y10468000D01*
G37*
G36*
X18064654Y15401947D02*
X18095082Y15395895D01*
X18118827Y15386059D01*
X18152407Y15372150D01*
X18204004Y15337674D01*
X18247874Y15293804D01*
X18282350Y15242207D01*
X18306095Y15184881D01*
X18318200Y15124026D01*
X18318200Y15061974D01*
X18306095Y15001119D01*
X18282350Y14943793D01*
X18247874Y14892196D01*
X18204004Y14848326D01*
X18152407Y14813850D01*
X18118827Y14799941D01*
X18095082Y14790105D01*
X18064653Y14784052D01*
X18034226Y14778000D01*
X17972174Y14778000D01*
X17941747Y14784052D01*
X17911318Y14790105D01*
X17887573Y14799941D01*
X17853993Y14813850D01*
X17802396Y14848326D01*
X17758526Y14892196D01*
X17724050Y14943793D01*
X17700305Y15001119D01*
X17688200Y15061974D01*
X17688200Y15124026D01*
X17700305Y15184881D01*
X17724050Y15242207D01*
X17758526Y15293804D01*
X17802396Y15337674D01*
X17853993Y15372150D01*
X17887573Y15386059D01*
X17911318Y15395895D01*
X17941746Y15401947D01*
X17972174Y15408000D01*
X18034226Y15408000D01*
X18064654Y15401947D01*
X18064654Y15401947D01*
G37*
G36*
X12964654Y15401947D02*
X12995082Y15395895D01*
X13018827Y15386059D01*
X13052407Y15372150D01*
X13104004Y15337674D01*
X13147874Y15293804D01*
X13182350Y15242207D01*
X13206095Y15184881D01*
X13218200Y15124026D01*
X13218200Y15061974D01*
X13206095Y15001119D01*
X13182350Y14943793D01*
X13147874Y14892196D01*
X13104004Y14848326D01*
X13052407Y14813850D01*
X13018827Y14799941D01*
X12995082Y14790105D01*
X12964653Y14784052D01*
X12934226Y14778000D01*
X12872174Y14778000D01*
X12841747Y14784052D01*
X12811318Y14790105D01*
X12787573Y14799941D01*
X12753993Y14813850D01*
X12702396Y14848326D01*
X12658526Y14892196D01*
X12624050Y14943793D01*
X12600305Y15001119D01*
X12588200Y15061974D01*
X12588200Y15124026D01*
X12600305Y15184881D01*
X12624050Y15242207D01*
X12658526Y15293804D01*
X12702396Y15337674D01*
X12753993Y15372150D01*
X12787573Y15386059D01*
X12811318Y15395895D01*
X12841746Y15401947D01*
X12872174Y15408000D01*
X12934226Y15408000D01*
X12964654Y15401947D01*
X12964654Y15401947D01*
G37*
G36*
X7864654Y15401947D02*
X7895082Y15395895D01*
X7918827Y15386059D01*
X7952407Y15372150D01*
X8004004Y15337674D01*
X8047874Y15293804D01*
X8082350Y15242207D01*
X8106095Y15184881D01*
X8118200Y15124026D01*
X8118200Y15061974D01*
X8106095Y15001119D01*
X8082350Y14943793D01*
X8047874Y14892196D01*
X8004004Y14848326D01*
X7952407Y14813850D01*
X7918827Y14799941D01*
X7895082Y14790105D01*
X7864653Y14784052D01*
X7834226Y14778000D01*
X7772174Y14778000D01*
X7741747Y14784052D01*
X7711318Y14790105D01*
X7687573Y14799941D01*
X7653993Y14813850D01*
X7602396Y14848326D01*
X7558526Y14892196D01*
X7524050Y14943793D01*
X7500305Y15001119D01*
X7488200Y15061974D01*
X7488200Y15124026D01*
X7500305Y15184881D01*
X7524050Y15242207D01*
X7558526Y15293804D01*
X7602396Y15337674D01*
X7653993Y15372150D01*
X7687573Y15386059D01*
X7711318Y15395895D01*
X7741746Y15401947D01*
X7772174Y15408000D01*
X7834226Y15408000D01*
X7864654Y15401947D01*
X7864654Y15401947D01*
G37*
G36*
X18064654Y20501947D02*
X18095082Y20495895D01*
X18118827Y20486059D01*
X18152407Y20472150D01*
X18204004Y20437674D01*
X18247874Y20393804D01*
X18282350Y20342207D01*
X18306095Y20284881D01*
X18318200Y20224026D01*
X18318200Y20161974D01*
X18306095Y20101119D01*
X18282350Y20043793D01*
X18247874Y19992196D01*
X18204004Y19948326D01*
X18152407Y19913850D01*
X18118827Y19899941D01*
X18095082Y19890105D01*
X18064653Y19884052D01*
X18034226Y19878000D01*
X17972174Y19878000D01*
X17941747Y19884052D01*
X17911318Y19890105D01*
X17887573Y19899941D01*
X17853993Y19913850D01*
X17802396Y19948326D01*
X17758526Y19992196D01*
X17724050Y20043793D01*
X17700305Y20101119D01*
X17688200Y20161974D01*
X17688200Y20224026D01*
X17700305Y20284881D01*
X17724050Y20342207D01*
X17758526Y20393804D01*
X17802396Y20437674D01*
X17853993Y20472150D01*
X17887573Y20486059D01*
X17911318Y20495895D01*
X17941746Y20501947D01*
X17972174Y20508000D01*
X18034226Y20508000D01*
X18064654Y20501947D01*
X18064654Y20501947D01*
G37*
G36*
X12964654Y20501947D02*
X12995082Y20495895D01*
X13018827Y20486059D01*
X13052407Y20472150D01*
X13104004Y20437674D01*
X13147874Y20393804D01*
X13182350Y20342207D01*
X13206095Y20284881D01*
X13218200Y20224026D01*
X13218200Y20161974D01*
X13206095Y20101119D01*
X13182350Y20043793D01*
X13147874Y19992196D01*
X13104004Y19948326D01*
X13052407Y19913850D01*
X13018827Y19899941D01*
X12995082Y19890105D01*
X12964653Y19884052D01*
X12934226Y19878000D01*
X12872174Y19878000D01*
X12841747Y19884052D01*
X12811318Y19890105D01*
X12787573Y19899941D01*
X12753993Y19913850D01*
X12702396Y19948326D01*
X12658526Y19992196D01*
X12624050Y20043793D01*
X12600305Y20101119D01*
X12588200Y20161974D01*
X12588200Y20224026D01*
X12600305Y20284881D01*
X12624050Y20342207D01*
X12658526Y20393804D01*
X12702396Y20437674D01*
X12753993Y20472150D01*
X12787573Y20486059D01*
X12811318Y20495895D01*
X12841746Y20501947D01*
X12872174Y20508000D01*
X12934226Y20508000D01*
X12964654Y20501947D01*
X12964654Y20501947D01*
G37*
G36*
X7864654Y20501947D02*
X7895082Y20495895D01*
X7918827Y20486059D01*
X7952407Y20472150D01*
X8004004Y20437674D01*
X8047874Y20393804D01*
X8082350Y20342207D01*
X8106095Y20284881D01*
X8118200Y20224026D01*
X8118200Y20161974D01*
X8106095Y20101119D01*
X8082350Y20043793D01*
X8047874Y19992196D01*
X8004004Y19948326D01*
X7952407Y19913850D01*
X7918827Y19899941D01*
X7895082Y19890105D01*
X7864653Y19884052D01*
X7834226Y19878000D01*
X7772174Y19878000D01*
X7741747Y19884052D01*
X7711318Y19890105D01*
X7687573Y19899941D01*
X7653993Y19913850D01*
X7602396Y19948326D01*
X7558526Y19992196D01*
X7524050Y20043793D01*
X7500305Y20101119D01*
X7488200Y20161974D01*
X7488200Y20224026D01*
X7500305Y20284881D01*
X7524050Y20342207D01*
X7558526Y20393804D01*
X7602396Y20437674D01*
X7653993Y20472150D01*
X7687573Y20486059D01*
X7711318Y20495895D01*
X7741746Y20501947D01*
X7772174Y20508000D01*
X7834226Y20508000D01*
X7864654Y20501947D01*
X7864654Y20501947D01*
G37*
G36*
X18064653Y25601948D02*
X18095082Y25595895D01*
X18118827Y25586059D01*
X18152407Y25572150D01*
X18204004Y25537674D01*
X18247874Y25493804D01*
X18282350Y25442207D01*
X18306095Y25384881D01*
X18318200Y25324026D01*
X18318200Y25261974D01*
X18306095Y25201119D01*
X18282350Y25143793D01*
X18247874Y25092196D01*
X18204004Y25048326D01*
X18152407Y25013850D01*
X18118827Y24999941D01*
X18095082Y24990105D01*
X18064654Y24984053D01*
X18034226Y24978000D01*
X17972174Y24978000D01*
X17941746Y24984053D01*
X17911318Y24990105D01*
X17887573Y24999941D01*
X17853993Y25013850D01*
X17802396Y25048326D01*
X17758526Y25092196D01*
X17724050Y25143793D01*
X17700305Y25201119D01*
X17688200Y25261974D01*
X17688200Y25324026D01*
X17700305Y25384881D01*
X17724050Y25442207D01*
X17758526Y25493804D01*
X17802396Y25537674D01*
X17853993Y25572150D01*
X17887573Y25586059D01*
X17911318Y25595895D01*
X17941747Y25601948D01*
X17972174Y25608000D01*
X18034226Y25608000D01*
X18064653Y25601948D01*
X18064653Y25601948D01*
G37*
G36*
X12964653Y25601948D02*
X12995082Y25595895D01*
X13018827Y25586059D01*
X13052407Y25572150D01*
X13104004Y25537674D01*
X13147874Y25493804D01*
X13182350Y25442207D01*
X13206095Y25384881D01*
X13218200Y25324026D01*
X13218200Y25261974D01*
X13206095Y25201119D01*
X13182350Y25143793D01*
X13147874Y25092196D01*
X13104004Y25048326D01*
X13052407Y25013850D01*
X13018827Y24999941D01*
X12995082Y24990105D01*
X12964654Y24984053D01*
X12934226Y24978000D01*
X12872174Y24978000D01*
X12841746Y24984053D01*
X12811318Y24990105D01*
X12787573Y24999941D01*
X12753993Y25013850D01*
X12702396Y25048326D01*
X12658526Y25092196D01*
X12624050Y25143793D01*
X12600305Y25201119D01*
X12588200Y25261974D01*
X12588200Y25324026D01*
X12600305Y25384881D01*
X12624050Y25442207D01*
X12658526Y25493804D01*
X12702396Y25537674D01*
X12753993Y25572150D01*
X12787573Y25586059D01*
X12811318Y25595895D01*
X12841747Y25601948D01*
X12872174Y25608000D01*
X12934226Y25608000D01*
X12964653Y25601948D01*
X12964653Y25601948D01*
G37*
G36*
X7864653Y25601948D02*
X7895082Y25595895D01*
X7918827Y25586059D01*
X7952407Y25572150D01*
X8004004Y25537674D01*
X8047874Y25493804D01*
X8082350Y25442207D01*
X8106095Y25384881D01*
X8118200Y25324026D01*
X8118200Y25261974D01*
X8106095Y25201119D01*
X8082350Y25143793D01*
X8047874Y25092196D01*
X8004004Y25048326D01*
X7952407Y25013850D01*
X7918827Y24999941D01*
X7895082Y24990105D01*
X7864654Y24984053D01*
X7834226Y24978000D01*
X7772174Y24978000D01*
X7741746Y24984053D01*
X7711318Y24990105D01*
X7687573Y24999941D01*
X7653993Y25013850D01*
X7602396Y25048326D01*
X7558526Y25092196D01*
X7524050Y25143793D01*
X7500305Y25201119D01*
X7488200Y25261974D01*
X7488200Y25324026D01*
X7500305Y25384881D01*
X7524050Y25442207D01*
X7558526Y25493804D01*
X7602396Y25537674D01*
X7653993Y25572150D01*
X7687573Y25586059D01*
X7711318Y25595895D01*
X7741747Y25601948D01*
X7772174Y25608000D01*
X7834226Y25608000D01*
X7864653Y25601948D01*
X7864653Y25601948D01*
G37*
G36*
X6013405Y38637026D02*
X6595767Y38395804D01*
X7119884Y38045600D01*
X7565600Y37599884D01*
X7915804Y37075767D01*
X8157026Y36493405D01*
X8280000Y35875174D01*
X8280000Y35244826D01*
X8157026Y34626595D01*
X7915804Y34044233D01*
X7565600Y33520116D01*
X7119884Y33074400D01*
X6595767Y32724196D01*
X6013405Y32482974D01*
X5395174Y32360000D01*
X4764826Y32360000D01*
X4146595Y32482974D01*
X3564233Y32724196D01*
X3040116Y33074400D01*
X2594400Y33520116D01*
X2244196Y34044233D01*
X2002974Y34626595D01*
X1880000Y35244826D01*
X1880000Y35875174D01*
X2002974Y36493405D01*
X2244196Y37075767D01*
X2594400Y37599884D01*
X3040116Y38045600D01*
X3564233Y38395804D01*
X4146595Y38637026D01*
X4764826Y38760000D01*
X5395174Y38760000D01*
X6013405Y38637026D01*
X6013405Y38637026D01*
G37*
G36*
X16173405Y38637026D02*
X16755767Y38395804D01*
X17279884Y38045600D01*
X17725600Y37599884D01*
X18075804Y37075767D01*
X18317026Y36493405D01*
X18440000Y35875174D01*
X18440000Y35244826D01*
X18317026Y34626595D01*
X18075804Y34044233D01*
X17725600Y33520116D01*
X17279884Y33074400D01*
X16755767Y32724196D01*
X16173405Y32482974D01*
X15555174Y32360000D01*
X14924826Y32360000D01*
X14306595Y32482974D01*
X13724233Y32724196D01*
X13200116Y33074400D01*
X12754400Y33520116D01*
X12404196Y34044233D01*
X12162974Y34626595D01*
X12040000Y35244826D01*
X12040000Y35875174D01*
X12162974Y36493405D01*
X12404196Y37075767D01*
X12754400Y37599884D01*
X13200116Y38045600D01*
X13724233Y38395804D01*
X14306595Y38637026D01*
X14924826Y38760000D01*
X15555174Y38760000D01*
X16173405Y38637026D01*
X16173405Y38637026D01*
G37*
M02*
