G04 #@! TF.GenerationSoftware,KiCad,Pcbnew,6.0.0-rc1-unknown-f68581d~66~ubuntu16.04.1*
G04 #@! TF.CreationDate,2018-09-30T17:07:12+02:00*
G04 #@! TF.ProjectId,SIPM01A,5349504D3031412E6B696361645F7063,rev?*
G04 #@! TF.SameCoordinates,Original*
G04 #@! TF.FileFunction,Legend,Top*
G04 #@! TF.FilePolarity,Positive*
%FSLAX46Y46*%
G04 Gerber Fmt 4.6, Leading zero omitted, Abs format (unit mm)*
G04 Created by KiCad (PCBNEW 6.0.0-rc1-unknown-f68581d~66~ubuntu16.04.1) date Sun Sep 30 17:07:12 2018*
%MOMM*%
%LPD*%
G01*
G04 APERTURE LIST*
%ADD10C,0.300000*%
%ADD11C,0.120000*%
%ADD12C,0.150000*%
G04 APERTURE END LIST*
D10*
X552142Y12251428D02*
X552142Y11037142D01*
X623571Y10894285D01*
X694999Y10822857D01*
X837857Y10751428D01*
X1123571Y10751428D01*
X1266428Y10822857D01*
X1337857Y10894285D01*
X1409285Y11037142D01*
X1409285Y12251428D01*
X2909285Y10751428D02*
X2052142Y10751428D01*
X2480714Y10751428D02*
X2480714Y12251428D01*
X2337857Y12037142D01*
X2194999Y11894285D01*
X2052142Y11822857D01*
X17062142Y11322857D02*
X18205000Y11322857D01*
X17633571Y10751428D02*
X17633571Y11894285D01*
X9481428Y2508571D02*
X9410000Y2580000D01*
X9338571Y2722857D01*
X9338571Y3080000D01*
X9410000Y3222857D01*
X9481428Y3294285D01*
X9624285Y3365714D01*
X9767142Y3365714D01*
X9981428Y3294285D01*
X10838571Y2437142D01*
X10838571Y3365714D01*
X9338571Y4294285D02*
X9338571Y4437142D01*
X9410000Y4580000D01*
X9481428Y4651428D01*
X9624285Y4722857D01*
X9910000Y4794285D01*
X10267142Y4794285D01*
X10552857Y4722857D01*
X10695714Y4651428D01*
X10767142Y4580000D01*
X10838571Y4437142D01*
X10838571Y4294285D01*
X10767142Y4151428D01*
X10695714Y4080000D01*
X10552857Y4008571D01*
X10267142Y3937142D01*
X9910000Y3937142D01*
X9624285Y4008571D01*
X9481428Y4080000D01*
X9410000Y4151428D01*
X9338571Y4294285D01*
X10838571Y6222857D02*
X10838571Y5365714D01*
X10838571Y5794285D02*
X9338571Y5794285D01*
X9552857Y5651428D01*
X9695714Y5508571D01*
X9767142Y5365714D01*
X9981428Y7080000D02*
X9910000Y6937142D01*
X9838571Y6865714D01*
X9695714Y6794285D01*
X9624285Y6794285D01*
X9481428Y6865714D01*
X9410000Y6937142D01*
X9338571Y7080000D01*
X9338571Y7365714D01*
X9410000Y7508571D01*
X9481428Y7580000D01*
X9624285Y7651428D01*
X9695714Y7651428D01*
X9838571Y7580000D01*
X9910000Y7508571D01*
X9981428Y7365714D01*
X9981428Y7080000D01*
X10052857Y6937142D01*
X10124285Y6865714D01*
X10267142Y6794285D01*
X10552857Y6794285D01*
X10695714Y6865714D01*
X10767142Y6937142D01*
X10838571Y7080000D01*
X10838571Y7365714D01*
X10767142Y7508571D01*
X10695714Y7580000D01*
X10552857Y7651428D01*
X10267142Y7651428D01*
X10124285Y7580000D01*
X10052857Y7508571D01*
X9981428Y7365714D01*
X10767142Y29825714D02*
X10838571Y30040000D01*
X10838571Y30397142D01*
X10767142Y30540000D01*
X10695714Y30611428D01*
X10552857Y30682857D01*
X10410000Y30682857D01*
X10267142Y30611428D01*
X10195714Y30540000D01*
X10124285Y30397142D01*
X10052857Y30111428D01*
X9981428Y29968571D01*
X9910000Y29897142D01*
X9767142Y29825714D01*
X9624285Y29825714D01*
X9481428Y29897142D01*
X9410000Y29968571D01*
X9338571Y30111428D01*
X9338571Y30468571D01*
X9410000Y30682857D01*
X10838571Y31325714D02*
X9338571Y31325714D01*
X10838571Y32040000D02*
X9338571Y32040000D01*
X9338571Y32611428D01*
X9410000Y32754285D01*
X9481428Y32825714D01*
X9624285Y32897142D01*
X9838571Y32897142D01*
X9981428Y32825714D01*
X10052857Y32754285D01*
X10124285Y32611428D01*
X10124285Y32040000D01*
X10838571Y33540000D02*
X9338571Y33540000D01*
X10410000Y34040000D01*
X9338571Y34540000D01*
X10838571Y34540000D01*
X9338571Y35540000D02*
X9338571Y35682857D01*
X9410000Y35825714D01*
X9481428Y35897142D01*
X9624285Y35968571D01*
X9910000Y36040000D01*
X10267142Y36040000D01*
X10552857Y35968571D01*
X10695714Y35897142D01*
X10767142Y35825714D01*
X10838571Y35682857D01*
X10838571Y35540000D01*
X10767142Y35397142D01*
X10695714Y35325714D01*
X10552857Y35254285D01*
X10267142Y35182857D01*
X9910000Y35182857D01*
X9624285Y35254285D01*
X9481428Y35325714D01*
X9410000Y35397142D01*
X9338571Y35540000D01*
X10838571Y37468571D02*
X10838571Y36611428D01*
X10838571Y37040000D02*
X9338571Y37040000D01*
X9552857Y36897142D01*
X9695714Y36754285D01*
X9767142Y36611428D01*
X10410000Y38040000D02*
X10410000Y38754285D01*
X10838571Y37897142D02*
X9338571Y38397142D01*
X10838571Y38897142D01*
D11*
G04 #@! TO.C,U1*
X20003200Y27293000D02*
X20003200Y13093000D01*
X20003200Y27293000D02*
X5803200Y27293000D01*
X5803200Y27293000D02*
X5803200Y13093000D01*
X20003200Y13093000D02*
X5803200Y13093000D01*
X19133200Y13963000D02*
X6673200Y13963000D01*
X6673200Y26423000D02*
X6673200Y13963000D01*
X19133200Y26423000D02*
X6673200Y26423000D01*
X19133200Y26423000D02*
X19133200Y14193000D01*
D12*
G04 #@! TO.C,J1*
X5715000Y12700000D02*
X5715000Y10160000D01*
X3175000Y12700000D02*
X5715000Y12700000D01*
X3175000Y10160000D02*
X3175000Y12700000D01*
X5715000Y10160000D02*
X3175000Y10160000D01*
G04 #@! TO.C,J2*
X5715000Y10160000D02*
X5715000Y12700000D01*
X5715000Y12700000D02*
X8255000Y12700000D01*
X8255000Y12700000D02*
X8255000Y10160000D01*
X8255000Y10160000D02*
X5715000Y10160000D01*
G04 #@! TO.C,J3*
X10795000Y10160000D02*
X8255000Y10160000D01*
X10795000Y12700000D02*
X10795000Y10160000D01*
X8255000Y12700000D02*
X10795000Y12700000D01*
X8255000Y10160000D02*
X8255000Y12700000D01*
G04 #@! TO.C,J4*
X13335000Y10160000D02*
X10795000Y10160000D01*
X10795000Y10160000D02*
X10795000Y12700000D01*
X10795000Y12700000D02*
X13335000Y12700000D01*
X13335000Y12700000D02*
X13335000Y10160000D01*
G04 #@! TO.C,J7*
X13335000Y12700000D02*
X15875000Y12700000D01*
X15875000Y12700000D02*
X15875000Y10160000D01*
X15875000Y10160000D02*
X13335000Y10160000D01*
X13335000Y10160000D02*
X13335000Y12700000D01*
G04 #@! TO.C,U1*
X9398095Y22645619D02*
X9398095Y21836095D01*
X9445714Y21740857D01*
X9493333Y21693238D01*
X9588571Y21645619D01*
X9779047Y21645619D01*
X9874285Y21693238D01*
X9921904Y21740857D01*
X9969523Y21836095D01*
X9969523Y22645619D01*
X10969523Y21645619D02*
X10398095Y21645619D01*
X10683809Y21645619D02*
X10683809Y22645619D01*
X10588571Y22502761D01*
X10493333Y22407523D01*
X10398095Y22359904D01*
X8440057Y25061333D02*
X9044819Y25061333D01*
X8319104Y24698476D02*
X8742438Y25968476D01*
X9165771Y24698476D01*
X10254342Y24698476D02*
X9528628Y24698476D01*
X9891485Y24698476D02*
X9891485Y25968476D01*
X9770533Y25787047D01*
X9649580Y25666095D01*
X9528628Y25605619D01*
G04 #@! TD*
M02*
