G04 #@! TF.GenerationSoftware,KiCad,Pcbnew,6.0.0-rc1-unknown-f68581d~66~ubuntu16.04.1*
G04 #@! TF.CreationDate,2018-09-30T17:07:12+02:00*
G04 #@! TF.ProjectId,SIPM01A,5349504D3031412E6B696361645F7063,rev?*
G04 #@! TF.SameCoordinates,Original*
G04 #@! TF.FileFunction,Soldermask,Bot*
G04 #@! TF.FilePolarity,Negative*
%FSLAX46Y46*%
G04 Gerber Fmt 4.6, Leading zero omitted, Abs format (unit mm)*
G04 Created by KiCad (PCBNEW 6.0.0-rc1-unknown-f68581d~66~ubuntu16.04.1) date Sun Sep 30 17:07:12 2018*
%MOMM*%
%LPD*%
G01*
G04 APERTURE LIST*
%ADD10C,0.100000*%
G04 APERTURE END LIST*
D10*
G36*
X16173405Y8157026D02*
X16755767Y7915804D01*
X17279884Y7565600D01*
X17725600Y7119884D01*
X18075804Y6595767D01*
X18317026Y6013405D01*
X18440000Y5395174D01*
X18440000Y4764826D01*
X18317026Y4146595D01*
X18075804Y3564233D01*
X17725600Y3040116D01*
X17279884Y2594400D01*
X16755767Y2244196D01*
X16173405Y2002974D01*
X15555174Y1880000D01*
X14924826Y1880000D01*
X14306595Y2002974D01*
X13724233Y2244196D01*
X13200116Y2594400D01*
X12754400Y3040116D01*
X12404196Y3564233D01*
X12162974Y4146595D01*
X12040000Y4764826D01*
X12040000Y5395174D01*
X12162974Y6013405D01*
X12404196Y6595767D01*
X12754400Y7119884D01*
X13200116Y7565600D01*
X13724233Y7915804D01*
X14306595Y8157026D01*
X14924826Y8280000D01*
X15555174Y8280000D01*
X16173405Y8157026D01*
X16173405Y8157026D01*
G37*
G36*
X6013405Y8157026D02*
X6595767Y7915804D01*
X7119884Y7565600D01*
X7565600Y7119884D01*
X7915804Y6595767D01*
X8157026Y6013405D01*
X8280000Y5395174D01*
X8280000Y4764826D01*
X8157026Y4146595D01*
X7915804Y3564233D01*
X7565600Y3040116D01*
X7119884Y2594400D01*
X6595767Y2244196D01*
X6013405Y2002974D01*
X5395174Y1880000D01*
X4764826Y1880000D01*
X4146595Y2002974D01*
X3564233Y2244196D01*
X3040116Y2594400D01*
X2594400Y3040116D01*
X2244196Y3564233D01*
X2002974Y4146595D01*
X1880000Y4764826D01*
X1880000Y5395174D01*
X2002974Y6013405D01*
X2244196Y6595767D01*
X2594400Y7119884D01*
X3040116Y7565600D01*
X3564233Y7915804D01*
X4146595Y8157026D01*
X4764826Y8280000D01*
X5395174Y8280000D01*
X6013405Y8157026D01*
X6013405Y8157026D01*
G37*
G36*
X7947000Y10468000D02*
X6023000Y10468000D01*
X6023000Y12392000D01*
X7947000Y12392000D01*
X7947000Y10468000D01*
X7947000Y10468000D01*
G37*
G36*
X15567000Y10468000D02*
X13643000Y10468000D01*
X13643000Y12392000D01*
X15567000Y12392000D01*
X15567000Y10468000D01*
X15567000Y10468000D01*
G37*
G36*
X5407000Y10468000D02*
X3483000Y10468000D01*
X3483000Y12392000D01*
X5407000Y12392000D01*
X5407000Y10468000D01*
X5407000Y10468000D01*
G37*
G36*
X10487000Y10468000D02*
X8563000Y10468000D01*
X8563000Y12392000D01*
X10487000Y12392000D01*
X10487000Y10468000D01*
X10487000Y10468000D01*
G37*
G36*
X13027000Y10468000D02*
X11103000Y10468000D01*
X11103000Y12392000D01*
X13027000Y12392000D01*
X13027000Y10468000D01*
X13027000Y10468000D01*
G37*
G36*
X19229680Y12525400D02*
X16330320Y12525400D01*
X16330320Y15475560D01*
X19229680Y15475560D01*
X19229680Y12525400D01*
X19229680Y12525400D01*
G37*
G36*
X6529680Y13764920D02*
X3630320Y13764920D01*
X3630320Y16715080D01*
X6529680Y16715080D01*
X6529680Y13764920D01*
X6529680Y13764920D01*
G37*
G36*
X11075740Y20215011D02*
X11118543Y20202027D01*
X11157987Y20180943D01*
X11192566Y20152566D01*
X11220943Y20117987D01*
X11242027Y20078543D01*
X11255011Y20035740D01*
X11260000Y19985084D01*
X11260000Y18479916D01*
X11255011Y18429260D01*
X11242027Y18386457D01*
X11220943Y18347013D01*
X11188371Y18307323D01*
X11180351Y18299304D01*
X11166736Y18278930D01*
X11157357Y18256292D01*
X11152576Y18232258D01*
X11152574Y18207754D01*
X11157354Y18183720D01*
X11166730Y18161081D01*
X11180343Y18140706D01*
X11197669Y18123378D01*
X11218043Y18109763D01*
X11240681Y18100384D01*
X11264715Y18095603D01*
X11276973Y18095000D01*
X11860000Y18095000D01*
X11860000Y16195000D01*
X11277364Y16195000D01*
X11252978Y16192598D01*
X11229529Y16185485D01*
X11207918Y16173934D01*
X11188976Y16158388D01*
X11173430Y16139446D01*
X11161879Y16117835D01*
X11154766Y16094386D01*
X11152364Y16070000D01*
X11154766Y16045614D01*
X11161879Y16022165D01*
X11173430Y16000554D01*
X11185245Y15987518D01*
X11184931Y15987260D01*
X11221042Y15943258D01*
X11242074Y15903911D01*
X11255023Y15861224D01*
X11260000Y15810686D01*
X11260000Y14304314D01*
X11255023Y14253776D01*
X11242074Y14211089D01*
X11221042Y14171742D01*
X11192742Y14137258D01*
X11158258Y14108958D01*
X11118911Y14087926D01*
X11076224Y14074977D01*
X11025686Y14070000D01*
X9294314Y14070000D01*
X9243776Y14074977D01*
X9201089Y14087926D01*
X9161742Y14108958D01*
X9127258Y14137258D01*
X9098958Y14171742D01*
X9077926Y14211089D01*
X9064977Y14253776D01*
X9060000Y14304314D01*
X9060000Y15810686D01*
X9064977Y15861224D01*
X9077926Y15903911D01*
X9098958Y15943258D01*
X9131628Y15983067D01*
X9139263Y15990702D01*
X9152877Y16011077D01*
X9162254Y16033716D01*
X9167034Y16057749D01*
X9167034Y16082253D01*
X9162253Y16106287D01*
X9152876Y16128926D01*
X9139261Y16149300D01*
X9121934Y16166627D01*
X9101559Y16180241D01*
X9078920Y16189618D01*
X9042636Y16195000D01*
X8460000Y16195000D01*
X8460000Y18095000D01*
X9043027Y18095000D01*
X9067413Y18097402D01*
X9090862Y18104515D01*
X9112473Y18116066D01*
X9131415Y18131612D01*
X9146961Y18150554D01*
X9158512Y18172165D01*
X9165625Y18195614D01*
X9168027Y18220000D01*
X9165625Y18244386D01*
X9158512Y18267835D01*
X9146961Y18289446D01*
X9131415Y18308388D01*
X9128840Y18310722D01*
X9099057Y18347013D01*
X9077973Y18386457D01*
X9064989Y18429260D01*
X9060000Y18479916D01*
X9060000Y19985084D01*
X9064989Y20035740D01*
X9077973Y20078543D01*
X9099057Y20117987D01*
X9127434Y20152566D01*
X9162013Y20180943D01*
X9201457Y20202027D01*
X9244260Y20215011D01*
X9294916Y20220000D01*
X11025084Y20220000D01*
X11075740Y20215011D01*
X11075740Y20215011D01*
G37*
G36*
X14885740Y20215011D02*
X14928543Y20202027D01*
X14967987Y20180943D01*
X15002566Y20152566D01*
X15030943Y20117987D01*
X15052027Y20078543D01*
X15065011Y20035740D01*
X15070000Y19985084D01*
X15070000Y18479916D01*
X15065011Y18429260D01*
X15052027Y18386457D01*
X15030943Y18347013D01*
X14998371Y18307323D01*
X14990351Y18299304D01*
X14976736Y18278930D01*
X14967357Y18256292D01*
X14962576Y18232258D01*
X14962574Y18207754D01*
X14967354Y18183720D01*
X14976730Y18161081D01*
X14990343Y18140706D01*
X15007669Y18123378D01*
X15028043Y18109763D01*
X15050681Y18100384D01*
X15074715Y18095603D01*
X15086973Y18095000D01*
X15670000Y18095000D01*
X15670000Y16195000D01*
X15087364Y16195000D01*
X15062978Y16192598D01*
X15039529Y16185485D01*
X15017918Y16173934D01*
X14998976Y16158388D01*
X14983430Y16139446D01*
X14971879Y16117835D01*
X14964766Y16094386D01*
X14962364Y16070000D01*
X14964766Y16045614D01*
X14971879Y16022165D01*
X14983430Y16000554D01*
X14995245Y15987518D01*
X14994931Y15987260D01*
X15031042Y15943258D01*
X15052074Y15903911D01*
X15065023Y15861224D01*
X15070000Y15810686D01*
X15070000Y14304314D01*
X15065023Y14253776D01*
X15052074Y14211089D01*
X15031042Y14171742D01*
X15002742Y14137258D01*
X14968258Y14108958D01*
X14928911Y14087926D01*
X14886224Y14074977D01*
X14835686Y14070000D01*
X13104314Y14070000D01*
X13053776Y14074977D01*
X13011089Y14087926D01*
X12971742Y14108958D01*
X12937258Y14137258D01*
X12908958Y14171742D01*
X12887926Y14211089D01*
X12874977Y14253776D01*
X12870000Y14304314D01*
X12870000Y15810686D01*
X12874977Y15861224D01*
X12887926Y15903911D01*
X12908958Y15943258D01*
X12941628Y15983067D01*
X12949263Y15990702D01*
X12962877Y16011077D01*
X12972254Y16033716D01*
X12977034Y16057749D01*
X12977034Y16082253D01*
X12972253Y16106287D01*
X12962876Y16128926D01*
X12949261Y16149300D01*
X12931934Y16166627D01*
X12911559Y16180241D01*
X12888920Y16189618D01*
X12852636Y16195000D01*
X12270000Y16195000D01*
X12270000Y18095000D01*
X12853027Y18095000D01*
X12877413Y18097402D01*
X12900862Y18104515D01*
X12922473Y18116066D01*
X12941415Y18131612D01*
X12956961Y18150554D01*
X12968512Y18172165D01*
X12975625Y18195614D01*
X12978027Y18220000D01*
X12975625Y18244386D01*
X12968512Y18267835D01*
X12956961Y18289446D01*
X12941415Y18308388D01*
X12938840Y18310722D01*
X12909057Y18347013D01*
X12887973Y18386457D01*
X12874989Y18429260D01*
X12870000Y18479916D01*
X12870000Y19985084D01*
X12874989Y20035740D01*
X12887973Y20078543D01*
X12909057Y20117987D01*
X12937434Y20152566D01*
X12972013Y20180943D01*
X13011457Y20202027D01*
X13054260Y20215011D01*
X13104916Y20220000D01*
X14835084Y20220000D01*
X14885740Y20215011D01*
X14885740Y20215011D01*
G37*
G36*
X19229680Y17574920D02*
X16330320Y17574920D01*
X16330320Y20525080D01*
X19229680Y20525080D01*
X19229680Y17574920D01*
X19229680Y17574920D01*
G37*
G36*
X6529680Y18814440D02*
X3630320Y18814440D01*
X3630320Y21764600D01*
X6529680Y21764600D01*
X6529680Y18814440D01*
X6529680Y18814440D01*
G37*
G36*
X12832500Y23976973D02*
X12834902Y23952587D01*
X12842015Y23929138D01*
X12853566Y23907527D01*
X12869112Y23888585D01*
X12888054Y23873039D01*
X12909665Y23861488D01*
X12933114Y23854375D01*
X12957500Y23851973D01*
X12981886Y23854375D01*
X13005335Y23861488D01*
X13026946Y23873039D01*
X13045888Y23888585D01*
X13048222Y23891160D01*
X13084513Y23920943D01*
X13123957Y23942027D01*
X13166760Y23955011D01*
X13217416Y23960000D01*
X14722584Y23960000D01*
X14773240Y23955011D01*
X14816043Y23942027D01*
X14855487Y23920943D01*
X14890066Y23892566D01*
X14918443Y23857987D01*
X14939527Y23818543D01*
X14952511Y23775740D01*
X14957500Y23725084D01*
X14957500Y21994916D01*
X14952511Y21944260D01*
X14939527Y21901457D01*
X14918443Y21862013D01*
X14890066Y21827434D01*
X14855487Y21799057D01*
X14816043Y21777973D01*
X14773240Y21764989D01*
X14722584Y21760000D01*
X13217416Y21760000D01*
X13166760Y21764989D01*
X13123957Y21777973D01*
X13084513Y21799057D01*
X13044823Y21831629D01*
X13036804Y21839649D01*
X13016430Y21853264D01*
X12993792Y21862643D01*
X12969758Y21867424D01*
X12945254Y21867426D01*
X12921220Y21862646D01*
X12898581Y21853270D01*
X12878206Y21839657D01*
X12860878Y21822331D01*
X12847263Y21801957D01*
X12837884Y21779319D01*
X12833103Y21755285D01*
X12832500Y21743027D01*
X12832500Y21160000D01*
X10932500Y21160000D01*
X10932500Y21742636D01*
X10930098Y21767022D01*
X10922985Y21790471D01*
X10911434Y21812082D01*
X10895888Y21831024D01*
X10876946Y21846570D01*
X10855335Y21858121D01*
X10831886Y21865234D01*
X10807500Y21867636D01*
X10783114Y21865234D01*
X10759665Y21858121D01*
X10738054Y21846570D01*
X10725018Y21834755D01*
X10724760Y21835069D01*
X10680758Y21798958D01*
X10641411Y21777926D01*
X10598724Y21764977D01*
X10548186Y21760000D01*
X9041814Y21760000D01*
X8991276Y21764977D01*
X8948589Y21777926D01*
X8909242Y21798958D01*
X8874758Y21827258D01*
X8846458Y21861742D01*
X8825426Y21901089D01*
X8812477Y21943776D01*
X8807500Y21994314D01*
X8807500Y23725686D01*
X8812477Y23776224D01*
X8825426Y23818911D01*
X8846458Y23858258D01*
X8874758Y23892742D01*
X8909242Y23921042D01*
X8948589Y23942074D01*
X8991276Y23955023D01*
X9041814Y23960000D01*
X10548186Y23960000D01*
X10598724Y23955023D01*
X10641411Y23942074D01*
X10680758Y23921042D01*
X10720567Y23888372D01*
X10728202Y23880737D01*
X10748577Y23867123D01*
X10771216Y23857746D01*
X10795249Y23852966D01*
X10819753Y23852966D01*
X10843787Y23857747D01*
X10866426Y23867124D01*
X10886800Y23880739D01*
X10904127Y23898066D01*
X10917741Y23918441D01*
X10927118Y23941080D01*
X10932500Y23977364D01*
X10932500Y24560000D01*
X12832500Y24560000D01*
X12832500Y23976973D01*
X12832500Y23976973D01*
G37*
G36*
X20234000Y21456800D02*
X15834000Y21456800D01*
X15834000Y26396800D01*
X20234000Y26396800D01*
X20234000Y21456800D01*
X20234000Y21456800D01*
G37*
G36*
X5360740Y28470011D02*
X5403543Y28457027D01*
X5442987Y28435943D01*
X5477566Y28407566D01*
X5505943Y28372987D01*
X5527027Y28333543D01*
X5540011Y28290740D01*
X5545000Y28240084D01*
X5545000Y26734916D01*
X5540011Y26684260D01*
X5527027Y26641457D01*
X5505943Y26602013D01*
X5473371Y26562323D01*
X5465351Y26554304D01*
X5451736Y26533930D01*
X5442357Y26511292D01*
X5437576Y26487258D01*
X5437574Y26462754D01*
X5442354Y26438720D01*
X5451730Y26416081D01*
X5465343Y26395706D01*
X5482669Y26378378D01*
X5503043Y26364763D01*
X5525681Y26355384D01*
X5549715Y26350603D01*
X5561973Y26350000D01*
X6145000Y26350000D01*
X6145000Y24450000D01*
X5562364Y24450000D01*
X5537978Y24447598D01*
X5514529Y24440485D01*
X5492918Y24428934D01*
X5473976Y24413388D01*
X5458430Y24394446D01*
X5446879Y24372835D01*
X5439766Y24349386D01*
X5437364Y24325000D01*
X5439766Y24300614D01*
X5446879Y24277165D01*
X5458430Y24255554D01*
X5470245Y24242518D01*
X5469931Y24242260D01*
X5506042Y24198258D01*
X5527074Y24158911D01*
X5540023Y24116224D01*
X5545000Y24065686D01*
X5545000Y22559314D01*
X5540023Y22508776D01*
X5527074Y22466089D01*
X5506042Y22426742D01*
X5477742Y22392258D01*
X5443258Y22363958D01*
X5403911Y22342926D01*
X5361224Y22329977D01*
X5310686Y22325000D01*
X3579314Y22325000D01*
X3528776Y22329977D01*
X3486089Y22342926D01*
X3446742Y22363958D01*
X3412258Y22392258D01*
X3383958Y22426742D01*
X3362926Y22466089D01*
X3349977Y22508776D01*
X3345000Y22559314D01*
X3345000Y24065686D01*
X3349977Y24116224D01*
X3362926Y24158911D01*
X3383958Y24198258D01*
X3416628Y24238067D01*
X3424263Y24245702D01*
X3437877Y24266077D01*
X3447254Y24288716D01*
X3452034Y24312749D01*
X3452034Y24337253D01*
X3447253Y24361287D01*
X3437876Y24383926D01*
X3424261Y24404300D01*
X3406934Y24421627D01*
X3386559Y24435241D01*
X3363920Y24444618D01*
X3327636Y24450000D01*
X2745000Y24450000D01*
X2745000Y26350000D01*
X3328027Y26350000D01*
X3352413Y26352402D01*
X3375862Y26359515D01*
X3397473Y26371066D01*
X3416415Y26386612D01*
X3431961Y26405554D01*
X3443512Y26427165D01*
X3450625Y26450614D01*
X3453027Y26475000D01*
X3450625Y26499386D01*
X3443512Y26522835D01*
X3431961Y26544446D01*
X3416415Y26563388D01*
X3413840Y26565722D01*
X3384057Y26602013D01*
X3362973Y26641457D01*
X3349989Y26684260D01*
X3345000Y26734916D01*
X3345000Y28240084D01*
X3349989Y28290740D01*
X3362973Y28333543D01*
X3384057Y28372987D01*
X3412434Y28407566D01*
X3447013Y28435943D01*
X3486457Y28457027D01*
X3529260Y28470011D01*
X3579916Y28475000D01*
X5310084Y28475000D01*
X5360740Y28470011D01*
X5360740Y28470011D01*
G37*
G36*
X14779600Y25220320D02*
X11829440Y25220320D01*
X11829440Y28119680D01*
X14779600Y28119680D01*
X14779600Y25220320D01*
X14779600Y25220320D01*
G37*
G36*
X9730080Y25220320D02*
X6779920Y25220320D01*
X6779920Y28119680D01*
X9730080Y28119680D01*
X9730080Y25220320D01*
X9730080Y25220320D01*
G37*
G36*
X20234000Y26930500D02*
X15834000Y26930500D01*
X15834000Y31870500D01*
X20234000Y31870500D01*
X20234000Y26930500D01*
X20234000Y26930500D01*
G37*
G36*
X12905080Y29030320D02*
X9954920Y29030320D01*
X9954920Y31929680D01*
X12905080Y31929680D01*
X12905080Y29030320D01*
X12905080Y29030320D01*
G37*
G36*
X7855560Y29030320D02*
X4905400Y29030320D01*
X4905400Y31929680D01*
X7855560Y31929680D01*
X7855560Y29030320D01*
X7855560Y29030320D01*
G37*
G36*
X6013405Y38637026D02*
X6595767Y38395804D01*
X7119884Y38045600D01*
X7565600Y37599884D01*
X7915804Y37075767D01*
X8157026Y36493405D01*
X8280000Y35875174D01*
X8280000Y35244826D01*
X8157026Y34626595D01*
X7915804Y34044233D01*
X7565600Y33520116D01*
X7119884Y33074400D01*
X6595767Y32724196D01*
X6013405Y32482974D01*
X5395174Y32360000D01*
X4764826Y32360000D01*
X4146595Y32482974D01*
X3564233Y32724196D01*
X3040116Y33074400D01*
X2594400Y33520116D01*
X2244196Y34044233D01*
X2002974Y34626595D01*
X1880000Y35244826D01*
X1880000Y35875174D01*
X2002974Y36493405D01*
X2244196Y37075767D01*
X2594400Y37599884D01*
X3040116Y38045600D01*
X3564233Y38395804D01*
X4146595Y38637026D01*
X4764826Y38760000D01*
X5395174Y38760000D01*
X6013405Y38637026D01*
X6013405Y38637026D01*
G37*
G36*
X16173405Y38637026D02*
X16755767Y38395804D01*
X17279884Y38045600D01*
X17725600Y37599884D01*
X18075804Y37075767D01*
X18317026Y36493405D01*
X18440000Y35875174D01*
X18440000Y35244826D01*
X18317026Y34626595D01*
X18075804Y34044233D01*
X17725600Y33520116D01*
X17279884Y33074400D01*
X16755767Y32724196D01*
X16173405Y32482974D01*
X15555174Y32360000D01*
X14924826Y32360000D01*
X14306595Y32482974D01*
X13724233Y32724196D01*
X13200116Y33074400D01*
X12754400Y33520116D01*
X12404196Y34044233D01*
X12162974Y34626595D01*
X12040000Y35244826D01*
X12040000Y35875174D01*
X12162974Y36493405D01*
X12404196Y37075767D01*
X12754400Y37599884D01*
X13200116Y38045600D01*
X13724233Y38395804D01*
X14306595Y38637026D01*
X14924826Y38760000D01*
X15555174Y38760000D01*
X16173405Y38637026D01*
X16173405Y38637026D01*
G37*
M02*
