G04 #@! TF.GenerationSoftware,KiCad,Pcbnew,(5.99.0-6591-gee6c8b60ac)*
G04 #@! TF.CreationDate,2021-02-11T11:37:18+01:00*
G04 #@! TF.ProjectId,AIRDOSC01A_PCB01B,41495244-4f53-4433-9031-415f50434230,rev?*
G04 #@! TF.SameCoordinates,Original*
G04 #@! TF.FileFunction,Legend,Top*
G04 #@! TF.FilePolarity,Positive*
%FSLAX46Y46*%
G04 Gerber Fmt 4.6, Leading zero omitted, Abs format (unit mm)*
G04 Created by KiCad (PCBNEW (5.99.0-6591-gee6c8b60ac)) date 2021-02-11 11:37:18*
%MOMM*%
%LPD*%
G01*
G04 APERTURE LIST*
%ADD10C,0.200000*%
%ADD11C,0.150000*%
G04 APERTURE END LIST*
D10*
X20220619Y21106571D02*
X21149190Y21106571D01*
X20592047Y21663714D02*
X20220619Y19992285D01*
X21025380Y20549428D02*
X20096809Y20549428D01*
X20653952Y19992285D02*
X21025380Y21663714D01*
X21582523Y20239904D02*
X21582523Y21539904D01*
X22077761Y21539904D01*
X22201571Y21478000D01*
X22263476Y21416095D01*
X22325380Y21292285D01*
X22325380Y21106571D01*
X22263476Y20982761D01*
X22201571Y20920857D01*
X22077761Y20858952D01*
X21582523Y20858952D01*
X22882523Y20239904D02*
X22882523Y21539904D01*
X23192047Y21539904D01*
X23377761Y21478000D01*
X23501571Y21354190D01*
X23563476Y21230380D01*
X23625380Y20982761D01*
X23625380Y20797047D01*
X23563476Y20549428D01*
X23501571Y20425619D01*
X23377761Y20301809D01*
X23192047Y20239904D01*
X22882523Y20239904D01*
X20715857Y18999904D02*
X20963476Y18999904D01*
X21087285Y18938000D01*
X21211095Y18814190D01*
X21273000Y18566571D01*
X21273000Y18133238D01*
X21211095Y17885619D01*
X21087285Y17761809D01*
X20963476Y17699904D01*
X20715857Y17699904D01*
X20592047Y17761809D01*
X20468238Y17885619D01*
X20406333Y18133238D01*
X20406333Y18566571D01*
X20468238Y18814190D01*
X20592047Y18938000D01*
X20715857Y18999904D01*
X21830142Y18999904D02*
X21830142Y17947523D01*
X21892047Y17823714D01*
X21953952Y17761809D01*
X22077761Y17699904D01*
X22325380Y17699904D01*
X22449190Y17761809D01*
X22511095Y17823714D01*
X22573000Y17947523D01*
X22573000Y18999904D01*
X23006333Y18999904D02*
X23749190Y18999904D01*
X23377761Y17699904D02*
X23377761Y18999904D01*
X20901571Y16398000D02*
X20777761Y16459904D01*
X20592047Y16459904D01*
X20406333Y16398000D01*
X20282523Y16274190D01*
X20220619Y16150380D01*
X20158714Y15902761D01*
X20158714Y15717047D01*
X20220619Y15469428D01*
X20282523Y15345619D01*
X20406333Y15221809D01*
X20592047Y15159904D01*
X20715857Y15159904D01*
X20901571Y15221809D01*
X20963476Y15283714D01*
X20963476Y15717047D01*
X20715857Y15717047D01*
X21520619Y15159904D02*
X21520619Y16459904D01*
X22263476Y15159904D01*
X22263476Y16459904D01*
X22882523Y15159904D02*
X22882523Y16459904D01*
X23192047Y16459904D01*
X23377761Y16398000D01*
X23501571Y16274190D01*
X23563476Y16150380D01*
X23625380Y15902761D01*
X23625380Y15717047D01*
X23563476Y15469428D01*
X23501571Y15345619D01*
X23377761Y15221809D01*
X23192047Y15159904D01*
X22882523Y15159904D01*
X23067095Y31572571D02*
X21767095Y31572571D01*
X23067095Y32191619D02*
X21767095Y32191619D01*
X23067095Y32934476D01*
X21767095Y32934476D01*
X21890904Y34482095D02*
X21829000Y34544000D01*
X21767095Y34667809D01*
X21767095Y34977333D01*
X21829000Y35101142D01*
X21890904Y35163047D01*
X22014714Y35224952D01*
X22138523Y35224952D01*
X22324238Y35163047D01*
X23067095Y34420190D01*
X23067095Y35224952D01*
X22324238Y35967809D02*
X22262333Y35844000D01*
X22200428Y35782095D01*
X22076619Y35720190D01*
X22014714Y35720190D01*
X21890904Y35782095D01*
X21829000Y35844000D01*
X21767095Y35967809D01*
X21767095Y36215428D01*
X21829000Y36339238D01*
X21890904Y36401142D01*
X22014714Y36463047D01*
X22076619Y36463047D01*
X22200428Y36401142D01*
X22262333Y36339238D01*
X22324238Y36215428D01*
X22324238Y35967809D01*
X22386142Y35844000D01*
X22448047Y35782095D01*
X22571857Y35720190D01*
X22819476Y35720190D01*
X22943285Y35782095D01*
X23005190Y35844000D01*
X23067095Y35967809D01*
X23067095Y36215428D01*
X23005190Y36339238D01*
X22943285Y36401142D01*
X22819476Y36463047D01*
X22571857Y36463047D01*
X22448047Y36401142D01*
X22386142Y36339238D01*
X22324238Y36215428D01*
X21767095Y36834476D02*
X23067095Y37267809D01*
X21767095Y37701142D01*
X23067095Y2108571D02*
X21767095Y2108571D01*
X23067095Y2727619D02*
X21767095Y2727619D01*
X23067095Y3470476D01*
X21767095Y3470476D01*
X21767095Y4956190D02*
X21767095Y5760952D01*
X22262333Y5327619D01*
X22262333Y5513333D01*
X22324238Y5637142D01*
X22386142Y5699047D01*
X22509952Y5760952D01*
X22819476Y5760952D01*
X22943285Y5699047D01*
X23005190Y5637142D01*
X23067095Y5513333D01*
X23067095Y5141904D01*
X23005190Y5018095D01*
X22943285Y4956190D01*
X21767095Y6132380D02*
X23067095Y6565714D01*
X21767095Y6999047D01*
X21767095Y7989523D02*
X21767095Y7741904D01*
X21829000Y7618095D01*
X21890904Y7556190D01*
X22076619Y7432380D01*
X22324238Y7370476D01*
X22819476Y7370476D01*
X22943285Y7432380D01*
X23005190Y7494285D01*
X23067095Y7618095D01*
X23067095Y7865714D01*
X23005190Y7989523D01*
X22943285Y8051428D01*
X22819476Y8113333D01*
X22509952Y8113333D01*
X22386142Y8051428D01*
X22324238Y7989523D01*
X22262333Y7865714D01*
X22262333Y7618095D01*
X22324238Y7494285D01*
X22386142Y7432380D01*
X22509952Y7370476D01*
X1924595Y17255714D02*
X2976976Y17255714D01*
X3100785Y17317619D01*
X3162690Y17379523D01*
X3224595Y17503333D01*
X3224595Y17750952D01*
X3162690Y17874761D01*
X3100785Y17936666D01*
X2976976Y17998571D01*
X1924595Y17998571D01*
X3162690Y18555714D02*
X3224595Y18741428D01*
X3224595Y19050952D01*
X3162690Y19174761D01*
X3100785Y19236666D01*
X2976976Y19298571D01*
X2853166Y19298571D01*
X2729357Y19236666D01*
X2667452Y19174761D01*
X2605547Y19050952D01*
X2543642Y18803333D01*
X2481738Y18679523D01*
X2419833Y18617619D01*
X2296023Y18555714D01*
X2172214Y18555714D01*
X2048404Y18617619D01*
X1986500Y18679523D01*
X1924595Y18803333D01*
X1924595Y19112857D01*
X1986500Y19298571D01*
X1924595Y19670000D02*
X1924595Y20412857D01*
X3224595Y20041428D02*
X1924595Y20041428D01*
X3100785Y20846190D02*
X3162690Y20908095D01*
X3224595Y20846190D01*
X3162690Y20784285D01*
X3100785Y20846190D01*
X3224595Y20846190D01*
X3100785Y22208095D02*
X3162690Y22146190D01*
X3224595Y21960476D01*
X3224595Y21836666D01*
X3162690Y21650952D01*
X3038880Y21527142D01*
X2915071Y21465238D01*
X2667452Y21403333D01*
X2481738Y21403333D01*
X2234119Y21465238D01*
X2110309Y21527142D01*
X1986500Y21650952D01*
X1924595Y21836666D01*
X1924595Y21960476D01*
X1986500Y22146190D01*
X2048404Y22208095D01*
X1924595Y22641428D02*
X1924595Y23508095D01*
X3224595Y22641428D01*
X3224595Y23508095D01*
X4946166Y10322380D02*
X4946166Y10941428D01*
X5317595Y10198571D02*
X4017595Y10631904D01*
X5317595Y11065238D01*
X5317595Y11498571D02*
X4017595Y11498571D01*
X5317595Y12860476D02*
X4698547Y12427142D01*
X5317595Y12117619D02*
X4017595Y12117619D01*
X4017595Y12612857D01*
X4079499Y12736666D01*
X4141404Y12798571D01*
X4265214Y12860476D01*
X4450928Y12860476D01*
X4574738Y12798571D01*
X4636642Y12736666D01*
X4698547Y12612857D01*
X4698547Y12117619D01*
X5317595Y13417619D02*
X4017595Y13417619D01*
X4017595Y13727142D01*
X4079499Y13912857D01*
X4203309Y14036666D01*
X4327119Y14098571D01*
X4574738Y14160476D01*
X4760452Y14160476D01*
X5008071Y14098571D01*
X5131880Y14036666D01*
X5255690Y13912857D01*
X5317595Y13727142D01*
X5317595Y13417619D01*
X4017595Y14965238D02*
X4017595Y15212857D01*
X4079499Y15336666D01*
X4203309Y15460476D01*
X4450928Y15522380D01*
X4884261Y15522380D01*
X5131880Y15460476D01*
X5255690Y15336666D01*
X5317595Y15212857D01*
X5317595Y14965238D01*
X5255690Y14841428D01*
X5131880Y14717619D01*
X4884261Y14655714D01*
X4450928Y14655714D01*
X4203309Y14717619D01*
X4079499Y14841428D01*
X4017595Y14965238D01*
X5255690Y16017619D02*
X5317595Y16203333D01*
X5317595Y16512857D01*
X5255690Y16636666D01*
X5193785Y16698571D01*
X5069976Y16760476D01*
X4946166Y16760476D01*
X4822357Y16698571D01*
X4760452Y16636666D01*
X4698547Y16512857D01*
X4636642Y16265238D01*
X4574738Y16141428D01*
X4512833Y16079523D01*
X4389023Y16017619D01*
X4265214Y16017619D01*
X4141404Y16079523D01*
X4079500Y16141428D01*
X4017595Y16265238D01*
X4017595Y16574761D01*
X4079500Y16760476D01*
X5193785Y18060476D02*
X5255690Y17998571D01*
X5317595Y17812857D01*
X5317595Y17689047D01*
X5255690Y17503333D01*
X5131880Y17379523D01*
X5008071Y17317619D01*
X4760452Y17255714D01*
X4574738Y17255714D01*
X4327119Y17317619D01*
X4203309Y17379523D01*
X4079500Y17503333D01*
X4017595Y17689047D01*
X4017595Y17812857D01*
X4079500Y17998571D01*
X4141404Y18060476D01*
X4017595Y18865238D02*
X4017595Y18989047D01*
X4079500Y19112857D01*
X4141404Y19174761D01*
X4265214Y19236666D01*
X4512833Y19298571D01*
X4822357Y19298571D01*
X5069976Y19236666D01*
X5193785Y19174761D01*
X5255690Y19112857D01*
X5317595Y18989047D01*
X5317595Y18865238D01*
X5255690Y18741428D01*
X5193785Y18679523D01*
X5069976Y18617619D01*
X4822357Y18555714D01*
X4512833Y18555714D01*
X4265214Y18617619D01*
X4141404Y18679523D01*
X4079500Y18741428D01*
X4017595Y18865238D01*
X5317595Y20536666D02*
X5317595Y19793809D01*
X5317595Y20165238D02*
X4017595Y20165238D01*
X4203309Y20041428D01*
X4327119Y19917619D01*
X4389023Y19793809D01*
X4946166Y21031904D02*
X4946166Y21650952D01*
X5317595Y20908095D02*
X4017595Y21341428D01*
X5317595Y21774761D01*
X5441404Y21898571D02*
X5441404Y22889047D01*
X5317595Y23198571D02*
X4017595Y23198571D01*
X4017595Y23693809D01*
X4079500Y23817619D01*
X4141404Y23879523D01*
X4265214Y23941428D01*
X4450928Y23941428D01*
X4574738Y23879523D01*
X4636642Y23817619D01*
X4698547Y23693809D01*
X4698547Y23198571D01*
X5193785Y25241428D02*
X5255690Y25179523D01*
X5317595Y24993809D01*
X5317595Y24870000D01*
X5255690Y24684285D01*
X5131880Y24560476D01*
X5008071Y24498571D01*
X4760452Y24436666D01*
X4574738Y24436666D01*
X4327119Y24498571D01*
X4203309Y24560476D01*
X4079500Y24684285D01*
X4017595Y24870000D01*
X4017595Y24993809D01*
X4079500Y25179523D01*
X4141404Y25241428D01*
X4636642Y26231904D02*
X4698547Y26417619D01*
X4760452Y26479523D01*
X4884261Y26541428D01*
X5069976Y26541428D01*
X5193785Y26479523D01*
X5255690Y26417619D01*
X5317595Y26293809D01*
X5317595Y25798571D01*
X4017595Y25798571D01*
X4017595Y26231904D01*
X4079500Y26355714D01*
X4141404Y26417619D01*
X4265214Y26479523D01*
X4389023Y26479523D01*
X4512833Y26417619D01*
X4574738Y26355714D01*
X4636642Y26231904D01*
X4636642Y25798571D01*
X4017595Y27346190D02*
X4017595Y27470000D01*
X4079500Y27593809D01*
X4141404Y27655714D01*
X4265214Y27717619D01*
X4512833Y27779523D01*
X4822357Y27779523D01*
X5069976Y27717619D01*
X5193785Y27655714D01*
X5255690Y27593809D01*
X5317595Y27470000D01*
X5317595Y27346190D01*
X5255690Y27222380D01*
X5193785Y27160476D01*
X5069976Y27098571D01*
X4822357Y27036666D01*
X4512833Y27036666D01*
X4265214Y27098571D01*
X4141404Y27160476D01*
X4079500Y27222380D01*
X4017595Y27346190D01*
X5317595Y29017619D02*
X5317595Y28274761D01*
X5317595Y28646190D02*
X4017595Y28646190D01*
X4203309Y28522380D01*
X4327119Y28398571D01*
X4389023Y28274761D01*
X4636642Y30008095D02*
X4698547Y30193809D01*
X4760452Y30255714D01*
X4884261Y30317619D01*
X5069976Y30317619D01*
X5193785Y30255714D01*
X5255690Y30193809D01*
X5317595Y30070000D01*
X5317595Y29574761D01*
X4017595Y29574761D01*
X4017595Y30008095D01*
X4079500Y30131904D01*
X4141404Y30193809D01*
X4265214Y30255714D01*
X4389023Y30255714D01*
X4512833Y30193809D01*
X4574738Y30131904D01*
X4636642Y30008095D01*
X4636642Y29574761D01*
X17249190Y22779904D02*
X17249190Y24079904D01*
X17558714Y24079904D01*
X17744428Y24018000D01*
X17868238Y23894190D01*
X17930142Y23770380D01*
X17992047Y23522761D01*
X17992047Y23337047D01*
X17930142Y23089428D01*
X17868238Y22965619D01*
X17744428Y22841809D01*
X17558714Y22779904D01*
X17249190Y22779904D01*
X18549190Y22779904D02*
X18549190Y24079904D01*
X19911095Y22779904D02*
X19477761Y23398952D01*
X19168238Y22779904D02*
X19168238Y24079904D01*
X19663476Y24079904D01*
X19787285Y24018000D01*
X19849190Y23956095D01*
X19911095Y23832285D01*
X19911095Y23646571D01*
X19849190Y23522761D01*
X19787285Y23460857D01*
X19663476Y23398952D01*
X19168238Y23398952D01*
X20715857Y24079904D02*
X20963476Y24079904D01*
X21087285Y24018000D01*
X21211095Y23894190D01*
X21273000Y23646571D01*
X21273000Y23213238D01*
X21211095Y22965619D01*
X21087285Y22841809D01*
X20963476Y22779904D01*
X20715857Y22779904D01*
X20592047Y22841809D01*
X20468238Y22965619D01*
X20406333Y23213238D01*
X20406333Y23646571D01*
X20468238Y23894190D01*
X20592047Y24018000D01*
X20715857Y24079904D01*
X21830142Y24079904D02*
X21830142Y23027523D01*
X21892047Y22903714D01*
X21953952Y22841809D01*
X22077761Y22779904D01*
X22325380Y22779904D01*
X22449190Y22841809D01*
X22511095Y22903714D01*
X22573000Y23027523D01*
X22573000Y24079904D01*
X23006333Y24079904D02*
X23749190Y24079904D01*
X23377761Y22779904D02*
X23377761Y24079904D01*
D11*
X9525095Y20367619D02*
X9525095Y19558095D01*
X9572714Y19462857D01*
X9620333Y19415238D01*
X9715571Y19367619D01*
X9906047Y19367619D01*
X10001285Y19415238D01*
X10048904Y19462857D01*
X10096523Y19558095D01*
X10096523Y20367619D01*
X11096523Y19367619D02*
X10525095Y19367619D01*
X10810809Y19367619D02*
X10810809Y20367619D01*
X10715571Y20224761D01*
X10620333Y20129523D01*
X10525095Y20081904D01*
X7856509Y19291300D02*
G75*
G03*
X7856509Y19291300I-401609J0D01*
G01*
X13787000Y21720000D02*
X13787000Y18920000D01*
X6787000Y18920000D02*
X6787000Y21720000D01*
X11687000Y16820000D02*
X8887000Y16820000D01*
X8887000Y23820000D02*
X11687000Y23820000D01*
X24003000Y19558000D02*
X24003000Y21844000D01*
X29083000Y19558000D02*
X24003000Y19558000D01*
X29083000Y21844000D02*
X29083000Y19558000D01*
X24003000Y17018000D02*
X24003000Y19304000D01*
X29083000Y17018000D02*
X24003000Y17018000D01*
X29083000Y19304000D02*
X29083000Y17018000D01*
X24003000Y1270000D02*
X24003000Y3556000D01*
X29083000Y1270000D02*
X24003000Y1270000D01*
X29083000Y3556000D02*
X29083000Y1270000D01*
X24003000Y14478000D02*
X24003000Y16764000D01*
X29083000Y14478000D02*
X24003000Y14478000D01*
X29083000Y16764000D02*
X29083000Y14478000D01*
X24003000Y31750000D02*
X24003000Y34036000D01*
X29083000Y31750000D02*
X24003000Y31750000D01*
X29083000Y34036000D02*
X29083000Y31750000D01*
X24003000Y34290000D02*
X24003000Y36576000D01*
X29083000Y34290000D02*
X24003000Y34290000D01*
X29083000Y36576000D02*
X29083000Y34290000D01*
X24003000Y36830000D02*
X24003000Y39116000D01*
X29083000Y36830000D02*
X24003000Y36830000D01*
X29083000Y39116000D02*
X29083000Y36830000D01*
X29083000Y6350000D02*
X29083000Y4064000D01*
X24003000Y6350000D02*
X29083000Y6350000D01*
X24003000Y4064000D02*
X24003000Y6350000D01*
X29083000Y8890000D02*
X29083000Y6604000D01*
X24003000Y8890000D02*
X29083000Y8890000D01*
X24003000Y6604000D02*
X24003000Y8890000D01*
X24003000Y22098000D02*
X24003000Y24384000D01*
X29083000Y22098000D02*
X24003000Y22098000D01*
X29083000Y24384000D02*
X29083000Y22098000D01*
M02*
