M48
; DRILL file {KiCad (5.99.0-6591-gee6c8b60ac)} date 02/11/21 11:37:13
; FORMAT={3:3/ absolute / metric / suppress leading zeros}
; #@! TF.CreationDate,2021-02-11T11:37:13+01:00
; #@! TF.GenerationSoftware,Kicad,Pcbnew,(5.99.0-6591-gee6c8b60ac)
; #@! TF.FileFunction,Plated,1,2,PTH
FMAT,2
METRIC,TZ
T1C0.400
T2C0.889
T3C3.000
%
G90
G05
T1
X5715Y10160
X7239Y30988
X7239Y29464
X7239Y27432
X7239Y25908
X7239Y10160
X7747Y15748
X8509Y25781
X8763Y13208
X8763Y10160
X9271Y33020
X10287Y13208
X10287Y10160
X10795Y33020
X11303Y28956
X11811Y10160
X12827Y24892
X12827Y11684
X13335Y10160
X14351Y18288
X14859Y25400
X14859Y20828
X15494Y22860
X16383Y23368
X16383Y16256
X17399Y16285
X17907Y20320
X17907Y14224
X18415Y23368
X19431Y38100
X19431Y36068
X19431Y34544
X19431Y32512
X19939Y23368
X20447Y19812
X20955Y38100
X22987Y38100
X22987Y16256
X22987Y14732
X22987Y13208
X24511Y13208
X26035Y30988
X26035Y29464
X26035Y27432
X26035Y25908
X26035Y13208
X27559Y13208
X28067Y30988
X28067Y29464
X28067Y27432
X28067Y25908
T2
X25273Y2540
X27813Y2540
X25273Y18288
X27813Y18288
X25273Y33020
X27813Y33020
X25273Y15748
X27813Y15748
X25273Y35560
X27813Y35560
X25273Y20828
X27813Y20828
X25273Y7620
X27813Y7620
X25273Y23368
X27813Y23368
X25273Y5080
X27813Y5080
X25273Y38100
X27813Y38100
T3
X5207Y35560
X5207Y5080
X15367Y5080
X15367Y35560
T0
M30
