G04 #@! TF.GenerationSoftware,KiCad,Pcbnew,(5.99.0-6591-gee6c8b60ac)*
G04 #@! TF.CreationDate,2021-02-11T11:37:18+01:00*
G04 #@! TF.ProjectId,AIRDOSC01A_PCB01B,41495244-4f53-4433-9031-415f50434230,rev?*
G04 #@! TF.SameCoordinates,Original*
G04 #@! TF.FileFunction,Soldermask,Bot*
G04 #@! TF.FilePolarity,Negative*
%FSLAX46Y46*%
G04 Gerber Fmt 4.6, Leading zero omitted, Abs format (unit mm)*
G04 Created by KiCad (PCBNEW (5.99.0-6591-gee6c8b60ac)) date 2021-02-11 11:37:18*
%MOMM*%
%LPD*%
G01*
G04 APERTURE LIST*
G04 Aperture macros list*
%AMRoundRect*
0 Rectangle with rounded corners*
0 $1 Rounding radius*
0 $2 $3 $4 $5 $6 $7 $8 $9 X,Y pos of 4 corners*
0 Add a 4 corners polygon primitive as box body*
4,1,4,$2,$3,$4,$5,$6,$7,$8,$9,$2,$3,0*
0 Add four circle primitives for the rounded corners*
1,1,$1+$1,$2,$3,0*
1,1,$1+$1,$4,$5,0*
1,1,$1+$1,$6,$7,0*
1,1,$1+$1,$8,$9,0*
0 Add four rect primitives between the rounded corners*
20,1,$1+$1,$2,$3,$4,$5,0*
20,1,$1+$1,$4,$5,$6,$7,0*
20,1,$1+$1,$6,$7,$8,$9,0*
20,1,$1+$1,$8,$9,$2,$3,0*%
%AMOutline4P*
0 Free polygon, 4 corners , with rotation*
0 The origin of the aperture is its center*
0 number of corners: always 4*
0 $1 to $8 corner X, Y*
0 $9 Rotation angle, in degrees counterclockwise*
0 create outline with 4 corners*
4,1,4,$1,$2,$3,$4,$5,$6,$7,$8,$1,$2,$9*%
G04 Aperture macros list end*
%ADD10RoundRect,0.313492X0.674008X0.786508X-0.674008X0.786508X-0.674008X-0.786508X0.674008X-0.786508X0*%
%ADD11RoundRect,0.314025X0.673475X0.785975X-0.673475X0.785975X-0.673475X-0.785975X0.673475X-0.785975X0*%
%ADD12Outline4P,-0.950000X-1.700000X0.950000X-1.700000X0.950000X1.700000X-0.950000X1.700000X180.000000*%
%ADD13RoundRect,0.200000X-0.900000X1.250000X-0.900000X-1.250000X0.900000X-1.250000X0.900000X1.250000X0*%
%ADD14RoundRect,0.200000X-0.444500X-0.698500X0.444500X-0.698500X0.444500X0.698500X-0.444500X0.698500X0*%
%ADD15RoundRect,0.200000X-0.698500X0.444500X-0.698500X-0.444500X0.698500X-0.444500X0.698500X0.444500X0*%
%ADD16RoundRect,0.200000X0.444500X0.698500X-0.444500X0.698500X-0.444500X-0.698500X0.444500X-0.698500X0*%
%ADD17RoundRect,0.200000X0.698500X-0.444500X0.698500X0.444500X-0.698500X0.444500X-0.698500X-0.444500X0*%
%ADD18RoundRect,0.200000X-0.762000X-0.762000X0.762000X-0.762000X0.762000X0.762000X-0.762000X0.762000X0*%
%ADD19RoundRect,0.200000X0.762000X0.762000X-0.762000X0.762000X-0.762000X-0.762000X0.762000X-0.762000X0*%
%ADD20C,6.400000*%
%ADD21RoundRect,0.200000X-1.275080X-1.249680X1.275080X-1.249680X1.275080X1.249680X-1.275080X1.249680X0*%
%ADD22RoundRect,0.200000X1.275080X1.249680X-1.275080X1.249680X-1.275080X-1.249680X1.275080X-1.249680X0*%
%ADD23RoundRect,0.200000X-0.530000X-0.325000X0.530000X-0.325000X0.530000X0.325000X-0.530000X0.325000X0*%
G04 APERTURE END LIST*
D10*
X22534500Y25908000D03*
D11*
X18359500Y25908000D03*
D12*
X20447000Y25908000D03*
D13*
X21463000Y2572000D03*
X21463000Y6572000D03*
D14*
X15367000Y30480000D03*
X13462000Y30480000D03*
X19812000Y21336000D03*
X17907000Y21336000D03*
D15*
X18923000Y9652000D03*
X18923000Y11557000D03*
D16*
X14986000Y10096500D03*
X16891000Y10096500D03*
D14*
X20955000Y13208000D03*
X19050000Y13208000D03*
X20955000Y15240000D03*
X19050000Y15240000D03*
X15303500Y27432000D03*
X13398500Y27432000D03*
D16*
X8763000Y27432000D03*
X10668000Y27432000D03*
X9779000Y24892000D03*
X11684000Y24892000D03*
X8890000Y15240000D03*
X10795000Y15240000D03*
D17*
X21971000Y35560000D03*
X21971000Y33655000D03*
D14*
X11303000Y30480000D03*
X9398000Y30480000D03*
D17*
X6731000Y14732000D03*
X6731000Y12827000D03*
X13335000Y20828000D03*
X13335000Y18923000D03*
X14859000Y15240000D03*
X14859000Y13335000D03*
D15*
X12827000Y13335000D03*
X12827000Y15240000D03*
D17*
X21971000Y23241000D03*
X21971000Y21336000D03*
D16*
X20447000Y18288000D03*
X22352000Y18288000D03*
D17*
X16891000Y15240000D03*
X16891000Y13335000D03*
D18*
X27813000Y20828000D03*
X25273000Y20828000D03*
X27813000Y18288000D03*
X25273000Y18288000D03*
X27813000Y2540000D03*
X25273000Y2540000D03*
X27813000Y15748000D03*
X25273000Y15748000D03*
X27813000Y33020000D03*
X25273000Y33020000D03*
X27813000Y35560000D03*
X25273000Y35560000D03*
X27813000Y38100000D03*
X25273000Y38100000D03*
D19*
X25273000Y5080000D03*
X27813000Y5080000D03*
X25273000Y7620000D03*
X27813000Y7620000D03*
D18*
X27813000Y23368000D03*
X25273000Y23368000D03*
D20*
X5207000Y5080000D03*
X5207000Y35560000D03*
X15367000Y5080000D03*
X15367000Y35560000D03*
D21*
X22494240Y10668000D03*
X27543760Y10668000D03*
D22*
X22956520Y29987240D03*
X17907000Y29987240D03*
D23*
X16383000Y17338000D03*
X16383000Y18288000D03*
X16383000Y19238000D03*
X18583000Y19238000D03*
X18583000Y18288000D03*
X18583000Y17338000D03*
G36*
X21511018Y12346895D02*
G01*
X21510308Y12345232D01*
X21500599Y12337086D01*
X21462071Y12279176D01*
X21460972Y12209924D01*
X21497439Y12151150D01*
X21580156Y12119548D01*
X21581417Y12117996D01*
X21580703Y12116128D01*
X21579442Y12115680D01*
X21219359Y12115680D01*
X21143402Y12100571D01*
X21110749Y12078753D01*
X21108753Y12078622D01*
X21107642Y12080285D01*
X21108352Y12081948D01*
X21118061Y12090094D01*
X21156589Y12148004D01*
X21157688Y12217256D01*
X21121221Y12276030D01*
X21038504Y12307632D01*
X21037243Y12309184D01*
X21037957Y12311052D01*
X21039218Y12311500D01*
X21399301Y12311500D01*
X21475258Y12326609D01*
X21507911Y12348427D01*
X21509907Y12348558D01*
X21511018Y12346895D01*
G37*
G36*
X18438571Y12409853D02*
G01*
X18465521Y12369521D01*
X18529742Y12326609D01*
X18605699Y12311500D01*
X19494301Y12311500D01*
X19570258Y12326609D01*
X19634479Y12369521D01*
X19650205Y12393056D01*
X19651999Y12393941D01*
X19653662Y12392830D01*
X19653600Y12390945D01*
X19637115Y12362392D01*
X19620717Y12294794D01*
X19643394Y12229272D01*
X19682179Y12194016D01*
X19689193Y12189966D01*
X19690193Y12188234D01*
X19689193Y12186502D01*
X19687803Y12186272D01*
X19621301Y12199500D01*
X18341246Y12199500D01*
X18339514Y12200500D01*
X18339514Y12202500D01*
X18340683Y12203419D01*
X18407698Y12223096D01*
X18453053Y12275439D01*
X18462911Y12344001D01*
X18436211Y12403713D01*
X18436105Y12404011D01*
X18434976Y12408224D01*
X18435494Y12410156D01*
X18437426Y12410674D01*
X18438571Y12409853D01*
G37*
G36*
X15994875Y13784743D02*
G01*
X15995260Y13783123D01*
X15994500Y13779301D01*
X15994500Y12896948D01*
X15993500Y12895216D01*
X15990792Y12895907D01*
X15959227Y12947693D01*
X15896930Y12977954D01*
X15828161Y12969733D01*
X15774694Y12925586D01*
X15758556Y12885735D01*
X15756979Y12884505D01*
X15755125Y12885256D01*
X15754740Y12886876D01*
X15755500Y12890699D01*
X15755500Y13773053D01*
X15756500Y13774785D01*
X15759208Y13774094D01*
X15790775Y13722306D01*
X15853072Y13692046D01*
X15921840Y13700268D01*
X15975307Y13744415D01*
X15991444Y13784264D01*
X15993021Y13785494D01*
X15994875Y13784743D01*
G37*
G36*
X13962875Y13784743D02*
G01*
X13963260Y13783123D01*
X13962500Y13779301D01*
X13962500Y12896948D01*
X13961500Y12895216D01*
X13958792Y12895907D01*
X13927227Y12947693D01*
X13864930Y12977954D01*
X13796161Y12969733D01*
X13742694Y12925586D01*
X13726556Y12885735D01*
X13724979Y12884505D01*
X13723125Y12885256D01*
X13722740Y12886876D01*
X13723500Y12890699D01*
X13723500Y13773053D01*
X13724500Y13774785D01*
X13727208Y13774094D01*
X13758775Y13722306D01*
X13821072Y13692046D01*
X13889840Y13700268D01*
X13943307Y13744415D01*
X13959444Y13784264D01*
X13961021Y13785494D01*
X13962875Y13784743D01*
G37*
G36*
X20510699Y14343500D02*
G01*
X21393053Y14343500D01*
X21394785Y14342500D01*
X21394094Y14339792D01*
X21342306Y14308225D01*
X21312046Y14245928D01*
X21320268Y14177160D01*
X21364415Y14123693D01*
X21404264Y14107556D01*
X21405494Y14105979D01*
X21404743Y14104125D01*
X21403123Y14103740D01*
X21399301Y14104500D01*
X20516948Y14104500D01*
X20515216Y14105500D01*
X20515907Y14108208D01*
X20567693Y14139773D01*
X20597954Y14202070D01*
X20589733Y14270839D01*
X20545586Y14324306D01*
X20505735Y14340444D01*
X20504505Y14342021D01*
X20505256Y14343875D01*
X20506876Y14344260D01*
X20510699Y14343500D01*
G37*
G36*
X18605699Y14343500D02*
G01*
X19488053Y14343500D01*
X19489785Y14342500D01*
X19489094Y14339792D01*
X19437306Y14308225D01*
X19407046Y14245928D01*
X19415268Y14177160D01*
X19459415Y14123693D01*
X19499264Y14107556D01*
X19500494Y14105979D01*
X19499743Y14104125D01*
X19498123Y14103740D01*
X19494301Y14104500D01*
X18611948Y14104500D01*
X18610216Y14105500D01*
X18610907Y14108208D01*
X18662693Y14139773D01*
X18692954Y14202070D01*
X18684733Y14270839D01*
X18640586Y14324306D01*
X18600735Y14340444D01*
X18599505Y14342021D01*
X18600256Y14343875D01*
X18601876Y14344260D01*
X18605699Y14343500D01*
G37*
G36*
X15994875Y15689743D02*
G01*
X15995260Y15688123D01*
X15994500Y15684301D01*
X15994500Y14801948D01*
X15993500Y14800216D01*
X15990792Y14800907D01*
X15959227Y14852693D01*
X15896930Y14882954D01*
X15828161Y14874733D01*
X15774694Y14830586D01*
X15758556Y14790735D01*
X15756979Y14789505D01*
X15755125Y14790256D01*
X15754740Y14791876D01*
X15755500Y14795699D01*
X15755500Y15678053D01*
X15756500Y15679785D01*
X15759208Y15679094D01*
X15790775Y15627306D01*
X15853072Y15597046D01*
X15921840Y15605268D01*
X15975307Y15649415D01*
X15991444Y15689264D01*
X15993021Y15690494D01*
X15994875Y15689743D01*
G37*
G36*
X13962875Y15689743D02*
G01*
X13963260Y15688123D01*
X13962500Y15684301D01*
X13962500Y14801948D01*
X13961500Y14800216D01*
X13958792Y14800907D01*
X13927227Y14852693D01*
X13864930Y14882954D01*
X13796161Y14874733D01*
X13742694Y14830586D01*
X13726556Y14790735D01*
X13724979Y14789505D01*
X13723125Y14790256D01*
X13722740Y14791876D01*
X13723500Y14795699D01*
X13723500Y15678053D01*
X13724500Y15679785D01*
X13727208Y15679094D01*
X13758775Y15627306D01*
X13821072Y15597046D01*
X13889840Y15605268D01*
X13943307Y15649415D01*
X13959444Y15689264D01*
X13961021Y15690494D01*
X13962875Y15689743D01*
G37*
G36*
X21398919Y26875987D02*
G01*
X21418596Y26808972D01*
X21470939Y26763617D01*
X21539382Y26753776D01*
X21619820Y26800858D01*
X21625294Y26807993D01*
X21627142Y26808759D01*
X21628729Y26807541D01*
X21628610Y26805771D01*
X21580482Y26722911D01*
X21550379Y26593039D01*
X21549001Y26557972D01*
X21549000Y25258152D01*
X21568826Y25126278D01*
X21620003Y25019704D01*
X21619851Y25017710D01*
X21618048Y25016844D01*
X21617021Y25017223D01*
X21563581Y25056244D01*
X21494446Y25060363D01*
X21434155Y25026504D01*
X21398852Y24939822D01*
X21397273Y24938595D01*
X21395421Y24939349D01*
X21395000Y24940576D01*
X21395000Y26875424D01*
X21396000Y26877156D01*
X21398000Y26877156D01*
X21398919Y26875987D01*
G37*
G36*
X19498579Y26876365D02*
G01*
X19499000Y26875138D01*
X19499000Y24940863D01*
X19498000Y24939131D01*
X19496000Y24939131D01*
X19495081Y24940300D01*
X19475404Y25007315D01*
X19423061Y25052670D01*
X19354618Y25062511D01*
X19274183Y25015431D01*
X19268626Y25008189D01*
X19266778Y25007424D01*
X19265191Y25008642D01*
X19265310Y25010412D01*
X19313489Y25093357D01*
X19343619Y25223353D01*
X19344999Y25258453D01*
X19345000Y26557423D01*
X19325155Y26689422D01*
X19273958Y26796039D01*
X19274110Y26798033D01*
X19275913Y26798899D01*
X19276940Y26798520D01*
X19330420Y26759470D01*
X19399555Y26755351D01*
X19459846Y26789210D01*
X19495148Y26875892D01*
X19496727Y26877119D01*
X19498579Y26876365D01*
G37*
M02*
